<svg viewBox="0 0 330 200" xmlns="http://www.w3.org/2000/svg"><g><g><g><g><g><line x1="48.875" y1="177" x2="43.875" y2="177" style="visibility: inherit;" fill="rgb(0, 0, 0)" stroke="rgb(204, 204, 204)" stroke-width="1px"></line><line x1="48.875" y1="163.3846153846154" x2="43.875" y2="163.3846153846154" style="visibility: inherit;" fill="rgb(0, 0, 0)" stroke="rgb(204, 204, 204)" stroke-width="1px"></line><line x1="48.875" y1="149.76923076923077" x2="43.875" y2="149.76923076923077" style="visibility: inherit;" fill="rgb(0, 0, 0)" stroke="rgb(204, 204, 204)" stroke-width="1px"></line><line x1="48.875" y1="136.15384615384616" x2="43.875" y2="136.15384615384616" style="visibility: inherit;" fill="rgb(0, 0, 0)" stroke="rgb(204, 204, 204)" stroke-width="1px"></line><line x1="48.875" y1="122.53846153846153" x2="43.875" y2="122.53846153846153" style="visibility: inherit;" fill="rgb(0, 0, 0)" stroke="rgb(204, 204, 204)" stroke-width="1px"></line><line x1="48.875" y1="108.92307692307693" x2="43.875" y2="108.92307692307693" style="visibility: inherit;" fill="rgb(0, 0, 0)" stroke="rgb(204, 204, 204)" stroke-width="1px"></line><line x1="48.875" y1="95.3076923076923" x2="43.875" y2="95.3076923076923" style="visibility: inherit;" fill="rgb(0, 0, 0)" stroke="rgb(204, 204, 204)" stroke-width="1px"></line><line x1="48.875" y1="81.6923076923077" x2="43.875" y2="81.6923076923077" style="visibility: inherit;" fill="rgb(0, 0, 0)" stroke="rgb(204, 204, 204)" stroke-width="1px"></line><line x1="48.875" y1="68.0769230769231" x2="43.875" y2="68.0769230769231" style="visibility: inherit;" fill="rgb(0, 0, 0)" stroke="rgb(204, 204, 204)" stroke-width="1px"></line><line x1="48.875" y1="54.46153846153847" x2="43.875" y2="54.46153846153847" style="visibility: inherit;" fill="rgb(0, 0, 0)" stroke="rgb(204, 204, 204)" stroke-width="1px"></line><line x1="48.875" y1="40.84615384615387" x2="43.875" y2="40.84615384615387" style="visibility: inherit;" fill="rgb(0, 0, 0)" stroke="rgb(204, 204, 204)" stroke-width="1px"></line><line x1="48.875" y1="27.230769230769226" x2="43.875" y2="27.230769230769226" style="visibility: inherit;" fill="rgb(0, 0, 0)" stroke="rgb(204, 204, 204)" stroke-width="1px"></line><line x1="48.875" y1="13.615384615384613" x2="43.875" y2="13.615384615384613" style="visibility: inherit;" fill="rgb(0, 0, 0)" stroke="rgb(204, 204, 204)" stroke-width="1px"></line><line x1="48.875" y1="0" x2="43.875" y2="0" style="visibility: inherit;" fill="rgb(0, 0, 0)" stroke="rgb(204, 204, 204)" stroke-width="1px"></line></g><g transform="translate(38.875, 0)"><text x="0" y="177" dx="0em" dy="0.3em" style="text-anchor: end; visibility: hidden; font-family: &quot;Helvetica Neue&quot;, sans-serif; font-size: 12px; font-weight: 200;" fill="rgb(50, 49, 63)" stroke="none" stroke-width="1px">-0.1</text><text x="0" y="163.3846153846154" dx="0em" dy="0.3em" style="text-anchor: end; visibility: inherit; font-family: &quot;Helvetica Neue&quot;, sans-serif; font-size: 12px; font-weight: 200;" fill="rgb(50, 49, 63)" stroke="none" stroke-width="1px">0</text><text x="0" y="149.76923076923077" dx="0em" dy="0.3em" style="text-anchor: end; visibility: hidden; font-family: &quot;Helvetica Neue&quot;, sans-serif; font-size: 12px; font-weight: 200;" fill="rgb(50, 49, 63)" stroke="none" stroke-width="1px">0.1</text><text x="0" y="136.15384615384616" dx="0em" dy="0.3em" style="text-anchor: end; visibility: inherit; font-family: &quot;Helvetica Neue&quot;, sans-serif; font-size: 12px; font-weight: 200;" fill="rgb(50, 49, 63)" stroke="none" stroke-width="1px">0.2</text><text x="0" y="122.53846153846153" dx="0em" dy="0.3em" style="text-anchor: end; visibility: hidden; font-family: &quot;Helvetica Neue&quot;, sans-serif; font-size: 12px; font-weight: 200;" fill="rgb(50, 49, 63)" stroke="none" stroke-width="1px">0.3</text><text x="0" y="108.92307692307693" dx="0em" dy="0.3em" style="text-anchor: end; visibility: inherit; font-family: &quot;Helvetica Neue&quot;, sans-serif; font-size: 12px; font-weight: 200;" fill="rgb(50, 49, 63)" stroke="none" stroke-width="1px">0.4</text><text x="0" y="95.3076923076923" dx="0em" dy="0.3em" style="text-anchor: end; visibility: hidden; font-family: &quot;Helvetica Neue&quot;, sans-serif; font-size: 12px; font-weight: 200;" fill="rgb(50, 49, 63)" stroke="none" stroke-width="1px">0.5</text><text x="0" y="81.6923076923077" dx="0em" dy="0.3em" style="text-anchor: end; visibility: inherit; font-family: &quot;Helvetica Neue&quot;, sans-serif; font-size: 12px; font-weight: 200;" fill="rgb(50, 49, 63)" stroke="none" stroke-width="1px">0.6</text><text x="0" y="68.0769230769231" dx="0em" dy="0.3em" style="text-anchor: end; visibility: hidden; font-family: &quot;Helvetica Neue&quot;, sans-serif; font-size: 12px; font-weight: 200;" fill="rgb(50, 49, 63)" stroke="none" stroke-width="1px">0.7</text><text x="0" y="54.46153846153847" dx="0em" dy="0.3em" style="text-anchor: end; visibility: inherit; font-family: &quot;Helvetica Neue&quot;, sans-serif; font-size: 12px; font-weight: 200;" fill="rgb(50, 49, 63)" stroke="none" stroke-width="1px">0.8</text><text x="0" y="40.84615384615387" dx="0em" dy="0.3em" style="text-anchor: end; visibility: hidden; font-family: &quot;Helvetica Neue&quot;, sans-serif; font-size: 12px; font-weight: 200;" fill="rgb(50, 49, 63)" stroke="none" stroke-width="1px">0.9</text><text x="0" y="27.230769230769226" dx="0em" dy="0.3em" style="text-anchor: end; visibility: inherit; font-family: &quot;Helvetica Neue&quot;, sans-serif; font-size: 12px; font-weight: 200;" fill="rgb(50, 49, 63)" stroke="none" stroke-width="1px">1</text><text x="0" y="13.615384615384613" dx="0em" dy="0.3em" style="text-anchor: end; visibility: hidden; font-family: &quot;Helvetica Neue&quot;, sans-serif; font-size: 12px; font-weight: 200;" fill="rgb(50, 49, 63)" stroke="none" stroke-width="1px">1.1</text><text x="0" y="0" dx="0em" dy="0.3em" style="text-anchor: end; visibility: hidden; font-family: &quot;Helvetica Neue&quot;, sans-serif; font-size: 12px; font-weight: 200;" fill="rgb(50, 49, 63)" stroke="none" stroke-width="1px">1.2</text></g><line x1="48.875" y1="0" x2="48.875" y2="177" fill="rgb(0, 0, 0)" stroke="rgb(204, 204, 204)" stroke-width="1px"></line></g></g><g transform="translate(48, 0)" clip-path="url(#clip_0)"><clipPath id="clip_0"><rect width="281" height="176"></rect></clipPath><g><g><g><line x1="0" y1="0" x2="0" y2="177" fill="rgb(0, 0, 0)" stroke="rgb(60, 60, 60)" stroke-width="1px" opacity="0.25"></line><line x1="20.080357142857142" y1="0" x2="20.080357142857142" y2="177" fill="rgb(0, 0, 0)" stroke="rgb(60, 60, 60)" stroke-width="1px" opacity="0.25"></line><line x1="40.160714285714285" y1="0" x2="40.160714285714285" y2="177" fill="rgb(0, 0, 0)" stroke="rgb(60, 60, 60)" stroke-width="1px" opacity="0.25"></line><line x1="60.24107142857142" y1="0" x2="60.24107142857142" y2="177" fill="rgb(0, 0, 0)" stroke="rgb(60, 60, 60)" stroke-width="1px" opacity="0.25"></line><line x1="80.32142857142857" y1="0" x2="80.32142857142857" y2="177" fill="rgb(0, 0, 0)" stroke="rgb(60, 60, 60)" stroke-width="1px" opacity="0.25"></line><line x1="100.40178571428572" y1="0" x2="100.40178571428572" y2="177" fill="rgb(0, 0, 0)" stroke="rgb(60, 60, 60)" stroke-width="1px" opacity="0.25"></line><line x1="120.48214285714285" y1="0" x2="120.48214285714285" y2="177" fill="rgb(0, 0, 0)" stroke="rgb(60, 60, 60)" stroke-width="1px" opacity="0.25"></line><line x1="140.5625" y1="0" x2="140.5625" y2="177" fill="rgb(0, 0, 0)" stroke="rgb(60, 60, 60)" stroke-width="1px" opacity="0.25"></line><line x1="160.64285714285714" y1="0" x2="160.64285714285714" y2="177" fill="rgb(0, 0, 0)" stroke="rgb(60, 60, 60)" stroke-width="1px" opacity="0.25"></line><line x1="180.7232142857143" y1="0" x2="180.7232142857143" y2="177" fill="rgb(0, 0, 0)" stroke="rgb(60, 60, 60)" stroke-width="1px" opacity="0.25"></line><line x1="200.80357142857144" y1="0" x2="200.80357142857144" y2="177" fill="rgb(0, 0, 0)" stroke="rgb(60, 60, 60)" stroke-width="1px" opacity="0.25"></line><line x1="220.88392857142856" y1="0" x2="220.88392857142856" y2="177" fill="rgb(0, 0, 0)" stroke="rgb(60, 60, 60)" stroke-width="1px" opacity="0.25"></line><line x1="240.9642857142857" y1="0" x2="240.9642857142857" y2="177" fill="rgb(0, 0, 0)" stroke="rgb(60, 60, 60)" stroke-width="1px" opacity="0.25"></line><line x1="261.0446428571429" y1="0" x2="261.0446428571429" y2="177" fill="rgb(0, 0, 0)" stroke="rgb(60, 60, 60)" stroke-width="1px" opacity="0.25"></line><line x1="281.125" y1="0" x2="281.125" y2="177" fill="rgb(0, 0, 0)" stroke="rgb(60, 60, 60)" stroke-width="1px" opacity="0.25"></line></g><g><line x1="0" y1="177" x2="281.125" y2="177" fill="rgb(0, 0, 0)" stroke="rgb(60, 60, 60)" stroke-width="1px" opacity="0.25"></line><line x1="0" y1="163.3846153846154" x2="281.125" y2="163.3846153846154" fill="rgb(0, 0, 0)" stroke="rgb(60, 60, 60)" stroke-width="1px" opacity="0.25"></line><line x1="0" y1="149.76923076923077" x2="281.125" y2="149.76923076923077" fill="rgb(0, 0, 0)" stroke="rgb(60, 60, 60)" stroke-width="1px" opacity="0.25"></line><line x1="0" y1="136.15384615384616" x2="281.125" y2="136.15384615384616" fill="rgb(0, 0, 0)" stroke="rgb(60, 60, 60)" stroke-width="1px" opacity="0.25"></line><line x1="0" y1="122.53846153846153" x2="281.125" y2="122.53846153846153" fill="rgb(0, 0, 0)" stroke="rgb(60, 60, 60)" stroke-width="1px" opacity="0.25"></line><line x1="0" y1="108.92307692307693" x2="281.125" y2="108.92307692307693" fill="rgb(0, 0, 0)" stroke="rgb(60, 60, 60)" stroke-width="1px" opacity="0.25"></line><line x1="0" y1="95.3076923076923" x2="281.125" y2="95.3076923076923" fill="rgb(0, 0, 0)" stroke="rgb(60, 60, 60)" stroke-width="1px" opacity="0.25"></line><line x1="0" y1="81.6923076923077" x2="281.125" y2="81.6923076923077" fill="rgb(0, 0, 0)" stroke="rgb(60, 60, 60)" stroke-width="1px" opacity="0.25"></line><line x1="0" y1="68.0769230769231" x2="281.125" y2="68.0769230769231" fill="rgb(0, 0, 0)" stroke="rgb(60, 60, 60)" stroke-width="1px" opacity="0.25"></line><line x1="0" y1="54.46153846153847" x2="281.125" y2="54.46153846153847" fill="rgb(0, 0, 0)" stroke="rgb(60, 60, 60)" stroke-width="1px" opacity="0.25"></line><line x1="0" y1="40.84615384615387" x2="281.125" y2="40.84615384615387" fill="rgb(0, 0, 0)" stroke="rgb(60, 60, 60)" stroke-width="1px" opacity="0.25"></line><line x1="0" y1="27.230769230769226" x2="281.125" y2="27.230769230769226" fill="rgb(0, 0, 0)" stroke="rgb(60, 60, 60)" stroke-width="1px" opacity="0.25"></line><line x1="0" y1="13.615384615384613" x2="281.125" y2="13.615384615384613" fill="rgb(0, 0, 0)" stroke="rgb(60, 60, 60)" stroke-width="1px" opacity="0.25"></line><line x1="0" y1="0" x2="281.125" y2="0" fill="rgb(0, 0, 0)" stroke="rgb(60, 60, 60)" stroke-width="1px" opacity="0.25"></line></g></g></g><g><g><line x1="0" y1="163.3846153846154" x2="281.125" y2="163.3846153846154" fill="rgb(0, 0, 0)" stroke="rgb(153, 153, 153)" stroke-width="1.5px"></line></g></g><g><g><line x1="20.080357142857142" y1="0" x2="20.080357142857142" y2="177" fill="rgb(0, 0, 0)" stroke="rgb(153, 153, 153)" stroke-width="1.5px"></line></g></g><g><g><g><g><g><path stroke="rgb(51, 187, 238)" stroke-width="2px" d="M20.080357142857142,160.7391461082376L20.080357142857142,161.03868463155456L22.088392857142857,157.1652466154992L24.09642857142857,151.2885428870042L26.104464285714286,145.0809062752909L28.1125,138.9519960887526L30.12053571428571,133.0099354530725L32.128571428571426,127.4835326349214L34.136607142857144,122.34010491647025L36.144642857142856,117.6162405242751L38.15267857142857,113.18889793180313L40.160714285714285,109.11551757267965L42.168749999999996,105.34602796273855L44.176785714285714,101.83007405974644L46.184821428571425,98.77909193970831L48.19285714285714,95.97864250539918L50.20089285714286,93.23234074273965L52.20892857142857,90.72972516819713L54.21696428571429,88.38738180023459L56.225,86.28057538238448L58.23303571428572,84.3177861753279L60.24107142857142,82.58135498933804L62.24910714285714,80.91701248365358L64.25714285714285,79.32260250423352L66.26517857142856,77.97928408763721L68.27321428571429,76.85633007648721L70.28125,75.68804476792573L72.28928571428571,74.62763000427499L74.29732142857144,73.67495869035953L76.30535714285713,72.74445403309903L78.31339285714286,72.04455382389122L80.32142857142857,62.69836592746934L82.3294642857143,54.55437953323778L84.33749999999999,48.41755059506906L86.34553571428572,43.95610858918516L88.35357142857143,40.64149945993182L90.36160714285715,38.14242780782385L92.36964285714285,36.332009126978164L94.37767857142856,34.94295281014007L96.38571428571429,33.84156793664235L98.39375,32.9487306652035L100.40178571428572,32.21860275649894L102.40982142857142,31.51693127400526L104.41785714285714,30.984825290078362L106.42589285714286,30.624173151439464L108.43392857142858,30.328267163057347L110.44196428571428,30.15780344642633L112.45,30.007598900556246L114.45803571428571,29.92401069443278L116.46607142857144,29.82484399104544L118.47410714285715,29.751184216241143L120.48214285714285,29.68030166462279L122.49017857142857,29.622521670899744L124.49821428571428,29.611816832613272L126.50625000000001,29.564547490133066L128.5142857142857,29.502419321522865L130.52232142857144,29.519061148818395L132.53035714285713,29.472949342935294L134.53839285714287,29.46924541735271L136.54642857142858,29.44905231662301L138.5544642857143,29.417329645835537L140.5625,29.432607961475014L142.5705357142857,29.375332534594207L144.57857142857142,29.380177653004466L146.58660714285716,29.382539369060765L148.59464285714287,29.394305158859197L150.60267857142856,29.388837698774807L152.61071428571427,29.38828075151281L154.61875,29.398295343320314L156.62678571428572,29.41192932978089L158.63482142857143,29.362925355577715L160.64285714285714,29.390161982145457L162.65089285714288,29.341694360630555L164.6589285714286,29.370888863780834L166.6669642857143,29.37533327671764L168.67499999999998,29.372552866902453L170.6830357142857,29.353459230623088L172.69107142857143,29.393740357357643L174.69910714285714,29.41028380202232L176.70714285714286,29.371738197936793L178.71517857142857,29.36985371080476L180.7232142857143,29.39377364029184L182.73125000000002,29.42283070574632L184.7392857142857,29.43263971364297L186.7473214285714,29.425998184417466L188.75535714285712,29.408398869099614L190.76339285714286,29.427249495433443L192.77142857142857,29.430934639857668L194.77946428571428,29.405371575957247L196.7875,29.412906185584546L198.79553571428573,29.370591345446144L200.80357142857144,29.360449657954575L202.81160714285713,29.36852439823201L204.81964285714284,29.352129613239867L206.82767857142858,29.394030050746807L208.8357142857143,29.395752510293562L210.84375,29.42292731776766L212.8517857142857,29.386404183770168L214.85982142857142,29.39934757647353L216.86785714285716,29.398943025729608L218.87589285714287,29.377460666124648L220.88392857142856,29.36620406917058L222.89196428571427,29.39430738409996L224.9,29.39537680147626L226.90803571428572,29.390026039334884L228.91607142857143,29.427662021558376L230.92410714285714,29.413753518981736L232.93214285714288,29.388525135874715L234.9401785714286,29.424583305683456L236.9482142857143,29.389033841489265L238.95624999999998,29.404736363712658L240.9642857142857,29.380391313924633L242.97232142857143,29.391925615797817L244.98035714285714,29.394489849324174L246.98839285714286,29.439598357736912L248.99642857142857,29.443791014817037L251.0044642857143,29.42778726253451L253.01250000000002,29.410563025949557L255.0205357142857,29.414930345600197L257.0285714285714,29.37888571784174L259.0366071428571,29.352899347428433" style="fill: none;" fill="none"></path></g><g><path stroke="rgb(0, 119, 187)" stroke-width="2px" d="M20.080357142857142,162.2177769778153L22.088392857142857,160.35842600473777L24.09642857142857,156.95918172167165L26.104464285714286,152.6488393805484L28.1125,148.001344834735L30.12053571428571,143.24064894285306L32.128571428571426,138.48930530734788L34.136607142857144,134.00460464960133L36.144642857142856,129.6129754766461L38.15267857142857,125.53366349767498L40.160714285714285,121.56543201230184L42.168749999999996,117.95311614197334L44.176785714285714,114.4083599059845L46.184821428571425,111.06030691533952L48.19285714285714,107.99937297289483L50.20089285714286,105.14174741773446L52.20892857142857,102.50114033515028L54.21696428571429,100.01726652629102L56.225,97.79836277151843L58.23303571428572,95.52978934450695L60.24107142857142,93.72755169327586L62.24910714285714,91.74651667657436L64.25714285714285,90.15053869841088L66.26517857142856,88.59224536415509L68.27321428571429,87.24881177904706L70.28125,85.96675898528835L72.28928571428571,85.0722657331622L74.29732142857144,83.82811466509276L76.30535714285713,82.83437085743782L78.31339285714286,81.81005675327516L80.32142857142857,80.79408710992801L82.3294642857143,71.13245261369933L84.33749999999999,62.06124204663499L86.34553571428572,54.692211734789694L88.35357142857143,48.98277879024121L90.36160714285715,44.38565110977879L92.36964285714285,40.68355656204011L94.37767857142856,37.88010742493864L96.38571428571429,35.56410497230536L98.39375,33.82540489451699L100.40178571428572,32.435264413808056L102.40982142857142,31.348479503709484L104.41785714285714,30.577138123204207L106.42589285714286,29.756518744581854L108.43392857142858,29.182999593464274L110.44196428571428,28.78878361313545L112.45,28.497247832671178L114.45803571428571,28.294552213843986L116.46607142857144,28.146248155814362L118.47410714285715,28.065978416193047L120.48214285714285,27.97479195911339L122.49017857142857,27.918447266056972L124.49821428571428,27.869389987471067L126.50625000000001,27.833421098923225L128.5142857142857,27.793323665424538L130.52232142857144,27.748025576166754L132.53035714285713,27.720301367622227L134.53839285714287,27.70584501629429L136.54642857142858,27.71514519703831L138.5544642857143,27.72508165308227L140.5625,27.722872940342768L142.5705357142857,27.71664601011159L144.57857142857142,27.701473627989117L146.58660714285716,27.69781725629292L148.59464285714287,27.69834696206388L150.60267857142856,27.68777067037186L152.61071428571427,27.679792076547784L154.61875,27.671736036474783L156.62678571428572,27.671804115018404L158.63482142857143,27.682739077299146L160.64285714285714,27.677318475693966L162.65089285714288,27.67079723095236L164.6589285714286,27.677775353101282L166.6669642857143,27.668893183598016L168.67499999999998,27.663018526906114L170.6830357142857,27.673653485663408L172.69107142857143,27.675132758330392L174.69910714285714,27.6662169167557L176.70714285714286,27.66576911439833L178.71517857142857,27.668769316762393" style="fill: none;" fill="none"></path></g><g><path stroke="rgb(204, 51, 17)" stroke-width="2px" d="M20.080357142857142,159.8949924280437L22.088392857142857,153.97995847194957L24.09642857142857,149.48922643195868L26.104464285714286,146.51564940790502L28.1125,144.63635103286538L30.12053571428571,143.36465682324354L32.128571428571426,142.4815813733838L34.136607142857144,141.73351927595547L36.144642857142856,141.23668894743201L38.15267857142857,140.82784589246097L40.160714285714285,140.58084800378333L42.168749999999996,140.4135752564741L44.176785714285714,140.17874893902393L46.184821428571425,140.09309892138208L48.19285714285714,139.95239338477447L50.20089285714286,139.76777434645396L52.20892857142857,139.57696427162256L54.21696428571429,139.48156310245665L56.225,139.3769439423805L58.23303571428572,139.230302407143L60.24107142857142,139.21584563450068L62.24910714285714,139.06556994775406L64.25714285714285,139.0129844656468L66.26517857142856,138.93840862499005L68.27321428571429,138.78038337943488L70.28125,138.74438661639675L72.28928571428571,138.7418500727415L74.29732142857144,138.81929754693243L76.30535714285713,138.7557535759124L78.31339285714286,138.74976014816156L80.32142857142857,131.18690181349385L82.3294642857143,124.18698089508571L84.33749999999999,119.03667454675991L86.34553571428572,115.2635424971808L88.35357142857143,112.21051679884512L90.36160714285715,109.5949986925572L92.36964285714285,107.39284557649101L94.37767857142856,105.36845479228731L96.38571428571429,103.73119942393973L98.39375,102.21566756330702L100.40178571428572,100.79168590693524L102.40982142857142,99.34257755863395L104.41785714285714,98.2127866963831L106.42589285714286,97.13135273283662L108.43392857142858,96.0865565167484L110.44196428571428,95.12800881465115L112.45,94.33176471432033L114.45803571428571,93.56646035876746L116.46607142857144,92.92646659702088L118.47410714285715,92.26961755237156L120.48214285714285,91.56235425346071L122.49017857142857,91.02961995452428L124.49821428571428,90.60159980941073L126.50625000000001,90.14981682114706L128.5142857142857,89.75239347089588L130.52232142857144,79.70596369169863L132.53035714285713,70.03299202589369L134.53839285714287,62.16729647145087L136.54642857142858,55.80804213052954L138.5544642857143,50.66308286105533L140.5625,46.36325078656762L142.5705357142857,42.85859503326793L144.57857142857142,39.9612063764213L146.58660714285716,37.44015955642013L148.59464285714287,35.40851257594588L150.60267857142856,33.70754094608844L152.61071428571427,32.392865551410665L154.61875,30.957603651178857L156.62678571428572,29.931970043026865L158.63482142857143,29.23653306408869L160.64285714285714,28.77025385085156L162.65089285714288,28.455086940978276L164.6589285714286,28.247470694684324L166.6669642857143,28.067894754627275L168.67499999999998,27.959058480613322L170.6830357142857,27.855091696656103L172.69107142857143,27.76820311334467L174.69910714285714,27.689383276621896L176.70714285714286,27.631200505594336L178.71517857142857,27.594112669179026" style="fill: none;" fill="none"></path></g><g><path stroke="rgb(0, 153, 136)" stroke-width="2px" d="M20.080357142857142,158.12226942066962L22.088392857142857,150.5623270847763L24.09642857142857,143.5250484702211L26.104464285714286,137.31686055132218L28.1125,131.85665764808354L30.12053571428571,127.14833466421285L32.128571428571426,122.98654616716226L34.136607142857144,119.59761223958287L36.144642857142856,116.35824242594467L38.15267857142857,113.78524973256522L40.160714285714285,111.29544680547994L42.168749999999996,109.10927476097943L44.176785714285714,107.34363684449528L46.184821428571425,105.7908329229122L48.19285714285714,103.98377665523897L50.20089285714286,102.38146698270552L52.20892857142857,101.06794337986517L54.21696428571429,99.6367167957911L56.225,98.46490092279181L58.23303571428572,97.4437898965863L60.24107142857142,96.5196192875007L62.24910714285714,95.77015642978073L64.25714285714285,94.61411164561763L66.26517857142856,93.65090543689027L68.27321428571429,92.61332697723148L70.28125,91.66619113955409L72.28928571428571,90.81797772045914L74.29732142857144,89.94796981485601L76.30535714285713,89.12425090027763L78.31339285714286,88.50148798626657L80.32142857142857,87.65292669779296L82.3294642857143,86.79796024395633L84.33749999999999,85.86181413831085L86.34553571428572,85.20318315898714L88.35357142857143,84.51554822664879L90.36160714285715,83.83392547703916L92.36964285714285,83.01921420912834L94.37767857142856,82.30001392146582L96.38571428571429,81.51721696695203L98.39375,80.80191804915268L100.40178571428572,80.1962838981176L102.40982142857142,79.50449907277415L104.41785714285714,78.85306548201893L106.42589285714286,71.1224250874561L108.43392857142858,63.50009207032525L110.44196428571428,57.689869343565476L112.45,53.45053229734465L114.45803571428571,50.184772939822864L116.46607142857144,47.73842893502916L118.47410714285715,45.84963444928488L120.48214285714285,44.368349858782125L122.49017857142857,43.08146671572638L124.49821428571428,41.9400860555111L126.50625000000001,41.01671678989021L128.5142857142857,40.08800064471788L130.52232142857144,38.594029623873126L132.53035714285713,37.61377920471185L134.53839285714287,36.87259195534676L136.54642857142858,36.42951242453671L138.5544642857143,36.07924829824552L140.5625,35.76833548809435L142.5705357142857,35.61119801752821L144.57857142857142,35.4477495901354L146.58660714285716,35.306110565402776L148.59464285714287,35.171568015859805L150.60267857142856,35.03038923627602L152.61071428571427,34.883050544869036L154.61875,34.81262132156559L156.62678571428572,34.7480334484452L158.63482142857143,34.65972158986955L160.64285714285714,34.69332905632811L162.65089285714288,34.69497743583335L164.6589285714286,34.65947637162574L166.6669642857143,34.62401598032878L168.67499999999998,34.616354143333155L170.6830357142857,34.67003211719495L172.69107142857143,34.610742617320625L174.69910714285714,34.63725498606291L176.70714285714286,34.683114731662016L178.71517857142857,34.61859218600085" style="fill: none;" fill="none"></path></g><g><path stroke="rgb(238, 51, 119)" stroke-width="2px" d="M20.080357142857142,162.0135461751085L22.088392857142857,159.30238259569384L24.09642857142857,154.79905934250525L26.104464285714286,149.5511145874251L28.1125,144.03858360380246L30.12053571428571,138.44012394089273L32.128571428571426,132.95524014636933L34.136607142857144,127.71253914494864L36.144642857142856,122.84903358925993L38.15267857142857,118.32034818055399L40.160714285714285,114.22635270939563L42.168749999999996,110.40842421488492L44.176785714285714,106.94344830953573L46.184821428571425,103.66063745855382L48.19285714285714,100.53529114763637L50.20089285714286,97.86838670403067L52.20892857142857,95.29424179470844L54.21696428571429,93.0370590006205L56.225,90.84032642891492L58.23303571428572,88.8099895427366L60.24107142857142,86.88545162041572L62.24910714285714,85.23515152463008L64.25714285714285,83.71779173080142L66.26517857142856,82.18543242616235L68.27321428571429,80.93652550874832L70.28125,79.65237125839089L72.28928571428571,78.50391625369762L74.29732142857144,77.59100810397221L76.30535714285713,76.57489435656444L78.31339285714286,75.60469143499921L80.32142857142857,74.78947273033636L82.3294642857143,73.99808179572011L84.33749999999999,73.31465872016065L86.34553571428572,72.61214528937757L88.35357142857143,71.95645271786854L90.36160714285715,71.35499398988206L92.36964285714285,70.80350420228265L94.37767857142856,70.33427844128748L96.38571428571429,69.95471217999929L98.39375,69.5657648393177L100.40178571428572,69.14613822909142L102.40982142857142,68.72879833125941L104.41785714285714,68.48765568903707L106.42589285714286,68.07392830870462L108.43392857142858,67.67156741884749L110.44196428571428,67.45574686171774L112.45,67.11330963470394L114.45803571428571,66.91002547230268L116.46607142857144,66.63937432459197L118.47410714285715,59.94159876083755L120.48214285714285,53.8027457915891L122.49017857142857,49.03456062719415L124.49821428571428,45.35345834694158L126.50625000000001,42.41501461754274L128.5142857142857,40.120402557468054L130.52232142857144,38.21154739015782L132.53035714285713,36.691536457811225L134.53839285714287,35.41572942775778L136.54642857142858,34.27391455895605L138.5544642857143,33.38187315750565L140.5625,32.61246379474022L142.5705357142857,31.663384431770112L144.57857142857142,30.94471405488798L146.58660714285716,30.464494802884474L148.59464285714287,30.11700071180414L150.60267857142856,29.814829799165693L152.61071428571427,29.580157124271523L154.61875,29.403954137404014L156.62678571428572,29.275356651155334L158.63482142857143,29.169333298871464L160.64285714285714,29.046902102612705L162.65089285714288,28.94838951693049L164.6589285714286,28.84625735221411L166.6669642857143,28.7735418294005L168.67499999999998,28.75442102864946L170.6830357142857,28.71517115148319L172.69107142857143,28.690533761364406L174.69910714285714,28.644708292959677L176.70714285714286,28.61448948312821L178.71517857142857,28.612150768810636" style="fill: none;" fill="none"></path></g><g><path stroke="rgb(255, 112, 67)" stroke-width="2px" d="M20.080357142857142,162.57994617665042L22.088392857142857,161.71962404863623L24.09642857142857,159.65847352950058L26.104464285714286,156.68430928450934L28.1125,153.02779006664588L30.12053571428571,149.0098916422749L32.128571428571426,144.56878824005514L34.136607142857144,139.91228629919053L36.144642857142856,135.32206423572705L38.15267857142857,130.85639975728833L40.160714285714285,126.51300752323289L42.168749999999996,122.35608238649584L44.176785714285714,118.57039154889685L46.184821428571425,114.91064984862368L48.19285714285714,111.44109721835079L50.20089285714286,108.30846104591319L52.20892857142857,105.41901200303381L54.21696428571429,102.6807386198449L56.225,100.23677403723224L58.23303571428572,97.91922688695503L60.24107142857142,95.7782564820423L62.24910714285714,93.85486121119072L64.25714285714285,91.9165876129015L66.26517857142856,90.26510972659844L68.27321428571429,88.7960541946162L70.28125,87.25563882693827L72.28928571428571,85.87119235960658L74.29732142857144,84.63097327566183L76.30535714285713,83.45659602112866L78.31339285714286,82.27270668044373L80.32142857142857,81.40334705816925L82.3294642857143,80.56422111361633L84.33749999999999,79.79551802073202L86.34553571428572,79.03748023443792L88.35357142857143,78.2428170118603L90.36160714285715,77.59228781322749L92.36964285714285,76.90624506093972L94.37767857142856,76.26587870095636L96.38571428571429,75.55271244205085L98.39375,75.09050076956657L100.40178571428572,67.40422757651753L102.40982142857142,60.35530792154903L104.41785714285714,54.690351319609704L106.42589285714286,50.12916744501074L108.43392857142858,46.437202932707095L110.44196428571428,43.43777778081946L112.45,41.0341420385154L114.45803571428571,39.01466987480552L116.46607142857144,37.303029143488175L118.47410714285715,35.91060816909436L120.48214285714285,34.76417988613946L122.49017857142857,33.859567031025165L124.49821428571428,32.54126556844986L126.50625000000001,31.57655341886877L128.5142857142857,30.861027057823435L130.52232142857144,30.31843321901718L132.53035714285713,29.90791515293847L134.53839285714287,29.59788542581549L136.54642857142858,29.3813666640375L138.5544642857143,29.177933114320012L140.5625,29.01121555237353L142.5705357142857,28.854546004116088L144.57857142857142,28.724599538240682L146.58660714285716,28.59434899522344L148.59464285714287,28.51891895204102L150.60267857142856,28.45133383315394L152.61071428571427,28.416226573238305L154.61875,28.397885746077577L156.62678571428572,28.389604778569776L158.63482142857143,28.34596793235559L160.64285714285714,28.32523288220432L162.65089285714288,28.326951604886005L164.6589285714286,28.32471720087716L166.6669642857143,28.304857211941254L168.67499999999998,28.28967558096184L170.6830357142857,28.28383223999205L172.69107142857143,28.26126478005034L174.69910714285714,28.256982354270264L176.70714285714286,28.25985995637953L178.71517857142857,28.25505199624874" style="fill: none;" fill="none"></path></g><g><path stroke="rgb(187, 187, 187)" stroke-width="2px" d="M20.080357142857142,159.36126934479063L22.088392857142857,154.04701445061858L24.09642857142857,150.27161084537158L26.104464285714286,147.65116248560366L28.1125,145.58348707727654L30.12053571428571,144.10291596204635L32.128571428571426,143.00063717711083L34.136607142857144,142.01869576779046L36.144642857142856,141.30100291866833L38.15267857142857,140.6975160443685L40.160714285714285,140.31808961588223L42.168749999999996,139.97888136581554L44.176785714285714,139.65313083852152L46.184821428571425,139.4988314990621L48.19285714285714,139.23905391661455L50.20089285714286,139.22381608735066L52.20892857142857,139.02130451618035L54.21696428571429,138.9357679017482L56.225,138.80547733057296L58.23303571428572,138.77033425567123L60.24107142857142,138.7301873595564L62.24910714285714,138.73442047538995L64.25714285714285,138.72661227888486L66.26517857142856,138.6113699485723L68.27321428571429,138.69036061630067L70.28125,138.62011786814634L72.28928571428571,138.65095093137353L74.29732142857144,138.51042286409972L76.30535714285713,130.78188103497453L78.31339285714286,123.65205316589059L80.32142857142857,118.29364027463177L82.3294642857143,114.21210987017625L84.33749999999999,111.09440480089809L86.34553571428572,108.50870133447522L88.35357142857143,106.19046148070154L90.36160714285715,104.30881820595275L92.36964285714285,102.42227249087009L94.37767857142856,100.76315721557596L96.38571428571429,99.43166011042264L98.39375,98.02388274071993L100.40178571428572,96.82085966058625L102.40982142857142,95.78099023825997L104.41785714285714,94.90436796284637L106.42589285714286,94.05434661042635L108.43392857142858,93.212663826541L110.44196428571428,92.51159254507805L112.45,91.82572221998967L114.45803571428571,91.276410243673L116.46607142857144,90.72080912235859L118.47410714285715,90.3340750761025L120.48214285714285,89.89508216818041L122.49017857142857,89.3887892063375L124.49821428571428,89.08011172664526L126.50625000000001,88.75439192876446L128.5142857142857,88.23436995392912L130.52232142857144,87.95612333215023L132.53035714285713,87.647032476369L134.53839285714287,87.37334731632674L136.54642857142858,87.10021454571971L138.5544642857143,86.85083101173124L140.5625,77.50101352001056L142.5705357142857,68.3549341474324L144.57857142857142,61.06515446757594L146.58660714285716,55.21429005444925L148.59464285714287,50.63523595028265L150.60267857142856,46.98101772455564L152.61071428571427,43.96502996987863L154.61875,41.606462858084484L156.62678571428572,39.726767785986L158.63482142857143,38.25638665507924L160.64285714285714,37.1181884704915L162.65089285714288,36.21143379800844L164.6589285714286,34.22523841624684L166.6669642857143,32.569508490997066L168.67499999999998,31.41595366159254L170.6830357142857,30.61108485059978L172.69107142857143,30.000725789052524L174.69910714285714,29.581136978652353L176.70714285714286,29.30269700567638L178.71517857142857,29.05611831667298" style="fill: none;" fill="none"></path></g><g><path stroke="rgb(238, 51, 119)" stroke-width="2px" d="M20.080357142857142,160.11283846543387L22.088392857142857,154.80454030776252L24.09642857142857,148.49683183618768L26.104464285714286,142.11995739499065L28.1125,136.35462596857883L30.12053571428571,131.34090843083098L32.128571428571426,126.91169456166128L34.136607142857144,122.94564471693502L36.144642857142856,119.52251664106475L38.15267857142857,116.42951540854315L40.160714285714285,113.59419875519956L42.168749999999996,111.21243872817975L44.176785714285714,109.03578990410593L46.184821428571425,107.25089412266567L48.19285714285714,105.4436401449795L50.20089285714286,103.97250095775411L52.20892857142857,102.45822297453205L54.21696428571429,101.10210000386431L56.225,99.98133257156236L58.23303571428572,98.91242175621468L60.24107142857142,97.98898325286451L62.24910714285714,96.74707560415591L64.25714285714285,95.9338624577068L66.26517857142856,95.2847335781334L68.27321428571429,94.4900615556297L70.28125,93.60316512078846L72.28928571428571,92.8264946957924L74.29732142857144,91.91499932630322L76.30535714285713,91.00157508220173L78.31339285714286,89.9404909156529L80.32142857142857,89.11594951612126L82.3294642857143,88.38976373487183L84.33749999999999,87.73402752348134L86.34553571428572,87.03941351490874L88.35357142857143,86.38682777774416L90.36160714285715,85.7665356297873L92.36964285714285,85.19285492126868L94.37767857142856,84.62753101850615L96.38571428571429,83.93705989456669L98.39375,83.31636684957138L100.40178571428572,82.61391711531698L102.40982142857142,82.08842405691996L104.41785714285714,81.63642915070685L106.42589285714286,81.05534721866418L108.43392857142858,80.46488830620662L110.44196428571428,79.92217657896015L112.45,79.49797338205258L114.45803571428571,79.09586152362371L116.46607142857144,78.60842830770007L118.47410714285715,78.1258959333795L120.48214285714285,77.49599384109975L122.49017857142857,77.07502797242668L124.49821428571428,76.47661547979686L126.50625000000001,69.81691298602061L128.5142857142857,63.48850432099097L130.52232142857144,58.73456886905504L132.53035714285713,55.17584303960122L134.53839285714287,52.57496202692762L136.54642857142858,50.56240230210447L138.5544642857143,48.97309200502431L140.5625,47.71288647604945L142.5705357142857,46.61147554222825L144.57857142857142,45.72352433642658L146.58660714285716,45.02464757228438L148.59464285714287,44.28018606270234L150.60267857142856,42.840674167111956L152.61071428571427,41.864231116407694L154.61875,41.09156172499459L156.62678571428572,40.55607386246564L158.63482142857143,40.21789786338721L160.64285714285714,39.952360840283376L162.65089285714288,39.695007820833354L164.6589285714286,39.582529912490656L166.6669642857143,39.40394331910463L168.67499999999998,39.2504978659874L170.6830357142857,39.26681015986952L172.69107142857143,39.0587509408748L174.69910714285714,38.94589698845161L176.70714285714286,38.82698941732471L178.71517857142857,38.79866948795561" style="fill: none;" fill="none"></path></g></g></g></g><g opacity="0.2"><g><g><g><path stroke="rgb(51, 187, 238)" stroke-width="2px" d="M20.080357142857142,160.7391461082376L20.080357142857142,161.21840774554474L22.088392857142857,153.4467461200861L24.09642857142857,144.37753930229408L26.104464285714286,136.97621591503804L28.1125,130.47350689310295L30.12053571428571,124.51269367107979L32.128571428571426,119.42598427259006L34.136607142857144,114.75454809115485L36.144642857142856,110.60185243991705L38.15267857142857,106.58803971455647L40.160714285714285,103.02761419002826L42.168749999999996,99.70410158542487L44.176785714285714,96.56303132497348L46.184821428571425,94.20620507460374L48.19285714285714,91.77994344784663L50.20089285714286,89.11405024161706L52.20892857142857,86.97643722020663L54.21696428571429,84.87422358072722L56.225,83.12055832606097L58.23303571428572,81.37371000876793L60.24107142857142,79.97676534836108L62.24910714285714,78.42053158466632L64.25714285714285,76.93100642240965L66.26517857142856,75.96431601047516L68.27321428571429,75.17190384864807L70.28125,73.93561979440543L72.28928571428571,73.03700948678531L74.29732142857144,72.24595259703123L76.30535714285713,71.34869756148413L78.31339285714286,70.994703742174L80.32142857142857,48.6790859424151L82.3294642857143,42.338400914118836L84.33749999999999,39.21230762738446L86.34553571428572,37.26394577209766L88.35357142857143,35.669585851522584L90.36160714285715,34.39382036832663L92.36964285714285,33.61638112251575L94.37767857142856,32.85936834261966L96.38571428571429,32.18949063007648L98.39375,31.60947475983545L100.40178571428572,31.123410894320557L102.40982142857142,30.46442405077127L104.41785714285714,30.18666631441849L106.42589285714286,30.083194943574767L108.43392857142858,29.884408180530244L110.44196428571428,29.902107871495758L112.45,29.782292081759522L114.45803571428571,29.798628385250368L116.46607142857144,29.67609393596649L118.47410714285715,29.640694554035463L120.48214285714285,29.57397783719574L122.49017857142857,29.53585168031546L124.49821428571428,29.595759575183564L126.50625000000001,29.493643476412842L128.5142857142857,29.409227068607606L130.52232142857144,29.54402388976169L132.53035714285713,29.403781634110658L134.53839285714287,29.46368952897879L136.54642857142858,29.418762665528504L138.5544642857143,29.369745639654298L140.5625,29.455525434934174L142.5705357142857,29.28941939427301L144.57857142857142,29.387445330619812L146.58660714285716,29.386081943145143L148.59464285714287,29.411953843556915L150.60267857142856,29.380636508648195L152.61071428571427,29.387445330619812L154.61875,29.413317231031556L156.62678571428572,29.43238030947171L158.63482142857143,29.28941939427301L160.64285714285714,29.43101692199707L162.65089285714288,29.268992928358216L164.6589285714286,29.414680618506196L166.6669642857143,29.381999896122863L168.67499999999998,29.368382252179657L170.6830357142857,29.32481877620404L172.69107142857143,29.454162047459533L174.69910714285714,29.43509896901938L176.70714285714286,29.313919791808473L178.71517857142857,29.36702698010663L180.7232142857143,29.4296535345224L182.73125000000002,29.46641630392807L184.7392857142857,29.447353225487916L186.7473214285714,29.416035890579224L188.75535714285712,29.381999896122863L190.76339285714286,29.455525434934174L192.77142857142857,29.43646235649402L194.77946428571428,29.36702698010663L196.7875,29.424208100025453L198.79553571428573,29.307119085238526L200.80357142857144,29.345237126717194L202.81160714285713,29.380636508648195L204.81964285714284,29.32753743575168L206.82767857142858,29.456880707007173L208.8357142857143,29.39833619961371L210.84375,29.46368952897879L212.8517857142857,29.331619482773988L214.85982142857142,29.418762665528504L216.86785714285716,29.39833619961371L218.87589285714287,29.345237126717194L220.88392857142856,29.349319173739502L222.89196428571427,29.43646235649402L224.9,29.39698092754071L226.90803571428572,29.381999896122863L228.91607142857143,29.484115994893585L230.92410714285714,29.39289076511676L232.93214285714288,29.350682561214143L234.9401785714286,29.478670560396637L236.9482142857143,29.335709645197937L238.95624999999998,29.42829014704776L240.9642857142857,29.343873739242554L242.97232142857143,29.409227068607606L244.98035714285714,29.39833619961371L246.98839285714286,29.50726112035605L248.99642857142857,29.450080000437225L251.0044642857143,29.403781634110658L253.01250000000002,29.384726671072144L255.0205357142857,29.421481325076172L257.0285714285714,29.32481877620404L259.0366071428571,29.313919791808473" style="fill: none;" fill="none"></path></g><g><path stroke="rgb(0, 119, 187)" stroke-width="2px" d="M20.080357142857142,162.2177769778153L22.088392857142857,159.24281542089122L24.09642857142857,153.6959072099282L26.104464285714286,147.5798767873874L28.1125,141.93357595572104L30.12053571428571,136.65489267385922L32.128571428571426,131.69480788707733L34.136607142857144,127.46586803748058L36.144642857142856,123.13617547658774L38.15267857142857,119.4763606282381L40.160714285714285,115.64907635175265L42.168749999999996,112.554300399927L44.176785714285714,109.10279979614111L46.184821428571425,106.04478661372112L48.19285714285714,103.41157007217409L50.20089285714286,100.8573245039353L52.20892857142857,98.54134712769435L54.21696428571429,96.29208646829312L56.225,94.47034516701332L58.23303571428572,92.12713656058679L60.24107142857142,91.02429405542522L62.24910714285714,88.77502933832317L64.25714285714285,87.7566032409668L66.26517857142856,86.25482382224158L68.27321428571429,85.23367094993591L70.28125,84.04368526201984L72.28928571428571,83.73052814373604L74.29732142857144,81.96188997305357L76.30535714285713,81.34375606133388L78.31339285714286,80.27358616315402L80.32142857142857,79.27013298181387L82.3294642857143,56.64000279169818L84.33749999999999,48.45442727895883L86.34553571428572,43.63866679485028L88.35357142857143,40.41862961879144L90.36160714285715,37.48995970762692L92.36964285714285,35.130414797709534L94.37767857142856,33.67493374531085L96.38571428571429,32.090101306255036L98.39375,31.21735478364502L100.40178571428572,30.350053695531983L102.40982142857142,29.71830213986908L104.41785714285714,29.420126053003173L106.42589285714286,28.525589677003722L108.43392857142858,28.32272086693689L110.44196428571428,28.197459642703706L112.45,28.059944162001955L114.45803571428571,27.990508785614594L116.46607142857144,27.923792068774873L118.47410714285715,27.945573806762695L120.48214285714285,27.838012273494996L122.49017857142857,27.833930226472717L124.49821428571428,27.795804069592407L126.50625000000001,27.779467766101533L128.5142857142857,27.733177515176635L130.52232142857144,27.68007844228009L132.53035714285713,27.67871505480545L134.53839285714287,27.6841604893024L136.54642857142858,27.7290954681543L138.5544642857143,27.739986337148224L140.5625,27.71955987123343L142.5705357142857,27.707305614764863L144.57857142857142,27.67871505480545L146.58660714285716,27.692332698748658L148.59464285714287,27.699141520720246L150.60267857142856,27.671906232833862L152.61071428571427,27.667824185811554L154.61875,27.659651976365296L156.62678571428572,27.671906232833862L158.63482142857143,27.699141520720246L160.64285714285714,27.669187573286194L162.65089285714288,27.661015363839965L164.6589285714286,27.688242536324708L166.6669642857143,27.655569929342988L168.67499999999998,27.654206541868348L170.6830357142857,27.689605923799377L172.69107142857143,27.67735166733081L174.69910714285714,27.652843154393707L176.70714285714286,27.665097410862245L178.71517857142857,27.673269620308503" style="fill: none;" fill="none"></path></g><g><path stroke="rgb(204, 51, 17)" stroke-width="2px" d="M20.080357142857142,159.8949924280437L22.088392857142857,150.4309380982931L24.09642857142857,145.1781236735674L26.104464285714286,143.01872282761795L28.1125,142.1827390744136L30.12053571428571,141.60544592142105L32.128571428571426,141.21876935087718L34.136607142857144,140.64283755650888L36.144642857142856,140.5039607171829L38.15267857142857,140.22076160403398L40.160714285714285,140.21259142343814L42.168749999999996,140.16357642641435L44.176785714285714,139.8272762115185L46.184821428571425,139.96479169222025L48.19285714285714,139.74150047393945L50.20089285714286,139.49097599662267L52.20892857142857,139.29082990380434L54.21696428571429,139.33848557105432L56.225,139.2200311399423L58.23303571428572,139.01035350790391L60.24107142857142,139.19416126838098L62.24910714285714,138.84016136251964L64.25714285714285,138.93410728069452L66.26517857142856,138.82654574742685L68.27321428571429,138.54334663427792L70.28125,138.69039162534935L72.28928571428571,138.73804526374892L74.29732142857144,138.93546863931877L76.30535714285713,138.6604376779153L78.31339285714286,138.74077000984778L80.32142857142857,119.8426168194184L82.3294642857143,113.68710091022345L84.33749999999999,111.3112156391144L86.34553571428572,109.60384469307387L88.35357142857143,107.63097838255075L90.36160714285715,105.67172160056921L92.36964285714285,104.0896159364627L94.37767857142856,102.33186863477414L96.38571428571429,101.27531638053748L98.39375,99.94236977742268L100.40178571428572,98.65571342523282L102.40982142857142,97.16891503792543L104.41785714285714,96.51810040382239L106.42589285714286,95.50920178798529L108.43392857142858,94.51936219288753L110.44196428571428,93.69018726165478L112.45,93.13739856389853L114.45803571428571,92.41850382548112L116.46607142857144,91.96647595442259L118.47410714285715,91.28434398541084L120.48214285714285,90.50145930510301L122.49017857142857,90.23051850612347L124.49821428571428,89.9595695917423L126.50625000000001,89.47214233875276L128.5142857142857,89.15625844551967L130.52232142857144,64.63631902291225L132.53035714285713,55.52353452719176L134.53839285714287,50.368753139789305L136.54642857142858,46.26916061914886L138.5544642857143,42.945643956844634L140.5625,39.913502674836366L142.5705357142857,37.60161140331854L144.57857142857142,35.61512339115143L146.58660714285716,33.658589326418365L148.59464285714287,32.36104210523459L150.60267857142856,31.156083501302277L152.61071428571427,30.420852459394013L154.61875,28.804710800831117L156.62678571428572,28.39351963079892L158.63482142857143,28.193377595681397L160.64285714285714,28.07083503099588L162.65089285714288,27.982336576168336L164.6589285714286,27.93604632524344L166.6669642857143,27.798530844541688L168.67499999999998,27.795804069592407L170.6830357142857,27.699141520720246L172.69107142857143,27.637870238377502L174.69910714285714,27.57115352153778L176.70714285714286,27.54392634905301L178.71517857142857,27.53848091455606" style="fill: none;" fill="none"></path></g><g><path stroke="rgb(0, 153, 136)" stroke-width="2px" d="M20.080357142857142,158.12226942066962L22.088392857142857,146.0263616832403L24.09642857142857,136.7692610002481L26.104464285714286,130.01603155869705L28.1125,124.72781673761514L30.12053571428571,120.63502898124548L32.128571428571426,117.03512202776395L34.136607142857144,114.6565140394064L36.144642857142856,111.5808011660209L38.15267857142857,109.96465544975722L40.160714285714285,107.58332474415118L42.168749999999996,105.84191374595349L44.176785714285714,104.7009450839116L46.184821428571425,103.46466914507059L48.19285714285714,101.27531638053748L50.20089285714286,99.97913254682834L52.20892857142857,99.0982138147721L54.21696428571429,97.49024030795465L56.225,96.70735562764682L58.23303571428572,95.91221669087044L60.24107142857142,95.13341405758491L62.24910714285714,94.64598680459537L64.25714285714285,92.88006729346056L66.26517857142856,92.20610753389506L68.27321428571429,91.05696666240694L70.28125,90.2454914221397L72.28928571428571,89.54565976216243L74.29732142857144,88.64295929211838L76.30535714285713,87.88867328717159L78.31339285714286,87.56734395944156L80.32142857142857,86.38008504647476L82.3294642857143,85.515510733311L84.33749999999999,84.45759509159969L86.34553571428572,84.21523673717792L88.35357142857143,83.4840958576936L90.36160714285715,82.81149137020111L92.36964285714285,81.79714731986707L94.37767857142856,81.22121349664836L96.38571428571429,80.3430215395414L98.39375,79.72896967484401L100.40178571428572,79.28783267277939L102.40982142857142,78.46682183559125L104.41785714285714,77.87591509635632L106.42589285714286,59.52646449896007L108.43392857142858,52.066592546609755L110.44196428571428,48.97453525433173L112.45,47.09152672841L114.45803571428571,45.28613390372351L116.46607142857144,44.06891292792102L118.47410714285715,43.016442720706664L120.48214285714285,42.14642297304596L122.49017857142857,41.15114200115204L124.49821428571428,40.228015065193176L126.50625000000001,39.6316628914613L128.5142857142857,38.694926426960876L130.52232142857144,36.35307309260736L132.53035714285713,36.14340357597058L134.53839285714287,35.76081108129941L136.54642857142858,35.76489312832172L138.5544642857143,35.553852108808655L140.5625,35.301966272867645L142.5705357142857,35.375491811678955L144.57857142857142,35.202576949046204L146.58660714285716,35.093652028303865L148.59464285714287,34.96975419154535L150.60267857142856,34.81862106690039L152.61071428571427,34.662042507758485L154.61875,34.70697748661041L156.62678571428572,34.65115163876459L158.63482142857143,34.527253802006044L160.64285714285714,34.74374025601605L162.65089285714288,34.697450005091156L164.6589285714286,34.60622477531433L166.6669642857143,34.5708253933833L168.67499999999998,34.60486138783966L170.6830357142857,34.75054907798767L172.69107142857143,34.521808367509095L174.69910714285714,34.67702353917633L176.70714285714286,34.75190435006067L178.71517857142857,34.521808367509095" style="fill: none;" fill="none"></path></g><g><path stroke="rgb(238, 51, 119)" stroke-width="2px" d="M20.080357142857142,162.0135461751085L22.088392857142857,157.67568444804505L24.09642857142857,150.47586901944416L26.104464285714286,143.37953155545088L28.1125,136.84142315158476L30.12053571428571,130.6954387816099L32.128571428571426,125.11176856206015L34.136607142857144,120.06863075494766L36.144642857142856,115.67630758193823L38.15267857142857,111.59577813973794L40.160714285714285,108.12249174026343L42.168749999999996,104.70230847138626L44.176785714285714,101.75729819903007L46.184821428571425,98.74285255028651L48.19285714285714,95.85094540852768L50.20089285714286,93.86991094625914L52.20892857142857,91.43411372258113L54.21696428571429,89.65185790795547L56.225,87.54556222145374L58.23303571428572,85.76466979430273L60.24107142857142,83.99875028316791L62.24910714285714,82.75975568477924L64.25714285714285,81.44178199768066L66.26517857142856,79.88691162146056L68.27321428571429,79.06317400932312L70.28125,77.72614535918602L72.28928571428571,76.78123668523936L74.29732142857144,76.22164728091315L76.30535714285713,75.0507246714372L78.31339285714286,74.14938758886778L80.32142857142857,73.56664494367747L82.3294642857143,72.81099555125603L84.33749999999999,72.28952418840849L86.34553571428572,71.55837519352252L88.35357142857143,70.97291388878456L90.36160714285715,70.45280591341167L92.36964285714285,69.97626952941602L94.37767857142856,69.63043980415051L96.38571428571429,69.38536279018109L98.39375,68.98234382959514L100.40178571428572,68.51669831459338L102.40982142857142,68.10278848501353L104.41785714285714,68.12594172587761L106.42589285714286,67.45333723838513L108.43392857142858,67.06802608416632L110.44196428571428,67.13201602605673L112.45,66.59965379421527L114.45803571428571,66.60509922871223L116.46607142857144,66.23339760303497L118.47410714285715,49.89493541534131L120.48214285714285,44.59446633779086L122.49017857142857,41.88228288063635L124.49821428571428,39.8318049265788L126.50625000000001,38.00734902345215L128.5142857142857,36.67848446735968L130.52232142857144,35.348264639194184L132.53035714285713,34.411520059292116L134.53839285714287,33.5020188826781L136.54642857142858,32.561192255753724L138.5544642857143,32.04381105533014L140.5625,31.458349750592163L142.5705357142857,30.239765387315003L144.57857142857142,29.866708489564758L146.58660714285716,29.744165924879212L148.59464285714287,29.595759575183564L150.60267857142856,29.361573430208068L152.61071428571427,29.22814811193024L154.61875,29.139649657102723L156.62678571428572,29.082460421782258L158.63482142857143,29.01029827044559L160.64285714285714,28.86325530822461L162.65089285714288,28.800620638407196L164.6589285714286,28.693059105139497L166.6669642857143,28.664468545180085L168.67499999999998,28.725739827522858L170.6830357142857,28.656296335733856L172.69107142857143,28.65357767618619L174.69910714285714,28.57597009035257L176.70714285714286,28.56916126838098L178.71517857142857,28.60864269733429" style="fill: none;" fill="none"></path></g><g><path stroke="rgb(255, 112, 67)" stroke-width="2px" d="M20.080357142857142,162.57994617665042L22.088392857142857,161.2034307718277L24.09642857142857,157.67976903113035L26.104464285714286,153.18669213239963L28.1125,148.25383857580331L30.12053571428571,143.45169167793713L32.128571428571426,138.2179393172264L34.136607142857144,133.12306176699124L36.144642857142856,128.5523782968521L38.15267857142857,124.22540845320776L40.160714285714285,120.03731342003897L42.168749999999996,116.14331648441461L44.176785714285714,112.90421622991563L46.184821428571425,109.42820711319263L48.19285714285714,106.24084660181633L50.20089285714286,103.6117161649924L52.20892857142857,101.08606115671304L54.21696428571429,98.57402379237689L56.225,96.57119947671892L58.23303571428572,94.44311799452855L60.24107142857142,92.56691829057841L62.24910714285714,90.96983159505405L64.25714285714285,89.00921548329868L66.26517857142856,87.78791246047386L68.27321428571429,86.59248133806082L70.28125,84.94502234458923L72.28928571428571,83.79452620102809L74.29732142857144,82.77064655377315L76.30535714285713,81.69503122109634L78.31339285714286,80.49687332373401L80.32142857142857,80.09930791304663L82.3294642857143,79.30553236374489L84.33749999999999,78.6424634731733L86.34553571428572,77.90042360929343L88.35357142857143,77.05082221214587L90.36160714285715,76.61649403205284L92.36964285714285,75.87718094312228L94.37767857142856,75.30532916692587L96.38571428571429,74.48296305766472L98.39375,74.39718326238486L100.40178571428572,55.874817802355835L102.40982142857142,49.781928447576675L104.41785714285714,46.19291642078986L106.42589285714286,43.28739163508783L108.43392857142858,40.89925616521103L110.44196428571428,38.93864005345563L112.45,37.42868842528415L114.45803571428571,35.985461629354035L116.46607142857144,34.735568046569824L118.47410714285715,33.82197670753186L120.48214285714285,33.04453746172098L122.49017857142857,32.50264774836026L124.49821428571428,30.563813374592712L126.50625000000001,30.129485194499665L128.5142857142857,29.78773751625647L130.52232142857144,29.50454246080838L132.53035714285713,29.29213805382068L134.53839285714287,29.132840835131134L136.54642857142858,29.056588521370514L138.5544642857143,28.872782789743866L140.5625,28.76113920945386L142.5705357142857,28.619541681729828L144.57857142857142,28.529679839427644L146.58660714285716,28.39897318069751L148.59464285714287,28.405773887267458L150.60267857142856,28.349956154823303L152.61071428571427,28.363565683364868L154.61875,28.370374505336457L156.62678571428572,28.377183327308046L158.63482142857143,28.2805126630343L160.64285714285714,28.29413030697748L162.65089285714288,28.329529688908508L164.6589285714286,28.32136559486389L166.6669642857143,28.275067228537324L168.67499999999998,28.266903134492736L170.6830357142857,28.275067228537324L172.69107142857143,28.227413590137758L174.69910714285714,28.25055871560022L176.70714285714286,28.264176359543427L178.71517857142857,28.247840056052553" style="fill: none;" fill="none"></path></g><g><path stroke="rgb(187, 187, 187)" stroke-width="2px" d="M20.080357142857142,159.36126934479063L22.088392857142857,150.85846151411533L24.09642857142857,146.6472233843345L26.104464285714286,144.56951521451657L28.1125,142.88393006416467L30.12053571428571,142.05475310408153L32.128571428571426,141.42436087819246L34.136607142857144,140.5870157663639L36.144642857142856,140.24254537087222L38.15267857142857,139.80140836880759L40.160714285714285,139.75239134293338L42.168749999999996,139.47191494703293L44.176785714285714,139.16556867957115L46.184821428571425,139.26768477834187L48.19285714285714,138.8496929017397L50.20089285714286,139.20097009035257L52.20892857142857,138.71762285553493L54.21696428571429,138.80748469783708L56.225,138.61006132226726L58.23303571428572,138.71762285553493L60.24107142857142,138.66996921713536L62.24910714285714,138.74077000984778L64.25714285714285,138.71490013828645L66.26517857142856,138.43850781825873L68.27321428571429,138.80884605646133L70.28125,138.51475404546812L72.28928571428571,138.69720044732094L74.29732142857144,138.29963097893275L76.30535714285713,119.18907541036606L78.31339285714286,112.95731530281213L80.32142857142857,110.25602271465155L82.3294642857143,108.0898150755809L84.33749999999999,106.41784756917221L86.34553571428572,104.63014632004959L88.35357142857143,102.71310179967148L90.36160714285715,101.48635334234972L92.36964285714285,99.59245394743407L94.37767857142856,98.2744843180363L96.38571428571429,97.43441446010883L98.39375,95.91221669087044L100.40178571428572,95.01632504279797L102.40982142857142,94.22118610602159L104.41785714285714,93.5894345503587L106.42589285714286,92.77931458216447L108.43392857142858,91.95013965093173L110.44196428571428,91.45998562299289L112.45,90.7969167324213L114.45803571428571,90.4524422792288L116.46607142857144,89.88740744040562L118.47410714285715,89.7539740067262L120.48214285714285,89.2365928063026L122.49017857142857,88.62934976357681L124.49821428571428,88.61709550710826L126.50625000000001,88.26581223194415L128.5142857142857,87.45433699167693L130.52232142857144,87.53875339948215L132.53035714285713,87.18339619269737L134.53839285714287,86.96281957626343L136.54642857142858,86.69051538980925L138.5544642857143,86.47675571074852L140.5625,63.47628728243022L142.5705357142857,54.63581508856555L144.57857142857142,50.13048494779147L146.58660714285716,46.43799343475928L148.59464285714287,43.766654794032775L150.60267857142856,41.49969038596521L152.61071428571427,39.44104833786304L154.61875,38.06861219039331L156.62678571428572,36.90722517783826L158.63482142857143,36.050814958719116L160.64285714285714,35.410891193609956L162.65089285714288,34.85130178928375L164.6589285714286,31.245945343604433L166.6669642857143,30.085913603122407L168.67499999999998,29.68562141748575L170.6830357142857,29.403781634110658L172.69107142857143,29.085187196731567L174.69910714285714,28.951753763052125L176.70714285714286,28.885037046212403L178.71517857142857,28.686250283167908" style="fill: none;" fill="none"></path></g><g><path stroke="rgb(238, 51, 119)" stroke-width="2px" d="M20.080357142857142,160.11283846543387L22.088392857142857,151.61956141315974L24.09642857142857,142.4414317034758L26.104464285714286,134.62075305214296L28.1125,128.82740925825559L30.12053571428571,124.4051321378121L32.128571428571426,120.57784786132666L34.136607142857144,117.16310596924562L36.144642857142856,114.47406763755359L38.15267857142857,111.83676904898424L40.160714285714285,109.36693988855069L42.168749999999996,107.65276012053857L44.176785714285714,105.77792380406306L46.184821428571425,104.57704724715306L48.19285714285714,102.73488353765929L50.20089285714286,101.76682973825015L52.20892857142857,100.1874467913921L54.21696428571429,99.06825986733804L56.225,98.30035216074724L58.23303571428572,97.30915323587566L60.24107142857142,96.60387614140144L62.24910714285714,94.88425499659319L64.25714285714285,94.7140587935081L66.26517857142856,94.31104794832378L68.27321428571429,93.29805917006273L70.28125,92.27282425073477L72.28928571428571,91.66149104558505L74.29732142857144,90.54775767142957L76.30535714285713,89.6314395574423L78.31339285714286,88.34886525227473L80.32142857142857,87.8791376902507L82.3294642857143,87.30048520748431L84.33749999999999,86.75042328467735L86.34553571428572,85.99749255180359L88.35357142857143,85.40794920004332L90.36160714285715,84.83609742384692L92.36964285714285,84.33233386736651L94.37767857142856,83.77954516961024L96.38571428571429,82.90135321250328L98.39375,82.38532728415271L100.40178571428572,81.56024251534389L102.40982142857142,81.30018446995662L104.41785714285714,80.95843679171344L106.42589285714286,80.18372432085185L108.43392857142858,79.57919993767372L110.44196428571428,79.10810898817503L112.45,78.86166858673096L114.45803571428571,78.49269373600299L116.46607142857144,77.87727848383098L118.47410714285715,77.40209737190834L120.48214285714285,76.55114070268779L122.49017857142857,76.44357916942009L124.49821428571428,75.5789967408547L126.50625000000001,59.82735924537366L128.5142857142857,53.995891323456405L130.52232142857144,51.603665691155655L132.53035714285713,49.837754295422485L134.53839285714287,48.67364050791815L136.54642857142858,47.54356271487018L138.5544642857143,46.589126559404235L140.5625,45.82257818258728L142.5705357142857,44.95935914149652L144.57857142857142,44.39159752772406L146.58660714285716,43.97633242607117L148.59464285714287,43.163493798329284L150.60267857142856,40.68140632372635L152.61071428571427,40.39956654035126L154.61875,39.93255763787488L156.62678571428572,39.75284206867218L158.63482142857143,39.71063386476956L160.64285714285714,39.554055305627685L162.65089285714288,39.30897829165826L164.6589285714286,39.413813049976625L166.6669642857143,39.13606342902551L168.67499999999998,39.020329686311584L170.6830357142857,39.29127860069275L172.69107142857143,38.74666211238275L174.69910714285714,38.7766160598168L176.70714285714286,38.64862806063431L178.71517857142857,38.75618959390198" style="fill: none;" fill="none"></path></g></g></g></g></g></g><g transform="translate(48, 177)" clip-path="url(#clip_1)"><clipPath id="clip_1"><rect width="281" height="22"></rect></clipPath><g><g><line x1="0" y1="0" x2="0" y2="5" style="visibility: inherit;" fill="rgb(0, 0, 0)" stroke="rgb(204, 204, 204)" stroke-width="1px"></line><line x1="20.080357142857142" y1="0" x2="20.080357142857142" y2="5" style="visibility: inherit;" fill="rgb(0, 0, 0)" stroke="rgb(204, 204, 204)" stroke-width="1px"></line><line x1="40.160714285714285" y1="0" x2="40.160714285714285" y2="5" style="visibility: inherit;" fill="rgb(0, 0, 0)" stroke="rgb(204, 204, 204)" stroke-width="1px"></line><line x1="60.24107142857142" y1="0" x2="60.24107142857142" y2="5" style="visibility: inherit;" fill="rgb(0, 0, 0)" stroke="rgb(204, 204, 204)" stroke-width="1px"></line><line x1="80.32142857142857" y1="0" x2="80.32142857142857" y2="5" style="visibility: inherit;" fill="rgb(0, 0, 0)" stroke="rgb(204, 204, 204)" stroke-width="1px"></line><line x1="100.40178571428572" y1="0" x2="100.40178571428572" y2="5" style="visibility: inherit;" fill="rgb(0, 0, 0)" stroke="rgb(204, 204, 204)" stroke-width="1px"></line><line x1="120.48214285714285" y1="0" x2="120.48214285714285" y2="5" style="visibility: inherit;" fill="rgb(0, 0, 0)" stroke="rgb(204, 204, 204)" stroke-width="1px"></line><line x1="140.5625" y1="0" x2="140.5625" y2="5" style="visibility: inherit;" fill="rgb(0, 0, 0)" stroke="rgb(204, 204, 204)" stroke-width="1px"></line><line x1="160.64285714285714" y1="0" x2="160.64285714285714" y2="5" style="visibility: inherit;" fill="rgb(0, 0, 0)" stroke="rgb(204, 204, 204)" stroke-width="1px"></line><line x1="180.7232142857143" y1="0" x2="180.7232142857143" y2="5" style="visibility: inherit;" fill="rgb(0, 0, 0)" stroke="rgb(204, 204, 204)" stroke-width="1px"></line><line x1="200.80357142857144" y1="0" x2="200.80357142857144" y2="5" style="visibility: inherit;" fill="rgb(0, 0, 0)" stroke="rgb(204, 204, 204)" stroke-width="1px"></line><line x1="220.88392857142856" y1="0" x2="220.88392857142856" y2="5" style="visibility: inherit;" fill="rgb(0, 0, 0)" stroke="rgb(204, 204, 204)" stroke-width="1px"></line><line x1="240.9642857142857" y1="0" x2="240.9642857142857" y2="5" style="visibility: inherit;" fill="rgb(0, 0, 0)" stroke="rgb(204, 204, 204)" stroke-width="1px"></line><line x1="261.0446428571429" y1="0" x2="261.0446428571429" y2="5" style="visibility: inherit;" fill="rgb(0, 0, 0)" stroke="rgb(204, 204, 204)" stroke-width="1px"></line><line x1="281.125" y1="0" x2="281.125" y2="5" style="visibility: inherit;" fill="rgb(0, 0, 0)" stroke="rgb(204, 204, 204)" stroke-width="1px"></line></g><g transform="translate(0, 8)"><text x="0" y="0" dx="0em" dy="0.95em" style="text-anchor: middle; visibility: hidden; font-family: &quot;Helvetica Neue&quot;, sans-serif; font-size: 12px; font-weight: 200;" fill="rgb(50, 49, 63)" stroke="none" stroke-width="1px">-10</text><text x="20.080357142857142" y="0" dx="0em" dy="0.95em" style="text-anchor: middle; visibility: inherit; font-family: &quot;Helvetica Neue&quot;, sans-serif; font-size: 12px; font-weight: 200;" fill="rgb(50, 49, 63)" stroke="none" stroke-width="1px">0</text><text x="40.160714285714285" y="0" dx="0em" dy="0.95em" style="text-anchor: middle; visibility: hidden; font-family: &quot;Helvetica Neue&quot;, sans-serif; font-size: 12px; font-weight: 200;" fill="rgb(50, 49, 63)" stroke="none" stroke-width="1px">10</text><text x="60.24107142857142" y="0" dx="0em" dy="0.95em" style="text-anchor: middle; visibility: inherit; font-family: &quot;Helvetica Neue&quot;, sans-serif; font-size: 12px; font-weight: 200;" fill="rgb(50, 49, 63)" stroke="none" stroke-width="1px">20</text><text x="80.32142857142857" y="0" dx="0em" dy="0.95em" style="text-anchor: middle; visibility: hidden; font-family: &quot;Helvetica Neue&quot;, sans-serif; font-size: 12px; font-weight: 200;" fill="rgb(50, 49, 63)" stroke="none" stroke-width="1px">30</text><text x="100.40178571428572" y="0" dx="0em" dy="0.95em" style="text-anchor: middle; visibility: inherit; font-family: &quot;Helvetica Neue&quot;, sans-serif; font-size: 12px; font-weight: 200;" fill="rgb(50, 49, 63)" stroke="none" stroke-width="1px">40</text><text x="120.48214285714285" y="0" dx="0em" dy="0.95em" style="text-anchor: middle; visibility: hidden; font-family: &quot;Helvetica Neue&quot;, sans-serif; font-size: 12px; font-weight: 200;" fill="rgb(50, 49, 63)" stroke="none" stroke-width="1px">50</text><text x="140.5625" y="0" dx="0em" dy="0.95em" style="text-anchor: middle; visibility: inherit; font-family: &quot;Helvetica Neue&quot;, sans-serif; font-size: 12px; font-weight: 200;" fill="rgb(50, 49, 63)" stroke="none" stroke-width="1px">60</text><text x="160.64285714285714" y="0" dx="0em" dy="0.95em" style="text-anchor: middle; visibility: hidden; font-family: &quot;Helvetica Neue&quot;, sans-serif; font-size: 12px; font-weight: 200;" fill="rgb(50, 49, 63)" stroke="none" stroke-width="1px">70</text><text x="180.7232142857143" y="0" dx="0em" dy="0.95em" style="text-anchor: middle; visibility: inherit; font-family: &quot;Helvetica Neue&quot;, sans-serif; font-size: 12px; font-weight: 200;" fill="rgb(50, 49, 63)" stroke="none" stroke-width="1px">80</text><text x="200.80357142857144" y="0" dx="0em" dy="0.95em" style="text-anchor: middle; visibility: hidden; font-family: &quot;Helvetica Neue&quot;, sans-serif; font-size: 12px; font-weight: 200;" fill="rgb(50, 49, 63)" stroke="none" stroke-width="1px">90</text><text x="220.88392857142856" y="0" dx="0em" dy="0.95em" style="text-anchor: middle; visibility: inherit; font-family: &quot;Helvetica Neue&quot;, sans-serif; font-size: 12px; font-weight: 200;" fill="rgb(50, 49, 63)" stroke="none" stroke-width="1px">100</text><text x="240.9642857142857" y="0" dx="0em" dy="0.95em" style="text-anchor: middle; visibility: hidden; font-family: &quot;Helvetica Neue&quot;, sans-serif; font-size: 12px; font-weight: 200;" fill="rgb(50, 49, 63)" stroke="none" stroke-width="1px">110</text><text x="261.0446428571429" y="0" dx="0em" dy="0.95em" style="text-anchor: middle; visibility: inherit; font-family: &quot;Helvetica Neue&quot;, sans-serif; font-size: 12px; font-weight: 200;" fill="rgb(50, 49, 63)" stroke="none" stroke-width="1px">120</text><text x="281.125" y="0" dx="0em" dy="0.95em" style="text-anchor: middle; visibility: hidden; font-family: &quot;Helvetica Neue&quot;, sans-serif; font-size: 12px; font-weight: 200;" fill="rgb(50, 49, 63)" stroke="none" stroke-width="1px">130</text></g><line x1="0" y1="0" x2="281.125" y2="0" fill="rgb(0, 0, 0)" stroke="rgb(204, 204, 204)" stroke-width="1px"></line></g></g></g></g></svg>