<svg viewBox="0 0 330 200" xmlns="http://www.w3.org/2000/svg"><g><g><g><g><g><line x1="50.17599868774414" y1="175.5999984741211" x2="45.17599868774414" y2="175.5999984741211" style="visibility: inherit;" fill="rgb(0, 0, 0)" stroke="rgb(204, 204, 204)" stroke-width="1px"></line><line x1="50.17599868774414" y1="162.09230628380408" x2="45.17599868774414" y2="162.09230628380408" style="visibility: inherit;" fill="rgb(0, 0, 0)" stroke="rgb(204, 204, 204)" stroke-width="1px"></line><line x1="50.17599868774414" y1="148.5846140934871" x2="45.17599868774414" y2="148.5846140934871" style="visibility: inherit;" fill="rgb(0, 0, 0)" stroke="rgb(204, 204, 204)" stroke-width="1px"></line><line x1="50.17599868774414" y1="135.07692190317007" x2="45.17599868774414" y2="135.07692190317007" style="visibility: inherit;" fill="rgb(0, 0, 0)" stroke="rgb(204, 204, 204)" stroke-width="1px"></line><line x1="50.17599868774414" y1="121.56922971285306" x2="45.17599868774414" y2="121.56922971285306" style="visibility: inherit;" fill="rgb(0, 0, 0)" stroke="rgb(204, 204, 204)" stroke-width="1px"></line><line x1="50.17599868774414" y1="108.06153752253606" x2="45.17599868774414" y2="108.06153752253606" style="visibility: inherit;" fill="rgb(0, 0, 0)" stroke="rgb(204, 204, 204)" stroke-width="1px"></line><line x1="50.17599868774414" y1="94.55384533221905" x2="45.17599868774414" y2="94.55384533221905" style="visibility: inherit;" fill="rgb(0, 0, 0)" stroke="rgb(204, 204, 204)" stroke-width="1px"></line><line x1="50.17599868774414" y1="81.04615314190205" x2="45.17599868774414" y2="81.04615314190205" style="visibility: inherit;" fill="rgb(0, 0, 0)" stroke="rgb(204, 204, 204)" stroke-width="1px"></line><line x1="50.17599868774414" y1="67.53846095158505" x2="45.17599868774414" y2="67.53846095158505" style="visibility: inherit;" fill="rgb(0, 0, 0)" stroke="rgb(204, 204, 204)" stroke-width="1px"></line><line x1="50.17599868774414" y1="54.030768761268035" x2="45.17599868774414" y2="54.030768761268035" style="visibility: inherit;" fill="rgb(0, 0, 0)" stroke="rgb(204, 204, 204)" stroke-width="1px"></line><line x1="50.17599868774414" y1="40.52307657095102" x2="45.17599868774414" y2="40.52307657095102" style="visibility: inherit;" fill="rgb(0, 0, 0)" stroke="rgb(204, 204, 204)" stroke-width="1px"></line><line x1="50.17599868774414" y1="27.015384380634003" x2="45.17599868774414" y2="27.015384380634003" style="visibility: inherit;" fill="rgb(0, 0, 0)" stroke="rgb(204, 204, 204)" stroke-width="1px"></line><line x1="50.17599868774414" y1="13.507692190316988" x2="45.17599868774414" y2="13.507692190316988" style="visibility: inherit;" fill="rgb(0, 0, 0)" stroke="rgb(204, 204, 204)" stroke-width="1px"></line><line x1="50.17599868774414" y1="0" x2="45.17599868774414" y2="0" style="visibility: inherit;" fill="rgb(0, 0, 0)" stroke="rgb(204, 204, 204)" stroke-width="1px"></line></g><g transform="translate(40.17599868774414, 0)"><text style="text-anchor: end; visibility: hidden; font-family: &quot;Helvetica Neue&quot;, sans-serif; font-size: 12px; font-weight: 200;" x="0" y="175.5999984741211" dx="0em" dy="0.3em" fill="rgb(50, 49, 63)" stroke="none" stroke-width="1px">-0.1</text><text style="text-anchor: end; visibility: inherit; font-family: &quot;Helvetica Neue&quot;, sans-serif; font-size: 12px; font-weight: 200;" x="0" y="162.09230628380408" dx="0em" dy="0.3em" fill="rgb(50, 49, 63)" stroke="none" stroke-width="1px">0</text><text style="text-anchor: end; visibility: hidden; font-family: &quot;Helvetica Neue&quot;, sans-serif; font-size: 12px; font-weight: 200;" x="0" y="148.5846140934871" dx="0em" dy="0.3em" fill="rgb(50, 49, 63)" stroke="none" stroke-width="1px">0.1</text><text style="text-anchor: end; visibility: inherit; font-family: &quot;Helvetica Neue&quot;, sans-serif; font-size: 12px; font-weight: 200;" x="0" y="135.07692190317007" dx="0em" dy="0.3em" fill="rgb(50, 49, 63)" stroke="none" stroke-width="1px">0.2</text><text style="text-anchor: end; visibility: hidden; font-family: &quot;Helvetica Neue&quot;, sans-serif; font-size: 12px; font-weight: 200;" x="0" y="121.56922971285306" dx="0em" dy="0.3em" fill="rgb(50, 49, 63)" stroke="none" stroke-width="1px">0.3</text><text style="text-anchor: end; visibility: inherit; font-family: &quot;Helvetica Neue&quot;, sans-serif; font-size: 12px; font-weight: 200;" x="0" y="108.06153752253606" dx="0em" dy="0.3em" fill="rgb(50, 49, 63)" stroke="none" stroke-width="1px">0.4</text><text style="text-anchor: end; visibility: hidden; font-family: &quot;Helvetica Neue&quot;, sans-serif; font-size: 12px; font-weight: 200;" x="0" y="94.55384533221905" dx="0em" dy="0.3em" fill="rgb(50, 49, 63)" stroke="none" stroke-width="1px">0.5</text><text style="text-anchor: end; visibility: inherit; font-family: &quot;Helvetica Neue&quot;, sans-serif; font-size: 12px; font-weight: 200;" x="0" y="81.04615314190205" dx="0em" dy="0.3em" fill="rgb(50, 49, 63)" stroke="none" stroke-width="1px">0.6</text><text style="text-anchor: end; visibility: hidden; font-family: &quot;Helvetica Neue&quot;, sans-serif; font-size: 12px; font-weight: 200;" x="0" y="67.53846095158505" dx="0em" dy="0.3em" fill="rgb(50, 49, 63)" stroke="none" stroke-width="1px">0.7</text><text style="text-anchor: end; visibility: inherit; font-family: &quot;Helvetica Neue&quot;, sans-serif; font-size: 12px; font-weight: 200;" x="0" y="54.030768761268035" dx="0em" dy="0.3em" fill="rgb(50, 49, 63)" stroke="none" stroke-width="1px">0.8</text><text style="text-anchor: end; visibility: hidden; font-family: &quot;Helvetica Neue&quot;, sans-serif; font-size: 12px; font-weight: 200;" x="0" y="40.52307657095102" dx="0em" dy="0.3em" fill="rgb(50, 49, 63)" stroke="none" stroke-width="1px">0.9</text><text style="text-anchor: end; visibility: inherit; font-family: &quot;Helvetica Neue&quot;, sans-serif; font-size: 12px; font-weight: 200;" x="0" y="27.015384380634003" dx="0em" dy="0.3em" fill="rgb(50, 49, 63)" stroke="none" stroke-width="1px">1</text><text style="text-anchor: end; visibility: hidden; font-family: &quot;Helvetica Neue&quot;, sans-serif; font-size: 12px; font-weight: 200;" x="0" y="13.507692190316988" dx="0em" dy="0.3em" fill="rgb(50, 49, 63)" stroke="none" stroke-width="1px">1.1</text><text style="text-anchor: end; visibility: hidden; font-family: &quot;Helvetica Neue&quot;, sans-serif; font-size: 12px; font-weight: 200;" x="0" y="0" dx="0em" dy="0.3em" fill="rgb(50, 49, 63)" stroke="none" stroke-width="1px">1.2</text></g><line x1="50.17599868774414" y1="0" x2="50.17599868774414" y2="175.5999984741211" fill="rgb(0, 0, 0)" stroke="rgb(204, 204, 204)" stroke-width="1px"></line></g></g><g transform="translate(50, 0)" clip-path="url(#clip_0)"><clipPath id="clip_0"><rect width="279" height="175"></rect></clipPath><g><g><g><line x1="0" y1="0" x2="0" y2="175.5999984741211" fill="rgb(0, 0, 0)" stroke="rgb(60, 60, 60)" stroke-width="1px" opacity="0.25"></line><line x1="19.987428665161133" y1="0" x2="19.987428665161133" y2="175.5999984741211" fill="rgb(0, 0, 0)" stroke="rgb(60, 60, 60)" stroke-width="1px" opacity="0.25"></line><line x1="39.974857330322266" y1="0" x2="39.974857330322266" y2="175.5999984741211" fill="rgb(0, 0, 0)" stroke="rgb(60, 60, 60)" stroke-width="1px" opacity="0.25"></line><line x1="59.9622859954834" y1="0" x2="59.9622859954834" y2="175.5999984741211" fill="rgb(0, 0, 0)" stroke="rgb(60, 60, 60)" stroke-width="1px" opacity="0.25"></line><line x1="79.94971466064453" y1="0" x2="79.94971466064453" y2="175.5999984741211" fill="rgb(0, 0, 0)" stroke="rgb(60, 60, 60)" stroke-width="1px" opacity="0.25"></line><line x1="99.93714332580566" y1="0" x2="99.93714332580566" y2="175.5999984741211" fill="rgb(0, 0, 0)" stroke="rgb(60, 60, 60)" stroke-width="1px" opacity="0.25"></line><line x1="119.9245719909668" y1="0" x2="119.9245719909668" y2="175.5999984741211" fill="rgb(0, 0, 0)" stroke="rgb(60, 60, 60)" stroke-width="1px" opacity="0.25"></line><line x1="139.91200065612793" y1="0" x2="139.91200065612793" y2="175.5999984741211" fill="rgb(0, 0, 0)" stroke="rgb(60, 60, 60)" stroke-width="1px" opacity="0.25"></line><line x1="159.89942932128906" y1="0" x2="159.89942932128906" y2="175.5999984741211" fill="rgb(0, 0, 0)" stroke="rgb(60, 60, 60)" stroke-width="1px" opacity="0.25"></line><line x1="179.8868579864502" y1="0" x2="179.8868579864502" y2="175.5999984741211" fill="rgb(0, 0, 0)" stroke="rgb(60, 60, 60)" stroke-width="1px" opacity="0.25"></line><line x1="199.87428665161133" y1="0" x2="199.87428665161133" y2="175.5999984741211" fill="rgb(0, 0, 0)" stroke="rgb(60, 60, 60)" stroke-width="1px" opacity="0.25"></line><line x1="219.86171531677246" y1="0" x2="219.86171531677246" y2="175.5999984741211" fill="rgb(0, 0, 0)" stroke="rgb(60, 60, 60)" stroke-width="1px" opacity="0.25"></line><line x1="239.8491439819336" y1="0" x2="239.8491439819336" y2="175.5999984741211" fill="rgb(0, 0, 0)" stroke="rgb(60, 60, 60)" stroke-width="1px" opacity="0.25"></line><line x1="259.8365726470947" y1="0" x2="259.8365726470947" y2="175.5999984741211" fill="rgb(0, 0, 0)" stroke="rgb(60, 60, 60)" stroke-width="1px" opacity="0.25"></line><line x1="279.82400131225586" y1="0" x2="279.82400131225586" y2="175.5999984741211" fill="rgb(0, 0, 0)" stroke="rgb(60, 60, 60)" stroke-width="1px" opacity="0.25"></line></g><g><line x1="0" y1="175.5999984741211" x2="279.82400131225586" y2="175.5999984741211" fill="rgb(0, 0, 0)" stroke="rgb(60, 60, 60)" stroke-width="1px" opacity="0.25"></line><line x1="0" y1="162.09230628380408" x2="279.82400131225586" y2="162.09230628380408" fill="rgb(0, 0, 0)" stroke="rgb(60, 60, 60)" stroke-width="1px" opacity="0.25"></line><line x1="0" y1="148.5846140934871" x2="279.82400131225586" y2="148.5846140934871" fill="rgb(0, 0, 0)" stroke="rgb(60, 60, 60)" stroke-width="1px" opacity="0.25"></line><line x1="0" y1="135.07692190317007" x2="279.82400131225586" y2="135.07692190317007" fill="rgb(0, 0, 0)" stroke="rgb(60, 60, 60)" stroke-width="1px" opacity="0.25"></line><line x1="0" y1="121.56922971285306" x2="279.82400131225586" y2="121.56922971285306" fill="rgb(0, 0, 0)" stroke="rgb(60, 60, 60)" stroke-width="1px" opacity="0.25"></line><line x1="0" y1="108.06153752253606" x2="279.82400131225586" y2="108.06153752253606" fill="rgb(0, 0, 0)" stroke="rgb(60, 60, 60)" stroke-width="1px" opacity="0.25"></line><line x1="0" y1="94.55384533221905" x2="279.82400131225586" y2="94.55384533221905" fill="rgb(0, 0, 0)" stroke="rgb(60, 60, 60)" stroke-width="1px" opacity="0.25"></line><line x1="0" y1="81.04615314190205" x2="279.82400131225586" y2="81.04615314190205" fill="rgb(0, 0, 0)" stroke="rgb(60, 60, 60)" stroke-width="1px" opacity="0.25"></line><line x1="0" y1="67.53846095158505" x2="279.82400131225586" y2="67.53846095158505" fill="rgb(0, 0, 0)" stroke="rgb(60, 60, 60)" stroke-width="1px" opacity="0.25"></line><line x1="0" y1="54.030768761268035" x2="279.82400131225586" y2="54.030768761268035" fill="rgb(0, 0, 0)" stroke="rgb(60, 60, 60)" stroke-width="1px" opacity="0.25"></line><line x1="0" y1="40.52307657095102" x2="279.82400131225586" y2="40.52307657095102" fill="rgb(0, 0, 0)" stroke="rgb(60, 60, 60)" stroke-width="1px" opacity="0.25"></line><line x1="0" y1="27.015384380634003" x2="279.82400131225586" y2="27.015384380634003" fill="rgb(0, 0, 0)" stroke="rgb(60, 60, 60)" stroke-width="1px" opacity="0.25"></line><line x1="0" y1="13.507692190316988" x2="279.82400131225586" y2="13.507692190316988" fill="rgb(0, 0, 0)" stroke="rgb(60, 60, 60)" stroke-width="1px" opacity="0.25"></line><line x1="0" y1="0" x2="279.82400131225586" y2="0" fill="rgb(0, 0, 0)" stroke="rgb(60, 60, 60)" stroke-width="1px" opacity="0.25"></line></g></g></g><g><g><line x1="0" y1="162.09230628380408" x2="279.82400131225586" y2="162.09230628380408" fill="rgb(0, 0, 0)" stroke="rgb(153, 153, 153)" stroke-width="1.5px"></line></g></g><g><g><line x1="19.987428665161133" y1="0" x2="19.987428665161133" y2="175.5999984741211" fill="rgb(0, 0, 0)" stroke="rgb(153, 153, 153)" stroke-width="1.5px"></line></g></g><g><g><g><g><g><path style="fill: none;" stroke="rgb(51, 187, 238)" stroke-width="2px" d="M19.987428665161133,159.46776164597767L19.987428665161133,159.76493093545452L21.986171531677247,155.92213031563008L23.98491439819336,150.09190904016916L25.983657264709475,143.9333724325717L27.98240013122559,137.85293955458212L29.9811429977417,131.957878319788L31.979885864257813,126.47518720998738L33.97862873077393,121.37244201500559L35.97737159729004,116.68594156268117L37.97611446380615,112.29361753735637L39.974857330322266,108.2524560410479L41.973600196838376,104.5127816356588L43.972343063354494,101.02463756785939L45.971085929870604,97.99778753608953L47.96982879638672,95.21948857342548L49.96857166290283,92.49490899527584L51.96731452941895,90.01208814176748L53.96605739593506,87.68827180368787L55.96480026245118,85.598129409565L57.96354312896729,83.6508651058127L59.9622859954834,81.92816841874922L61.96102886199951,80.27699021841812L63.959771728515626,78.69519140512271L65.95851459503174,77.36249811752627L67.95725746154785,76.24842623817909L69.95600032806396,75.08938161444614L71.95474319458008,74.03735432134442L73.95348606109619,73.09221826897213L75.9522289276123,72.16907354357605L77.95097179412842,71.47470927426008L79.94971466064453,62.202446108437854L81.94845752716064,54.12287549600666L83.94720039367675,48.03458650064864L85.94594326019288,43.6084327750803L87.94468612670899,40.32004092175154L89.9434289932251,37.84073595962229L91.94217185974121,36.04463699016452L93.94091472625732,34.66656757142306L95.93965759277344,33.57389422619357L97.93840045928954,32.688118952169276L99.93714332580566,31.96376607276568L101.93588619232177,31.267644540250302L103.9346290588379,30.739747308806045L105.933371925354,30.38194778906208L107.93211479187012,30.088382302574047L109.93085765838623,29.91926688799606L111.92960052490236,29.770250401975773L113.92834339141845,29.687323346225867L115.92708625793458,29.588941013098747L117.92582912445069,29.515863858617166L119.9245719909668,29.44554196056052L121.92331485748291,29.388218984235095L123.92205772399902,29.377598817078223L125.92080059051514,29.33070335681043L127.91954345703125,29.269066597979077L129.91828632354736,29.28557679485874L131.9170291900635,29.23982971552138L133.91577205657958,29.23615508655726L135.9145149230957,29.216121705442447L137.91325778961183,29.18464994870868L139.91200065612793,29.19980741878203L141.91074352264403,29.142985018370297L143.90948638916015,29.147791813768322L145.90822925567628,29.15013484956424L147.90697212219237,29.161807576517106L149.9057149887085,29.156383361926828L151.9044578552246,29.155830819902206L153.90320072174075,29.16576620016275L155.90194358825684,29.17929234706486L157.90068645477294,29.130675975339983L159.89942932128906,29.157697170728312L161.8981721878052,29.109612909349465L163.89691505432128,29.13857649527398L165.8956579208374,29.142985754623822L167.8944007873535,29.140227336774643L169.89314365386963,29.12128472377168L171.89188652038575,29.16124724237693L173.89062938690185,29.177659834794298L175.88937225341797,29.139419111525342L177.88811511993407,29.137549529957482L179.8868579864502,29.161280262055953L181.88560085296632,29.190107497363698L183.88434371948242,29.199838919802602L185.88308658599854,29.193249922503924L187.88182945251464,29.17578981096179L189.88057231903076,29.194491336133865L191.8793151855469,29.198147332491317L193.87805805206298,29.172786462537033L195.87680091857908,29.180261476317014L197.87554378509523,29.138281330194218L199.87428665161133,29.12821985952729L201.87302951812745,29.136230731732923L203.87177238464355,29.119965623147607L205.87051525115967,29.161534644403446L207.8692581176758,29.16324347996155L209.8680009841919,29.190203345221335L211.866743850708,29.15396909508445L213.86548671722412,29.1668101105588L215.86422958374024,29.166408759654757L217.86297245025634,29.145096317203638L219.86171531677246,29.133928755576733L221.86045818328856,29.16180978415707L223.8592010498047,29.16287074285563L225.8579439163208,29.157562303172796L227.8566867828369,29.194900599336734L229.85542964935303,29.181102107634842L231.85417251586915,29.15607327127836L233.85291538238525,29.191846234913356L235.85165824890137,29.156577953228293L237.85040111541747,29.17215627457557L239.8491439819336,29.148003784713268L241.84788684844972,29.159446854720755L243.84662971496581,29.16199080615192L245.84537258148194,29.206742523713785L247.84411544799804,29.210902018498388L249.84285831451416,29.19502484970519L251.84160118103028,29.177936850168294L253.84034404754638,29.182269626010026L255.8390869140625,29.146510097312927L257.8378297805786,29.120729269036502" fill="none"></path></g><g><path style="fill: none;" stroke="rgb(0, 119, 187)" stroke-width="2px" d="M19.987428665161133,160.93469711739934L21.986171531677247,159.09005289121137L23.98491439819336,155.71769531539456L25.983657264709475,151.44144611469295L27.98240013122559,146.8307114528098L29.9811429977417,142.10767082371248L31.979885864257813,137.39390847826203L33.97862873077393,132.94468006776947L35.97737159729004,128.58778698262913L37.97611446380615,124.54074078329128L39.974857330322266,120.60389647381965L41.973600196838376,117.02015262456692L43.972343063354494,113.50343403908234L45.971085929870604,110.18186285236747L47.96982879638672,107.14513971325631L49.96857166290283,104.31011687073784L51.96731452941895,101.69039596863311L53.96605739593506,99.2261686406919L55.96480026245118,97.02481555621569L57.96354312896729,94.77418566739283L59.9622859954834,92.98620301877033L61.96102886199951,91.02083722266883L63.959771728515626,89.43748281289348L65.95851459503174,87.89151497607116L67.95725746154785,86.55870743090136L69.95600032806396,85.28679517876706L71.95474319458008,84.39937702222207L73.95348606109619,83.16506670778946L75.9522289276123,82.17918302921392L77.95097179412842,81.16297085334959L79.94971466064453,80.15503713684389L81.94845752716064,70.56982243178584L83.94720039367675,61.57036163102353L85.94594326019288,54.25961749816598L87.94468612670899,48.595343959460834L89.9434289932251,44.03457778050861L91.94217185974121,40.361765368452325L93.94091472625732,37.58049042948457L95.93965759277344,35.282806660284194L97.93840045928954,33.5578590274786L99.93714332580566,32.178714020183094L101.93588619232177,31.100525158290395L103.9346290588379,30.335284789704247L105.933371925354,29.521156192902424L107.93211479187012,28.952173356398873L109.93085765838623,28.56107547196831L111.92960052490236,28.271845626744124L113.92834339141845,28.070753251847123L115.92708625793458,27.923622221543724L117.92582912445069,27.84398738450969L119.9245719909668,27.753522177029197L121.92331485748291,27.697623148697375L123.92205772399902,27.648953894206812L125.92080059051514,27.613269505652482L127.91954345703125,27.5734892273407L129.91828632354736,27.528549428444933L131.9170291900635,27.50104450766463L133.91577205657958,27.48670250048312L135.9145149230957,27.495929120395317L137.91325778961183,27.505786982915993L139.91200065612793,27.503595740239774L141.91074352264403,27.49741806261781L143.90948638916015,27.482365688168358L145.90822925567628,27.478738236957753L147.90697212219237,27.479263752960975L149.9057149887085,27.468771115644728L151.9044578552246,27.460855629411185L153.90320072174075,27.45286330949861L155.90194358825684,27.45293084956728L157.90068645477294,27.46377932052667L159.89942932128906,27.45840159378318L161.8981721878052,27.451931929564665L163.89691505432128,27.458854857466974L165.8956579208374,27.450042942488295L167.8944007873535,27.444214752058173L169.89314365386963,27.45476559240595L171.89188652038575,27.456233164598387L173.89062938690185,27.447387843881387L175.88937225341797,27.4469435834674L177.88811511993407,27.44992005539143" fill="none"></path></g><g><path style="fill: none;" stroke="rgb(204, 51, 17)" stroke-width="2px" d="M19.987428665161133,158.6302848948253L21.986171531677247,152.76203656903715L23.98491439819336,148.30682448220048L25.983657264709475,145.35676730205074L27.98240013122559,143.49233345013334L29.9811429977417,142.23069784974268L31.979885864257813,141.35460718506528L33.97862873077393,140.61246196943273L35.97737159729004,140.1195613766044L37.97611446380615,139.71395211203338L39.974857330322266,139.4689078811017L41.973600196838376,139.30295819651266L43.972343063354494,139.06998926438877L45.971085929870604,138.98501670525192L47.96982879638672,138.84542409500563L49.96857166290283,138.66226532185658L51.96731452941895,138.47296448090043L53.96605739593506,138.37831789807578L55.96480026245118,138.27452623508293L57.96354312896729,138.1290445776595L59.9622859954834,138.11470215249602L61.96102886199951,137.96561508829603L63.959771728515626,137.91344553700904L65.95851459503174,137.8394595624015L67.95725746154785,137.68268423540513L69.95600032806396,137.64697219283696L71.95474319458008,137.6444557122607L73.95348606109619,137.72129060689207L75.9522289276123,137.6582492441002L77.95097179412842,137.65230322204428L79.94971466064453,130.14926417104064L81.94845752716064,123.20470991911162L83.94720039367675,118.09514050155644L85.94594326019288,114.35185246681775L87.94468612670899,111.32297502066407L89.9434289932251,108.72814465075902L91.94217185974121,106.5434097139172L93.94091472625732,104.53503107766187L95.93965759277344,102.9107257658902L97.93840045928954,101.4071811759773L99.93714332580566,99.99446266362666L101.93588619232177,98.5568162017592L103.9346290588379,97.4359615481585L105.933371925354,96.36308130890073L107.93211479187012,95.32654902669248L109.93085765838623,94.3755830660956L111.92960052490236,93.58563694856383L113.92834339141845,92.82638585439818L115.92708625793458,92.19145419571939L117.92582912445069,91.53980057290498L119.9245719909668,90.83813145307704L121.92331485748291,90.30961087635191L123.92205772399902,89.88497620500256L125.92080059051514,89.43676664539954L127.91954345703125,89.04248676010188L129.91828632354736,79.07552035390187L131.9170291900635,69.47905815189303L133.91577205657958,61.675577206367265L135.9145149230957,55.36662210714505L137.91325778961183,50.2623574751163L139.91200065612793,45.996535408907164L141.91074352264403,42.51960012680692L143.90948638916015,39.64512869335377L145.90822925567628,37.14402237840804L147.90697212219237,35.12844493958755L149.9057149887085,33.44092733728533L151.9044578552246,32.13665051638489L153.90320072174075,30.71274098253926L155.90194358825684,29.695219739451744L157.90068645477294,29.005283397980605L159.89942932128906,28.542692272935653L161.8981721878052,28.230018211394167L163.89691505432128,28.024044129290104L165.8956579208374,27.845888565448263L167.8944007873535,27.73791314425742L169.89314365386963,27.634768697340746L171.89188652038575,27.548567369109662L173.89062938690185,27.47037096680316L175.88937225341797,27.41264839898588L177.88811511993407,27.375853913008825" fill="none"></path></g><g><path style="fill: none;" stroke="rgb(0, 153, 136)" stroke-width="2px" d="M19.987428665161133,156.8715834406449L21.986171531677247,149.37143732399343L23.98491439819336,142.3898208608417L25.983657264709475,136.23073730668517L27.98240013122559,130.8137224960801L29.9811429977417,126.14264052555262L31.979885864257813,122.01377016548653L33.97862873077393,118.65164139423321L35.97737159729004,115.43789374264009L37.97611446380615,112.88525242607875L39.974857330322266,110.41514287694295L41.973600196838376,108.24626260757314L43.972343063354494,106.49459020395469L45.971085929870604,104.95406836067448L47.96982879638672,103.16130520900177L49.96857166290283,101.57166918610942L51.96731452941895,100.26853504681854L53.96605739593506,98.84862891134098L55.96480026245118,97.68608164856909L57.96354312896729,96.6730472155544L59.9622859954834,95.75618643846256L61.96102886199951,95.01265154201036L63.959771728515626,93.86575062486315L65.95851459503174,92.91016300462141L67.95725746154785,91.8807913891815L69.95600032806396,90.9411470295717L71.95474319458008,90.09964265048242L73.95348606109619,89.23651617084184L75.9522289276123,88.41931255421433L77.95097179412842,87.80147545393139L79.94971466064453,86.95962595697566L81.94845752716064,86.11142195703702L83.94720039367675,85.18268040493025L85.94594326019288,84.52925894185537L87.94468612670899,83.84706293581375L89.9434289932251,83.17083155846134L91.94217185974121,82.36256434150096L93.94091472625732,81.64905264988441L95.93965759277344,80.87244731644846L97.93840045928954,80.16280613636873L99.93714332580566,79.56196231717307L101.93588619232177,78.87564924217459L103.9346290588379,78.22936823910901L105.933371925354,70.55987421939595L107.93211479187012,62.99783090765911L109.93085765838623,57.2335647949285L111.92960052490236,53.02775926471571L113.92834339141845,49.78783080032207L115.92708625793458,47.360836430215016L117.92582912445069,45.486981578154996L119.9245719909668,44.0174133757142L121.92331485748291,42.74070898047711L123.92205772399902,41.60835619973028L125.92080059051514,40.69229042778633L127.91954345703125,39.770920068039686L129.91828632354736,38.28876578001302L131.9170291900635,37.316268762448175L133.91577205657958,36.58094401749031L135.9145149230957,36.14136907435946L137.91325778961183,35.79387540180423L139.91200065612793,35.48542179170181L141.91074352264403,35.329527217737706L143.90948638916015,35.167371604174036L145.90822925567628,35.026852889332645L147.90697212219237,34.893374519307486L149.9057149887085,34.75331240925388L151.9044578552246,34.607139109896536L153.90320072174075,34.537266954503224L155.90194358825684,34.473189946472786L157.90068645477294,34.38557660053422L159.89942932128906,34.418918244934474L161.8981721878052,34.4205535863955L163.89691505432128,34.385333321871855L165.8956579208374,34.35015340855185L167.8944007873535,34.34255217372282L169.89314365386963,34.395805575577185L171.89188652038575,34.336985032710174L173.89062938690185,34.363287698872256L175.88937225341797,34.408784711624946L177.88811511993407,34.344772514338814" fill="none"></path></g><g><path style="fill: none;" stroke="rgb(238, 51, 119)" stroke-width="2px" d="M19.987428665161133,160.73208170133333L21.986171531677247,158.0423623769926L23.98491439819336,153.57465866858362L25.983657264709475,148.3682231262992L27.98240013122559,142.89929413018237L29.9811429977417,137.34511611738924L31.979885864257813,131.90361563180147L33.97862873077393,126.70238236711361L35.97737159729004,121.87734525887737L37.97611446380615,117.38447999978959L39.974857330322266,113.3228664490073L41.973600196838376,109.53513629188647L43.972343063354494,106.09756700548995L45.971085929870604,102.84072191835294L47.96982879638672,99.74009588768511L49.96857166290283,97.09428562651118L51.96731452941895,94.54050120758943L53.96605739593506,92.30117185619025L55.96480026245118,90.12181458930013L57.96354312896729,88.10753688243649L59.9622859954834,86.1982213105555L61.96102886199951,84.56097445009335L63.959771728515626,83.05561638522892L65.95851459503174,81.53537744988186L67.95725746154785,80.29634890303315L69.95600032806396,79.02235181600885L71.95474319458008,77.88298064611205L73.95348606109619,76.97729324668383L75.9522289276123,75.96921656592487L77.95097179412842,75.00668757413705L79.94971466064453,74.19791693405303L81.94845752716064,73.41278559557254L83.94720039367675,72.73476813215208L85.94594326019288,72.03781131083254L87.94468612670899,71.3873050139033L89.9434289932251,70.79060359177521L91.94217185974121,70.24347587504667L93.94091472625732,69.77796150829656L95.93965759277344,69.40139746929636L97.93840045928954,69.0155265516116L99.93714332580566,68.5992190255357L101.93588619232177,68.18518012484367L103.9346290588379,67.945944827633L105.933371925354,67.53548987082463L107.93211479187012,67.13631149994916L109.93085765838623,66.92219799993408L111.92960052490236,66.5824693189109L113.92834339141845,66.38079305559182L115.92708625793458,66.11228265375556L117.92582912445069,59.46748390361273L119.9245719909668,53.377186886477816L121.92331485748291,48.64671622211577L123.92205772399902,44.994730036830845L125.92080059051514,42.07952826056683L127.91954345703125,39.803065694195L129.91828632354736,37.90930883279955L131.9170291900635,36.40132059889723L133.91577205657958,35.13560470889354L135.9145149230957,34.002821153982154L137.91325778961183,33.117835454922584L139.91200065612793,32.35451182256335L141.91074352264403,31.41293931019402L143.90948638916015,30.699953337968594L145.90822925567628,30.223532434471082L147.90697212219237,29.87878688721983L149.9057149887085,29.57900602960268L151.9044578552246,29.34618952478158L153.90320072174075,29.171380235374414L155.90194358825684,29.04379990549282L157.90068645477294,28.93861515690935L159.89942932128906,28.81715234404936L161.8981721878052,28.719418954809356L163.89691505432128,28.618094616005095L165.8956579208374,28.545954244846257L167.8944007873535,28.526984682232097L169.89314365386963,28.488045256410032L171.89188652038575,28.463602738515874L173.89062938690185,28.41813973183821L175.88937225341797,28.38815994110206L177.88811511993407,28.385839725110003" fill="none"></path></g><g><path style="fill: none;" stroke="rgb(255, 112, 67)" stroke-width="2px" d="M19.987428665161133,161.29400169798026L21.986171531677247,160.4404843851749L23.98491439819336,158.39563676927008L25.983657264709475,155.4449970128732L27.98240013122559,151.81739944746406L29.9811429977417,147.83128104526793L31.979885864257813,143.42530505287692L33.97862873077393,138.80563424095283L35.97737159729004,134.2517190582406L37.97611446380615,129.82137625824186L39.974857330322266,125.51233857647551L41.973600196838376,121.38829310942432L43.972343063354494,117.6325456218205L45.971085929870604,114.00175106259086L47.96982879638672,110.55964125139423L49.96857166290283,107.45178301919073L51.96731452941895,104.58518840042989L53.96605739593506,101.8685737003751L55.96480026245118,99.44393993214013L57.96354312896729,97.14472368325661L59.9622859954834,95.02068752599212L61.96102886199951,93.11250556764936L63.959771728515626,91.18956296368316L65.95851459503174,89.55114762857096L67.95725746154785,88.0937117575287L69.95600032806396,86.56548047948486L71.95474319458008,85.19198444812358L73.95348606109619,83.96157501734237L75.9522289276123,82.79648663257363L77.95097179412842,81.62196139857475L79.94971466064453,80.75947807459248L81.94845752716064,79.92698929163717L83.94720039367675,79.16436634283754L85.94594326019288,78.41232434217895L87.94468612670899,77.62394659826894L89.9434289932251,76.97856283393396L91.94217185974121,76.29794641441468L93.94091472625732,75.66264510460701L95.93965759277344,74.95511971491433L97.93840045928954,74.49656395794847L99.93714332580566,66.8710862123491L101.93588619232177,59.87792078491026L103.9346290588379,54.25777179815033L105.933371925354,49.73266512346241L107.93211479187012,46.06990262217974L109.93085765838623,43.09420176288762L111.92960052490236,40.709577849436016L113.92834339141845,38.70607892928919L115.92708625793458,37.007976613992184L117.92582912445069,35.62656915083463L119.9245719909668,34.48920867209131L121.92331485748291,33.59175095470292L123.92205772399902,32.283876746699235L125.92080059051514,31.32679509701333L127.91954345703125,30.61692827267572L129.91828632354736,30.07862614122689L131.9170291900635,29.671355114238082L133.91577205657958,29.36377760231869L135.9145149230957,29.14897142018404L137.91325778961183,28.947146951144646L139.91200065612793,28.781748060616906L141.91074352264403,28.626317707877064L143.90948638916015,28.49739906827574L145.90822925567628,28.368178756665117L147.90697212219237,28.293345335943428L149.9057149887085,28.226294789200807L151.9044578552246,28.191465214129522L153.90320072174075,28.173269455816296L155.90194358825684,28.16505398755794L157.90068645477294,28.121762291915985L159.89942932128906,28.101191247989846L161.8981721878052,28.10289637624001L163.89691505432128,28.10067964550248L165.8956579208374,28.080976741396057L167.8944007873535,28.065915191244528L169.89314365386963,28.060118068841234L171.89188652038575,28.037729108777256L173.89062938690185,28.033480555328396L175.88937225341797,28.036335396718215L177.88811511993407,28.03156546569204" fill="none"></path></g><g><path style="fill: none;" stroke="rgb(187, 187, 187)" stroke-width="2px" d="M19.987428665161133,158.10078335468495L21.986171531677247,152.8285621608561L23.98491439819336,149.08302053757612L25.983657264709475,146.48329891058876L27.98240013122559,144.43197801484175L29.9811429977417,142.96311764436012L31.979885864257813,141.86955745818648L33.97862873077393,140.89538282554054L35.97737159729004,140.18336664920872L37.97611446380615,139.58465312262L39.974857330322266,139.20822781039834L41.973600196838376,138.87170256636375L43.972343063354494,138.54852859972098L45.971085929870604,138.39544970834453L47.96982879638672,138.13772686607672L49.96857166290283,138.1226095621474L51.96731452941895,137.92169977916154L53.96605739593506,137.83683972625892L55.96480026245118,137.70757970309754L57.96354312896729,137.67271459632286L59.9622859954834,137.63288524662508L61.96102886199951,137.63708488014998L63.959771728515626,137.62933844345858L65.95851459503174,137.51500763539622L67.95725746154785,137.5933735175011L69.95600032806396,137.52368636231066L71.95474319458008,137.55427554793576L73.95348606109619,137.41485900330952L75.9522289276123,129.7474469501933L77.95097179412842,122.67401326131258L79.94971466064453,117.357983343071L81.94845752716064,113.30873626513616L83.94720039367675,110.21569103684234L85.94594326019288,107.65043948453508L87.94468612670899,105.35053601117178L89.9434289932251,103.48377580679478L91.94217185974121,101.6121519384904L93.94091472625732,99.96615962317945L95.93965759277344,98.64519414502567L97.93840045928954,97.24855174970533L99.93714332580566,96.05504411673468L101.93588619232177,95.0233996592557L103.9346290588379,94.153711126911L105.933371925354,93.31041311454985L107.93211479187012,92.47538771587212L109.93085765838623,91.77986163702947L111.92960052490236,91.09941628087715L113.92834339141845,90.5544491497866L115.92708625793458,90.00324261840225L117.92582912445069,89.61956748884033L119.9245719909668,89.18404684499136L121.92331485748291,88.68175846461241L123.92205772399902,88.37552250436974L125.92080059051514,88.0523790240824L127.91954345703125,87.5364702218926L129.91828632354736,87.26042442324965L131.9170291900635,86.95377835656294L133.91577205657958,86.68225794025892L135.9145149230957,86.4112855442034L137.91325778961183,86.1638745374924L139.91200065612793,76.88801048506606L141.91074352264403,67.81427306207785L143.90948638916015,60.58215271936895L145.90822925567628,54.77756638028795L147.90697212219237,50.23473082263499L149.9057149887085,46.60941604940467L151.9044578552246,43.61728359110381L153.90320072174075,41.27737183273001L155.90194358825684,39.412544421474024L157.90068645477294,37.95379343648193L159.89942932128906,36.82459795921159L161.8981721878052,35.92501536540124L163.89691505432128,33.95453002073094L165.8956579208374,32.31189627865513L167.8944007873535,31.167465621687626L169.89314365386963,30.368963011618717L171.89188652038575,29.763431654125128L173.89062938690185,29.347161628893332L175.88937225341797,29.07092400838647L177.88811511993407,28.826295661421796" fill="none"></path></g><g><path style="fill: none;" stroke="rgb(238, 51, 119)" stroke-width="2px" d="M19.987428665161133,158.8464078543355L21.986171531677247,153.5800962815261L23.98491439819336,147.32227934376482L25.983657264709475,140.99584351244357L27.98240013122559,135.27611362724178L29.9811429977417,130.30205265561355L31.979885864257813,125.90787215466577L33.97862873077393,121.97319222990748L35.97737159729004,118.57713977284794L37.97611446380615,115.50860298351884L39.974857330322266,112.69571258803418L41.973600196838376,110.33279136142176L43.972343063354494,108.17335898748921L45.971085929870604,106.40258104117636L47.96982879638672,104.60962174330041L49.96857166290283,103.1501186979219L51.96731452941895,101.64781806773439L53.96605739593506,100.30242150513565L55.96480026245118,99.19051890964376L57.96354312896729,98.13006276532724L59.9622859954834,97.21392830329766L61.96102886199951,95.98184366364664L63.959771728515626,95.17506271858674L65.95851459503174,94.53106819732916L67.95725746154785,93.74268172309706L69.95600032806396,92.86280029595117L71.95474319458008,92.09227303355455L73.95348606109619,91.18798723981745L75.9522289276123,90.28178782812L77.95097179412842,89.22909642683814L79.94971466064453,88.41107683079518L81.94845752716064,87.69063489814361L83.94720039367675,87.04008530650746L85.94594326019288,86.3509654260247L87.94468612670899,85.70354138958213L89.9434289932251,85.08815551254973L91.94217185974121,84.5190123965017L93.94091472625732,83.95815998710913L95.93965759277344,83.27315022264476L97.93840045928954,82.6573666195144L99.93714332580566,81.96047299090864L101.93588619232177,81.43913637931158L103.9346290588379,80.9907165779481L105.933371925354,80.41423077919089L107.93211479187012,79.82844216830625L109.93085765838623,79.29002308086915L111.92960052490236,78.8691751671421L113.92834339141845,78.47024385795264L115.92708625793458,77.9866660501988L117.92582912445069,77.50795032028691L119.9245719909668,76.88303050987352L121.92331485748291,76.46539431836705L123.92205772399902,75.8717150370524L125.92080059051514,69.26468821363312L127.91954345703125,62.98633481293923L129.91828632354736,58.2700011513233L131.9170291900635,54.739423466453786L133.91577205657958,52.159114416415065L135.9145149230957,50.16247326043754L137.91325778961183,48.58573379296756L139.91200065612793,47.33549600220451L141.91074352264403,46.2427968027786L143.90948638916015,45.3618689475025L145.90822925567628,44.668520028197605L147.90697212219237,43.9299469211544L149.9057149887085,42.501821007769365L151.9044578552246,41.533101243849956L153.90320072174075,40.76654336840849L155.90194358825684,40.23529100771361L157.90068645477294,39.89978984996131L159.89942932128906,39.63635312198471L161.8981721878052,39.38103566535909L163.89691505432128,39.26944741375826L165.8956579208374,39.09227337123798L167.8944007873535,38.9400416122931L169.89314365386963,38.9562248822412L171.89188652038575,38.749811331179046L173.89062938690185,38.6378500098609L175.88937225341797,38.5198829516211L177.88811511993407,38.49178702193748" fill="none"></path></g></g></g></g><g opacity="0.2"><g><g><g><path style="fill: none;" stroke="rgb(51, 187, 238)" stroke-width="2px" d="M19.987428665161133,159.46776164597767L19.987428665161133,159.9432325091406L21.986171531677247,152.23304172059866L23.98491439819336,143.23556882022712L25.983657264709475,135.89278703769244L27.98240013122559,129.44151192848648L29.9811429977417,123.52784643305264L31.979885864257813,118.4813709380634L33.97862873077393,113.84688400963415L35.97737159729004,109.72703457448814L37.97611446380615,105.74496955500382L39.974857330322266,102.2127056189904L41.973600196838376,98.91548071335718L43.972343063354494,95.79925510351327L45.971085929870604,93.46107043702348L47.96982879638672,91.05399960111181L49.96857166290283,88.40919257881755L51.96731452941895,86.2884872494507L53.96605739593506,84.20290130659838L55.96480026245118,82.46310686567458L57.96354312896729,80.73007544278656L59.9622859954834,79.34418007422231L61.96102886199951,77.80025551755465L63.959771728515626,76.32251192309455L65.95851459503174,75.36346765834514L67.95725746154785,74.57732317016598L69.95600032806396,73.35081764452424L71.95474319458008,72.45931499680151L73.95348606109619,71.67451506101757L75.9522289276123,70.78435696569007L77.95097179412842,70.43316310054482L79.94971466064453,48.294053204574595L81.94845752716064,42.00352054189827L83.94720039367675,38.90215344370327L85.94594326019288,36.969202376949596L87.94468612670899,35.38745322655308L89.9434289932251,34.121778554787284L91.94217185974121,33.35048855265106L93.94091472625732,32.599463450986434L95.93965759277344,31.934884212000924L97.93840045928954,31.359456042908903L99.93714332580566,30.877236754531822L101.93588619232177,30.223462241979718L103.9346290588379,29.947901461868298L105.933371925354,29.84524850953906L107.93211479187012,29.648034072887697L109.93085765838623,29.66559376614495L111.92960052490236,29.54672567295367L113.92834339141845,29.562932762603765L115.92708625793458,29.441367513410114L117.92582912445069,29.406248126895576L119.9245719909668,29.340059113476087L121.92331485748291,29.30223451974723L123.92205772399902,29.36166856634287L125.92080059051514,29.260360166408844L127.91954345703125,29.176611459732072L129.91828632354736,29.310342090178267L131.9170291900635,29.171209096515383L133.91577205657958,29.230643143111024L135.9145149230957,29.18607163377027L137.91325778961183,29.137442313608005L139.91200065612793,29.222543623891937L141.91074352264403,29.05775141775274L143.90948638916015,29.15500200686529L145.90822925567628,29.15364940325813L147.90697212219237,29.17931666694639L149.9057149887085,29.14824704004141L151.9044578552246,29.15500200686529L153.90320072174075,29.18066927055355L155.90194358825684,29.199581567417994L157.90068645477294,29.05775141775274L159.89942932128906,29.198228963810834L161.8981721878052,29.03748651728114L163.89691505432128,29.18202187416074L165.8956579208374,29.1495996436486L167.8944007873535,29.136089710000846L169.89314365386963,29.092870804267278L171.89188652038575,29.221191020284806L173.89062938690185,29.202278723420363L175.88937225341797,29.082058026621922L177.88811511993407,29.134745157605636L179.8868579864502,29.196876360203674L181.88560085296632,29.233348350325343L183.88434371948242,29.21443605346093L185.88308658599854,29.18336642655595L187.88182945251464,29.1495996436486L189.88057231903076,29.222543623891937L191.8793151855469,29.203631327027523L193.87805805206298,29.134745157605636L195.87680091857908,29.191473996986957L197.87554378509523,29.075311111009995L199.87428665161133,29.113127653526902L201.87302951812745,29.14824704004141L203.87177238464355,29.095567960269648L205.87051525115967,29.223888176287176L207.8692581176758,29.165806733298666L209.8680009841919,29.230643143111024L211.866743850708,29.099617719879177L213.86548671722412,29.18607163377027L215.86422958374024,29.165806733298666L217.86297245025634,29.113127653526902L219.86171531677246,29.11717741313643L221.86045818328856,29.203631327027523L223.8592010498047,29.164462180903485L225.8579439163208,29.1495996436486L227.8566867828369,29.250908043582598L229.85542964935303,29.160404370081977L231.85417251586915,29.11853001674359L233.85291538238525,29.24550568036591L235.85165824890137,29.103675530700656L237.85040111541747,29.195523756596515L239.8491439819336,29.111775049919743L241.84788684844972,29.176611459732072L243.84662971496581,29.165806733298666L245.84537258148194,29.27387010005657L247.84411544799804,29.21714126067525L249.84285831451416,29.171209096515383L251.84160118103028,29.15230485086289L253.84034404754638,29.188768789772638L255.8390869140625,29.092870804267278L257.8378297805786,29.082058026621922" fill="none"></path></g><g><path style="fill: none;" stroke="rgb(0, 119, 187)" stroke-width="2px" d="M19.987428665161133,160.93469711739934L21.986171531677247,157.98326635549856L23.98491439819336,152.48023204261045L25.983657264709475,146.41257705466785L27.98240013122559,140.81093627825518L29.9811429977417,135.57400533904442L31.979885864257813,130.65315290407034L33.97862873077393,126.45766233267858L35.97737159729004,122.16221596495997L37.97611446380615,118.53134883622684L39.974857330322266,114.73433689774734L41.973600196838376,111.66403942645734L43.972343063354494,108.2398388572018L45.971085929870604,105.20601337603348L47.96982879638672,102.5936245586454L49.96857166290283,100.05958208471738L51.96731452941895,97.76192319356478L53.96605739593506,95.53045331583169L55.96480026245118,93.72312128348719L57.96354312896729,91.39844655064512L59.9622859954834,90.30432710305433L61.96102886199951,88.07285319971527L63.959771728515626,87.06248245880124L65.95851459503174,85.5725815343006L67.95725746154785,84.55950558617224L69.95600032806396,83.37893222469037L71.95474319458008,83.06825205806442L73.95348606109619,81.31360313109768L75.9522289276123,80.70035841948875L77.95097179412842,79.63865315119816L79.94971466064453,78.64313689632708L81.94845752716064,56.192002281335675L83.94720039367675,48.07117150423494L85.94594326019288,43.29350182253327L87.94468612670899,40.098933894835255L89.9434289932251,37.19342862968446L91.94217185974121,34.85254680719228L93.94091472625732,33.40857804685149L95.93965759277344,31.836281019281216L97.93840045928954,30.97043758403484L99.93714332580566,30.109996512005125L101.93588619232177,29.4832418667485L103.9346290588379,29.187424237377428L105.933371925354,28.29996329805229L107.93211479187012,28.098699101791397L109.93085765838623,27.974428645383398L111.92960052490236,27.838000858934862L113.92834339141845,27.769114689512975L115.92708625793458,27.702925676093457L117.92582912445069,27.72453512896027L119.9245719909668,27.617824365809525L121.92331485748291,27.613774606199996L123.92205772399902,27.575950012471168L125.92080059051514,27.559742922821044L127.91954345703125,27.51381880987313L129.91828632354736,27.461139730101337L131.9170291900635,27.459787126494177L133.91577205657958,27.465189489710895L135.9145149230957,27.5097690502636L137.91325778961183,27.520573776696978L139.91200065612793,27.500308876225404L141.91074352264403,27.488151546184838L143.90948638916015,27.459787126494177L145.90822925567628,27.473297060141903L147.90697212219237,27.48005202696578L149.9057149887085,27.45303215967033L151.9044578552246,27.44898240006077L153.90320072174075,27.440874829629763L155.90194358825684,27.45303215967033L157.90068645477294,27.48005202696578L159.89942932128906,27.45033500366793L161.8981721878052,27.442227433236923L163.89691505432128,27.469239249320424L165.8956579208374,27.436825070020234L167.8944007873535,27.435472466413046L169.89314365386963,27.470591852927583L171.89188652038575,27.458434522887018L173.89062938690185,27.434119862805886L175.88937225341797,27.446277192846452L177.88811511993407,27.45438476327749" fill="none"></path></g><g><path style="fill: none;" stroke="rgb(204, 51, 17)" stroke-width="2px" d="M19.987428665161133,158.6302848948253L21.986171531677247,149.24108757356424L23.98491439819336,144.02982087883728L25.983657264709475,141.8875000581947L27.98240013122559,141.05812861306998L29.9811429977417,140.4854016255863L31.979885864257813,140.10178351712594L33.97862873077393,139.53040712044643L35.97737159729004,139.3926287431937L37.97611446380615,139.11166962547156L39.974857330322266,139.10356406784354L41.973600196838376,139.05493676048425L43.972343063354494,138.72129655018733L45.971085929870604,138.8577243366359L47.96982879638672,138.6361992655094L49.96857166290283,138.3876563398904L51.96731452941895,138.18909332523788L53.96605739593506,138.23637205459593L55.96480026245118,138.11885455220883L57.96354312896729,137.91083538912406L59.9622859954834,138.09318930132352L61.96102886199951,137.74198939776934L63.959771728515626,137.83519224007534L65.95851459503174,137.7284814769246L67.95725746154785,137.44752235920245L69.95600032806396,137.59340428128024L71.95474319458008,137.64068099783532L73.95348606109619,137.83654283087952L75.9522289276123,137.5636872579824L77.95097179412842,137.64338419224666L79.94971466064453,118.89470808262458L81.94845752716064,112.78787992295192L83.94720039367675,110.43078698520368L85.94594326019288,108.73692068283376L87.94468612670899,106.77965898160492L89.9434289932251,104.83589916281188L91.94217185974121,103.26630734245593L93.94091472625732,101.5224631419226L95.93965759277344,100.47426780727973L97.93840045928954,99.1518642961326L99.93714332580566,97.8753848979334L101.93588619232177,96.40034651068761L103.9346290588379,95.75467956856654L105.933371925354,94.75376095047876L107.93211479187012,93.77175060364944L109.93085765838623,92.94913412534859L111.92960052490236,92.40071777234006L113.92834339141845,91.68750921319231L115.92708625793458,91.2390567077226L117.92582912445069,90.56232013869655L119.9245719909668,89.78562777334362L121.92331485748291,89.51683001126801L123.92205772399902,89.24802419798044L125.92080059051514,88.76445230599622L127.91954345703125,88.45106693215594L129.91828632354736,64.12507074461128L131.9170291900635,55.084364848885215L133.91577205657958,49.970355788081264L135.9145149230957,45.903189458312994L137.91325778961183,42.60596052707382L139.91200065612793,39.59780230959376L141.91074352264403,37.304197203656656L143.90948638916015,35.333421543174154L145.90822925567628,33.392362905989444L147.90697212219237,32.10507878135684L149.9057149887085,30.909650933832012L151.9044578552246,30.180235285034172L153.90320072174075,28.57687668177087L155.90194358825684,28.168937874820443L157.90068645477294,27.97037888577387L159.89942932128906,27.84880558536824L161.8981721878052,27.76100711908194L163.89691505432128,27.715083006134023L165.8956579208374,27.57865521968546L167.8944007873535,27.575950012471168L169.89314365386963,27.48005202696578L171.89188652038575,27.41926537676298L173.89062938690185,27.35307636334346L175.88937225341797,27.32606454725996L177.88811511993407,27.320662184043243" fill="none"></path></g><g><path style="fill: none;" stroke="rgb(0, 153, 136)" stroke-width="2px" d="M19.987428665161133,156.8715834406449L21.986171531677247,144.87134965400256L23.98491439819336,135.68746905621603L25.983657264709475,128.98765504699708L27.98240013122559,123.7412679593541L29.9811429977417,119.68085257080374L31.979885864257813,116.10941948866625L33.97862873077393,113.74962536930965L35.97737159729004,110.69824019488406L37.97611446380615,109.09487756601479L39.974857330322266,106.73238226504985L41.973600196838376,105.00474515416661L43.972343063354494,103.87280111284697L45.971085929870604,102.64630363841717L47.96982879638672,100.47426780727973L49.96857166290283,99.18833628625428L51.96731452941895,98.31438528057687L53.96605739593506,96.71913022213862L55.96480026245118,95.94243785678569L57.96354312896729,95.15358816139221L59.9622859954834,94.38094555564882L61.96102886199951,93.89737366366458L63.959771728515626,92.14542189270021L65.95851459503174,91.47679289410519L67.95725746154785,90.33674128235454L69.95600032806396,89.53168449731095L71.95474319458008,88.83738823502763L73.95348606109619,87.94182777648341L75.9522289276123,87.1935078820331L77.95097179412842,86.87472014497612L79.94971466064453,85.69685199070857L81.94845752716064,84.8391161258932L83.94720039367675,83.78956818764318L85.94594326019288,83.54912679404627L87.94468612670899,82.82376895606991L89.9434289932251,82.1564845098701L91.94217185974121,81.15016352856561L93.94091472625732,80.57878511908314L95.93965759277344,79.70753932062004L97.93840045928954,79.09834436862066L99.93714332580566,78.66069658958433L101.93588619232177,77.84617963050256L103.9346290588379,77.25994673497713L105.933371925354,59.05563319314808L107.93211479187012,51.65476594201897L109.93085765838623,48.58716562673132L111.92960052490236,46.719050969789976L113.92834339141845,44.927938103913505L115.92708625793458,43.72034487513619L117.92582912445069,42.676199300102866L119.9245719909668,41.81306107207078L121.92331485748291,40.825652387630726L123.92205772399902,39.90982702861493L125.92080059051514,39.31819176987281L127.91954345703125,38.38886452842124L129.91828632354736,36.06553434797436L131.9170291900635,35.85752323610157L133.91577205657958,35.47795690005373L135.9145149230957,35.482006659663256L137.91325778961183,35.272634892971325L139.91200065612793,35.0227413765482L141.91074352264403,35.09568535679156L143.90948638916015,34.92413818382849L145.90822925567628,34.816074817070614L147.90697212219237,34.693156964269775L149.9057149887085,34.543219244173486L151.9044578552246,34.387879160860535L153.90320072174075,34.43245872141324L155.90194358825684,34.37707443442713L157.90068645477294,34.25415658162629L159.89942932128906,34.46893071153491L161.8981721878052,34.423006598586994L163.89691505432128,34.332502925086374L165.8956579208374,34.297383538571836L167.8944007873535,34.331150321479214L169.89314365386963,34.475685678358786L171.89188652038575,34.2487542184096L173.89062938690185,34.40274169811542L175.88937225341797,34.477030230753996L177.88811511993407,34.2487542184096" fill="none"></path></g><g><path style="fill: none;" stroke="rgb(238, 51, 119)" stroke-width="2px" d="M19.987428665161133,160.73208170133333L21.986171531677247,156.42853078238818L23.98491439819336,149.28566310851096L25.983657264709475,142.2454549285727L27.98240013122559,135.75906043285224L29.9811429977417,129.66168842161179L31.979885864257813,124.12218287340312L33.97862873077393,119.11893433535943L35.97737159729004,114.76135273943682L37.97611446380615,110.71309870653299L39.974857330322266,107.26728465880468L41.973600196838376,103.87415371645413L43.972343063354494,100.95243733604727L45.971085929870604,97.96183478621852L47.96982879638672,95.09280151118939L49.96857166290283,93.12743626513551L51.96731452941895,90.71090525518566L53.96605739593506,88.94274639457119L55.96480026245118,86.85311069210933L57.96354312896729,85.08630443510204L59.9622859954834,83.33435266413765L61.96102886199951,82.10515803370548L63.959771728515626,80.79760900860128L65.95851459503174,79.2550370555408L67.95725746154785,78.43781488924469L69.95600032806396,77.11136161848802L71.95474319458008,76.17392680660544L73.95348606109619,75.618763537985L75.9522289276123,74.45710247336753L77.95097179412842,73.56289461843049L79.94971466064453,72.98476124212414L81.94845752716064,72.23508874406664L83.94720039367675,71.71774201796312L85.94594326019288,70.99237612877481L87.94468612670899,70.41154559646608L89.9434289932251,69.8955514739697L91.94217185974121,69.42278430841885L93.94091472625732,69.07968996249271L95.93965759277344,68.83655141289343L97.93840045928954,68.43672017637402L99.93714332580566,67.97475773725658L101.93588619232177,67.56412177430377L103.9346290588379,67.58709188198966L105.933371925354,66.91980743578985L107.93211479187012,66.53754394373966L109.93085765838623,66.60102774994483L111.92960052490236,66.07287629740789L113.92834339141845,66.07827866062459L115.92708625793458,65.70951705101015L117.92582912445069,49.500285778532785L119.9245719909668,44.24174136084926L121.92331485748291,41.55101022560709L123.92205772399902,39.51675075891936L125.92080059051514,37.70672559617847L127.91954345703125,36.38837184464086L129.91828632354736,35.06867354070806L131.9170291900635,34.13933824804454L133.91577205657958,33.237030873888415L135.9145149230957,32.30364582161536L137.91325778961183,31.7903569063333L139.91200065612793,31.20952637402459L141.91074352264403,30.00058054164009L143.90948638916015,29.630474379630442L145.90822925567628,29.508901079224813L147.90697212219237,29.36166856634287L149.9057149887085,29.129334743176997L151.9044578552246,28.99696476754994L153.90320072174075,28.90916630126361L155.90194358825684,28.852429410670368L157.90068645477294,28.78083803403416L159.89942932128906,28.63495812475938L161.8981721878052,28.57281887094939L163.89691505432128,28.466108107798675L165.8956579208374,28.437743688108014L167.8944007873535,28.498530338310815L169.89314365386963,28.429636117676978L171.89188652038575,28.426938961674608L173.89062938690185,28.349945221821685L175.88937225341797,28.343190254997836L177.88811511993407,28.382359401121903" fill="none"></path></g><g><path style="fill: none;" stroke="rgb(255, 112, 67)" stroke-width="2px" d="M19.987428665161133,161.29400169798026L21.986171531677247,159.9283739974917L23.98491439819336,156.43258305800146L25.983657264709475,151.97504465935046L27.98240013122559,147.08120806606587L29.9811429977417,142.31704429240594L31.979885864257813,137.12468888814192L33.97862873077393,132.07010984832763L35.97737159729004,127.53557871622525L37.97611446380615,123.24283353011498L39.974857330322266,119.08786470845445L41.973600196838376,115.22466778216142L43.972343063354494,112.01118755759899L45.971085929870604,108.56267232826234L47.96982879638672,105.40052260547051L49.96857166290283,102.79218757329794L51.96731452941895,100.28650951906057L53.96605739593506,97.79434139847095L55.96480026245118,95.80735864833834L57.96354312896729,93.69610946740369L59.9622859954834,91.83474977728622L61.96102886199951,90.25029541967538L63.959771728515626,88.30518702288114L65.95851459503174,87.09354403449427L67.95725746154785,85.9075683097957L69.95600032806396,84.27314007962741L71.95474319458008,83.13174391548155L73.95348606109619,82.11596276013888L75.9522289276123,81.04885512863159L77.95097179412842,79.8601741967187L79.94971466064453,79.46575337462794L81.94845752716064,78.6782562828416L83.94720039367675,78.02043201067997L85.94594326019288,77.28426139505827L87.94468612670899,76.44138001628583L89.9434289932251,76.01048720407337L91.94217185974121,75.277021795666L93.94091472625732,74.70969314579305L95.93965759277344,73.89383163431606L97.93840045928954,73.80873032403214L99.93714332580566,55.43286960924L101.93588619232177,49.388172652165366L103.9346290588379,45.82754832206726L105.933371925354,42.94500511339044L107.93211479187012,40.5757588712076L109.93085765838623,38.63065047441333L111.92960052490236,37.13264197948166L113.92834339141845,35.700830549181404L115.92708625793458,34.4608231411039L117.92582912445069,33.5544579561263L119.9245719909668,32.783167953990045L121.92331485748291,32.24556437862688L123.92205772399902,30.322065434699454L125.92080059051514,29.891172622486977L127.91954345703125,29.55212803617036L129.91828632354736,29.2711729440542L131.9170291900635,29.06044857375511L133.91577205657958,28.902411334439762L135.9145149230957,28.826762146982077L137.91325778961183,28.644410247585597L139.91200065612793,28.533649724825324L141.91074352264403,28.39317217876723L143.90948638916015,28.30402110887377L145.90822925567628,28.17434828924908L147.90697212219237,28.18109520486101L149.9057149887085,28.125718969086847L151.9044578552246,28.139220851522623L153.90320072174075,28.14597581834647L155.90194358825684,28.15273078517035L157.90068645477294,28.05682474845301L159.89942932128906,28.070334682100736L161.8981721878052,28.105454068615273L163.89691505432128,28.097354549396186L165.8956579208374,28.05142238523632L167.8944007873535,28.043322866017235L169.89314365386963,28.05142238523632L171.89188652038575,28.00414566868122L173.89062938690185,28.02710772515519L175.88937225341797,28.040617658802915L177.88811511993407,28.02441056915282" fill="none"></path></g><g><path style="fill: none;" stroke="rgb(187, 187, 187)" stroke-width="2px" d="M19.987428665161133,158.10078335468495L21.986171531677247,149.6652294445588L23.98491439819336,145.4873005792273L25.983657264709475,143.4260262772516L27.98240013122559,141.75377345335448L29.9811429977417,140.93115496225064L31.979885864257813,140.3057488949952L33.97862873077393,139.4750268590663L35.97737159729004,139.13328109114133L37.97611446380615,138.69563331210503L39.974857330322266,138.64700399194277L41.973600196838376,138.36874605582898L43.972343063354494,138.06482286882988L45.971085929870604,138.1661312687639L47.96982879638672,137.75144554620155L49.96857166290283,138.0999442681474L51.96731452941895,137.6204201229697L53.96605739593506,137.70957119286317L55.96480026245118,137.51370935981896L57.96354312896729,137.6204201229697L59.9622859954834,137.57314340641463L61.96102886199951,137.64338419224666L63.959771728515626,137.61771894136135L65.95851459503174,137.34351277766007L67.95725746154785,137.71092178366735L69.95600032806396,137.4191559267088L71.95474319458008,137.6001592481041L73.95348606109619,137.20573440040735L75.9522289276123,118.24633593328917L77.95097179412842,112.06386663737078L79.94971466064453,109.383940228562L81.94845752716064,107.2348664538985L83.94720039367675,105.57612356364909L85.94594326019288,103.80256233981792L87.94468612670899,101.90068089996923L89.9434289932251,100.68363554836567L91.94217185974121,98.80471616499094L93.94091472625732,97.49717116549273L95.93965759277344,96.6637459351525L97.93840045928954,95.15358816139221L99.93714332580566,94.26478266967186L101.93588619232177,93.47593297427836L103.9346290588379,92.84917832902173L105.933371925354,92.04546609637335L107.93211479187012,91.2228496180725L109.93085765838623,90.73657251887394L111.92960052490236,90.07874824671231L113.92834339141845,89.73699845318137L115.92708625793458,89.17643282134424L117.92582912445069,89.04405479450523L119.9245719909668,88.53076587922317L121.92331485748291,87.92832589404763L123.92205772399902,87.91616856400708L125.92080059051514,87.56766380365228L127.91954345703125,86.7626070186087L129.91828632354736,86.84635572528546L131.9170291900635,86.49380925653307L133.91577205657958,86.27497731580297L135.9145149230957,86.0048269501202L137.91325778961183,85.79275802742589L139.91200065612793,62.97421440642722L141.91074352264403,54.20366692759589L143.90948638916015,49.73397220530583L145.90822925567628,46.07068687166654L147.90697212219237,43.42047748615559L149.9057149887085,41.17144388955927L151.9044578552246,39.129084903652455L153.90320072174075,37.76750419516932L155.90194358825684,36.61530330459007L157.90068645477294,35.76566695899376L159.89942932128906,35.1308047433061L161.8981721878052,34.57564147468565L163.89691505432128,30.9988020037255L165.8956579208374,29.84794566554143L167.8944007873535,29.450819636236332L169.89314365386963,29.171209096515383L171.89188652038575,28.855134617884687L173.89062938690185,28.722756591045652L175.88937225341797,28.656567577626163L177.88811511993407,28.459353140974798" fill="none"></path></g><g><path style="fill: none;" stroke="rgb(238, 51, 119)" stroke-width="2px" d="M19.987428665161133,158.8464078543355L21.986171531677247,150.42030933784045L23.98491439819336,141.31477508351398L25.983657264709475,133.55595497480982L27.98240013122559,127.80843428912235L29.9811429977417,123.42113566990191L31.979885864257813,119.62412373142242L33.97862873077393,116.23639112668259L35.97737159729004,113.56862204791437L37.97611446380615,110.95218347091675L39.974857330322266,108.50188970366551L41.973600196838376,106.80126843447174L43.972343063354494,104.94126134796143L45.971085929870604,103.74988326004615L47.96982879638672,101.92229035283603L49.96857166290283,100.96189348447948L51.96731452941895,99.39500284573188L53.96605739593506,98.28466825727905L55.96480026245118,97.52283440357503L57.96354312896729,96.53947547874452L59.9622859954834,95.8397768532445L61.96102886199951,94.13375724644L63.959771728515626,93.96490722947931L65.95851459503174,93.56508404417184L67.95725746154785,92.56010761526257L69.95600032806396,91.54298190752469L71.95474319458008,90.93648411152768L73.95348606109619,89.8315599375035L75.9522289276123,88.92248954531155L77.95097179412842,87.65005990672189L79.94971466064453,87.1840477079949L81.94845752716064,86.60997214251005L83.94720039367675,86.06426099671583L85.94594326019288,85.31728565466074L87.94468612670899,84.73240536274248L89.9434289932251,84.16507671286953L91.94217185974121,83.6652977312352L93.94091472625732,83.11688137822667L95.93965759277344,82.24563557976356L97.93840045928954,81.73369121687674L99.93714332580566,80.91513254939737L101.93588619232177,80.6571314625432L103.9346290588379,80.3180868762266L105.933371925354,79.5495020813047L107.93211479187012,78.94975925213154L109.93085765838623,78.48239444979741L111.92960052490236,78.23790329659096L113.92834339141845,77.87184689419085L115.92708625793458,77.26129933858431L117.92582912445069,76.78987672542868L119.9245719909668,75.94565079426104L121.92331485748291,75.8389400311103L123.92205772399902,74.981196115083L125.92080059051514,59.35414797852151L127.91954345703125,53.568804711908214L129.91828632354736,51.195500658903896L131.9170291900635,49.44355693915146L133.91577205657958,48.28865084135789L135.9145149230957,47.16751152647166L137.91325778961183,46.22062459176283L139.91200065612793,45.46013931605998L141.91074352264403,44.60374800363985L143.90948638916015,44.04047716458837L145.90822925567628,43.62849664924033L147.90697212219237,42.8220872605896L149.9057149887085,40.35963213769179L151.9044578552246,40.08002159797084L153.90320072174075,39.616706555246225L155.90194358825684,39.43841246667125L157.90068645477294,39.396538113332866L159.89942932128906,39.24119803001989L161.8981721878052,38.99805948042061L163.89691505432128,39.102065036357004L165.8956579208374,38.826512307457534L167.8944007873535,38.71169397387578L169.89314365386963,38.98049978716335L171.89188652038575,38.44019100458584L173.89062938690185,38.46990802788366L175.88937225341797,38.342932364261344L177.88811511993407,38.44964312741209" fill="none"></path></g></g></g></g></g></g><g transform="translate(50, 175)" clip-path="url(#clip_1)"><clipPath id="clip_1"><rect width="279" height="24"></rect></clipPath><g><g><line x1="0" y1="0" x2="0" y2="5" style="visibility: inherit;" fill="rgb(0, 0, 0)" stroke="rgb(204, 204, 204)" stroke-width="1px"></line><line x1="19.987428665161133" y1="0" x2="19.987428665161133" y2="5" style="visibility: inherit;" fill="rgb(0, 0, 0)" stroke="rgb(204, 204, 204)" stroke-width="1px"></line><line x1="39.974857330322266" y1="0" x2="39.974857330322266" y2="5" style="visibility: inherit;" fill="rgb(0, 0, 0)" stroke="rgb(204, 204, 204)" stroke-width="1px"></line><line x1="59.9622859954834" y1="0" x2="59.9622859954834" y2="5" style="visibility: inherit;" fill="rgb(0, 0, 0)" stroke="rgb(204, 204, 204)" stroke-width="1px"></line><line x1="79.94971466064453" y1="0" x2="79.94971466064453" y2="5" style="visibility: inherit;" fill="rgb(0, 0, 0)" stroke="rgb(204, 204, 204)" stroke-width="1px"></line><line x1="99.93714332580566" y1="0" x2="99.93714332580566" y2="5" style="visibility: inherit;" fill="rgb(0, 0, 0)" stroke="rgb(204, 204, 204)" stroke-width="1px"></line><line x1="119.9245719909668" y1="0" x2="119.9245719909668" y2="5" style="visibility: inherit;" fill="rgb(0, 0, 0)" stroke="rgb(204, 204, 204)" stroke-width="1px"></line><line x1="139.91200065612793" y1="0" x2="139.91200065612793" y2="5" style="visibility: inherit;" fill="rgb(0, 0, 0)" stroke="rgb(204, 204, 204)" stroke-width="1px"></line><line x1="159.89942932128906" y1="0" x2="159.89942932128906" y2="5" style="visibility: inherit;" fill="rgb(0, 0, 0)" stroke="rgb(204, 204, 204)" stroke-width="1px"></line><line x1="179.8868579864502" y1="0" x2="179.8868579864502" y2="5" style="visibility: inherit;" fill="rgb(0, 0, 0)" stroke="rgb(204, 204, 204)" stroke-width="1px"></line><line x1="199.87428665161133" y1="0" x2="199.87428665161133" y2="5" style="visibility: inherit;" fill="rgb(0, 0, 0)" stroke="rgb(204, 204, 204)" stroke-width="1px"></line><line x1="219.86171531677246" y1="0" x2="219.86171531677246" y2="5" style="visibility: inherit;" fill="rgb(0, 0, 0)" stroke="rgb(204, 204, 204)" stroke-width="1px"></line><line x1="239.8491439819336" y1="0" x2="239.8491439819336" y2="5" style="visibility: inherit;" fill="rgb(0, 0, 0)" stroke="rgb(204, 204, 204)" stroke-width="1px"></line><line x1="259.8365726470947" y1="0" x2="259.8365726470947" y2="5" style="visibility: inherit;" fill="rgb(0, 0, 0)" stroke="rgb(204, 204, 204)" stroke-width="1px"></line><line x1="279.82400131225586" y1="0" x2="279.82400131225586" y2="5" style="visibility: inherit;" fill="rgb(0, 0, 0)" stroke="rgb(204, 204, 204)" stroke-width="1px"></line></g><g transform="translate(0, 8)"><text style="text-anchor: middle; visibility: hidden; font-family: &quot;Helvetica Neue&quot;, sans-serif; font-size: 12px; font-weight: 200;" x="0" y="0" dx="0em" dy="0.95em" fill="rgb(50, 49, 63)" stroke="none" stroke-width="1px">-10</text><text style="text-anchor: middle; visibility: inherit; font-family: &quot;Helvetica Neue&quot;, sans-serif; font-size: 12px; font-weight: 200;" x="19.987428665161133" y="0" dx="0em" dy="0.95em" fill="rgb(50, 49, 63)" stroke="none" stroke-width="1px">0</text><text style="text-anchor: middle; visibility: hidden; font-family: &quot;Helvetica Neue&quot;, sans-serif; font-size: 12px; font-weight: 200;" x="39.974857330322266" y="0" dx="0em" dy="0.95em" fill="rgb(50, 49, 63)" stroke="none" stroke-width="1px">10</text><text style="text-anchor: middle; visibility: inherit; font-family: &quot;Helvetica Neue&quot;, sans-serif; font-size: 12px; font-weight: 200;" x="59.9622859954834" y="0" dx="0em" dy="0.95em" fill="rgb(50, 49, 63)" stroke="none" stroke-width="1px">20</text><text style="text-anchor: middle; visibility: hidden; font-family: &quot;Helvetica Neue&quot;, sans-serif; font-size: 12px; font-weight: 200;" x="79.94971466064453" y="0" dx="0em" dy="0.95em" fill="rgb(50, 49, 63)" stroke="none" stroke-width="1px">30</text><text style="text-anchor: middle; visibility: inherit; font-family: &quot;Helvetica Neue&quot;, sans-serif; font-size: 12px; font-weight: 200;" x="99.93714332580566" y="0" dx="0em" dy="0.95em" fill="rgb(50, 49, 63)" stroke="none" stroke-width="1px">40</text><text style="text-anchor: middle; visibility: hidden; font-family: &quot;Helvetica Neue&quot;, sans-serif; font-size: 12px; font-weight: 200;" x="119.9245719909668" y="0" dx="0em" dy="0.95em" fill="rgb(50, 49, 63)" stroke="none" stroke-width="1px">50</text><text style="text-anchor: middle; visibility: inherit; font-family: &quot;Helvetica Neue&quot;, sans-serif; font-size: 12px; font-weight: 200;" x="139.91200065612793" y="0" dx="0em" dy="0.95em" fill="rgb(50, 49, 63)" stroke="none" stroke-width="1px">60</text><text style="text-anchor: middle; visibility: hidden; font-family: &quot;Helvetica Neue&quot;, sans-serif; font-size: 12px; font-weight: 200;" x="159.89942932128906" y="0" dx="0em" dy="0.95em" fill="rgb(50, 49, 63)" stroke="none" stroke-width="1px">70</text><text style="text-anchor: middle; visibility: inherit; font-family: &quot;Helvetica Neue&quot;, sans-serif; font-size: 12px; font-weight: 200;" x="179.8868579864502" y="0" dx="0em" dy="0.95em" fill="rgb(50, 49, 63)" stroke="none" stroke-width="1px">80</text><text style="text-anchor: middle; visibility: hidden; font-family: &quot;Helvetica Neue&quot;, sans-serif; font-size: 12px; font-weight: 200;" x="199.87428665161133" y="0" dx="0em" dy="0.95em" fill="rgb(50, 49, 63)" stroke="none" stroke-width="1px">90</text><text style="text-anchor: middle; visibility: inherit; font-family: &quot;Helvetica Neue&quot;, sans-serif; font-size: 12px; font-weight: 200;" x="219.86171531677246" y="0" dx="0em" dy="0.95em" fill="rgb(50, 49, 63)" stroke="none" stroke-width="1px">100</text><text style="text-anchor: middle; visibility: hidden; font-family: &quot;Helvetica Neue&quot;, sans-serif; font-size: 12px; font-weight: 200;" x="239.8491439819336" y="0" dx="0em" dy="0.95em" fill="rgb(50, 49, 63)" stroke="none" stroke-width="1px">110</text><text style="text-anchor: middle; visibility: inherit; font-family: &quot;Helvetica Neue&quot;, sans-serif; font-size: 12px; font-weight: 200;" x="259.8365726470947" y="0" dx="0em" dy="0.95em" fill="rgb(50, 49, 63)" stroke="none" stroke-width="1px">120</text><text style="text-anchor: middle; visibility: hidden; font-family: &quot;Helvetica Neue&quot;, sans-serif; font-size: 12px; font-weight: 200;" x="279.82400131225586" y="0" dx="0em" dy="0.95em" fill="rgb(50, 49, 63)" stroke="none" stroke-width="1px">130</text></g><line x1="0" y1="0" x2="279.82400131225586" y2="0" fill="rgb(0, 0, 0)" stroke="rgb(204, 204, 204)" stroke-width="1px"></line></g></g></g></g></svg>