<svg viewBox="0 0 330 200" xmlns="http://www.w3.org/2000/svg"><g><g><g><g><g><line x1="58.59375" y1="177" x2="53.59375" y2="177" style="visibility: inherit;" fill="rgb(0, 0, 0)" stroke="rgb(204, 204, 204)" stroke-width="1px"></line><line x1="58.59375" y1="154.875" x2="53.59375" y2="154.875" style="visibility: inherit;" fill="rgb(0, 0, 0)" stroke="rgb(204, 204, 204)" stroke-width="1px"></line><line x1="58.59375" y1="132.75" x2="53.59375" y2="132.75" style="visibility: inherit;" fill="rgb(0, 0, 0)" stroke="rgb(204, 204, 204)" stroke-width="1px"></line><line x1="58.59375" y1="110.625" x2="53.59375" y2="110.625" style="visibility: inherit;" fill="rgb(0, 0, 0)" stroke="rgb(204, 204, 204)" stroke-width="1px"></line><line x1="58.59375" y1="88.5" x2="53.59375" y2="88.5" style="visibility: inherit;" fill="rgb(0, 0, 0)" stroke="rgb(204, 204, 204)" stroke-width="1px"></line><line x1="58.59375" y1="66.375" x2="53.59375" y2="66.375" style="visibility: inherit;" fill="rgb(0, 0, 0)" stroke="rgb(204, 204, 204)" stroke-width="1px"></line><line x1="58.59375" y1="44.25" x2="53.59375" y2="44.25" style="visibility: inherit;" fill="rgb(0, 0, 0)" stroke="rgb(204, 204, 204)" stroke-width="1px"></line><line x1="58.59375" y1="22.125" x2="53.59375" y2="22.125" style="visibility: inherit;" fill="rgb(0, 0, 0)" stroke="rgb(204, 204, 204)" stroke-width="1px"></line><line x1="58.59375" y1="0" x2="53.59375" y2="0" style="visibility: inherit;" fill="rgb(0, 0, 0)" stroke="rgb(204, 204, 204)" stroke-width="1px"></line></g><g transform="translate(48.59375, 0)"><text x="0" y="177" dx="0em" dy="0.3em" style="text-anchor: end; visibility: hidden; font-family: &quot;Helvetica Neue&quot;, sans-serif; font-size: 12px; font-weight: 200;" fill="rgb(50, 49, 63)" stroke="none" stroke-width="1px">-1e+3</text><text x="0" y="154.875" dx="0em" dy="0.3em" style="text-anchor: end; visibility: inherit; font-family: &quot;Helvetica Neue&quot;, sans-serif; font-size: 12px; font-weight: 200;" fill="rgb(50, 49, 63)" stroke="none" stroke-width="1px">0</text><text x="0" y="132.75" dx="0em" dy="0.3em" style="text-anchor: end; visibility: hidden; font-family: &quot;Helvetica Neue&quot;, sans-serif; font-size: 12px; font-weight: 200;" fill="rgb(50, 49, 63)" stroke="none" stroke-width="1px">1e+3</text><text x="0" y="110.625" dx="0em" dy="0.3em" style="text-anchor: end; visibility: inherit; font-family: &quot;Helvetica Neue&quot;, sans-serif; font-size: 12px; font-weight: 200;" fill="rgb(50, 49, 63)" stroke="none" stroke-width="1px">2e+3</text><text x="0" y="88.5" dx="0em" dy="0.3em" style="text-anchor: end; visibility: hidden; font-family: &quot;Helvetica Neue&quot;, sans-serif; font-size: 12px; font-weight: 200;" fill="rgb(50, 49, 63)" stroke="none" stroke-width="1px">3e+3</text><text x="0" y="66.375" dx="0em" dy="0.3em" style="text-anchor: end; visibility: inherit; font-family: &quot;Helvetica Neue&quot;, sans-serif; font-size: 12px; font-weight: 200;" fill="rgb(50, 49, 63)" stroke="none" stroke-width="1px">4e+3</text><text x="0" y="44.25" dx="0em" dy="0.3em" style="text-anchor: end; visibility: hidden; font-family: &quot;Helvetica Neue&quot;, sans-serif; font-size: 12px; font-weight: 200;" fill="rgb(50, 49, 63)" stroke="none" stroke-width="1px">5e+3</text><text x="0" y="22.125" dx="0em" dy="0.3em" style="text-anchor: end; visibility: inherit; font-family: &quot;Helvetica Neue&quot;, sans-serif; font-size: 12px; font-weight: 200;" fill="rgb(50, 49, 63)" stroke="none" stroke-width="1px">6e+3</text><text x="0" y="0" dx="0em" dy="0.3em" style="text-anchor: end; visibility: hidden; font-family: &quot;Helvetica Neue&quot;, sans-serif; font-size: 12px; font-weight: 200;" fill="rgb(50, 49, 63)" stroke="none" stroke-width="1px">7e+3</text></g><line x1="58.59375" y1="0" x2="58.59375" y2="177" fill="rgb(0, 0, 0)" stroke="rgb(204, 204, 204)" stroke-width="1px"></line></g></g><g transform="translate(58, 0)" clip-path="url(#clip_0)"><clipPath id="clip_0"><rect width="271" height="176"></rect></clipPath><g><g><g><line x1="0" y1="0" x2="0" y2="177" fill="rgb(0, 0, 0)" stroke="rgb(60, 60, 60)" stroke-width="1px" opacity="0.25"></line><line x1="19.38616071428571" y1="0" x2="19.38616071428571" y2="177" fill="rgb(0, 0, 0)" stroke="rgb(60, 60, 60)" stroke-width="1px" opacity="0.25"></line><line x1="38.77232142857142" y1="0" x2="38.77232142857142" y2="177" fill="rgb(0, 0, 0)" stroke="rgb(60, 60, 60)" stroke-width="1px" opacity="0.25"></line><line x1="58.15848214285714" y1="0" x2="58.15848214285714" y2="177" fill="rgb(0, 0, 0)" stroke="rgb(60, 60, 60)" stroke-width="1px" opacity="0.25"></line><line x1="77.54464285714285" y1="0" x2="77.54464285714285" y2="177" fill="rgb(0, 0, 0)" stroke="rgb(60, 60, 60)" stroke-width="1px" opacity="0.25"></line><line x1="96.93080357142857" y1="0" x2="96.93080357142857" y2="177" fill="rgb(0, 0, 0)" stroke="rgb(60, 60, 60)" stroke-width="1px" opacity="0.25"></line><line x1="116.31696428571428" y1="0" x2="116.31696428571428" y2="177" fill="rgb(0, 0, 0)" stroke="rgb(60, 60, 60)" stroke-width="1px" opacity="0.25"></line><line x1="135.703125" y1="0" x2="135.703125" y2="177" fill="rgb(0, 0, 0)" stroke="rgb(60, 60, 60)" stroke-width="1px" opacity="0.25"></line><line x1="155.0892857142857" y1="0" x2="155.0892857142857" y2="177" fill="rgb(0, 0, 0)" stroke="rgb(60, 60, 60)" stroke-width="1px" opacity="0.25"></line><line x1="174.47544642857144" y1="0" x2="174.47544642857144" y2="177" fill="rgb(0, 0, 0)" stroke="rgb(60, 60, 60)" stroke-width="1px" opacity="0.25"></line><line x1="193.86160714285714" y1="0" x2="193.86160714285714" y2="177" fill="rgb(0, 0, 0)" stroke="rgb(60, 60, 60)" stroke-width="1px" opacity="0.25"></line><line x1="213.24776785714286" y1="0" x2="213.24776785714286" y2="177" fill="rgb(0, 0, 0)" stroke="rgb(60, 60, 60)" stroke-width="1px" opacity="0.25"></line><line x1="232.63392857142856" y1="0" x2="232.63392857142856" y2="177" fill="rgb(0, 0, 0)" stroke="rgb(60, 60, 60)" stroke-width="1px" opacity="0.25"></line><line x1="252.0200892857143" y1="0" x2="252.0200892857143" y2="177" fill="rgb(0, 0, 0)" stroke="rgb(60, 60, 60)" stroke-width="1px" opacity="0.25"></line><line x1="271.40625" y1="0" x2="271.40625" y2="177" fill="rgb(0, 0, 0)" stroke="rgb(60, 60, 60)" stroke-width="1px" opacity="0.25"></line></g><g><line x1="0" y1="177" x2="271.40625" y2="177" fill="rgb(0, 0, 0)" stroke="rgb(60, 60, 60)" stroke-width="1px" opacity="0.25"></line><line x1="0" y1="154.875" x2="271.40625" y2="154.875" fill="rgb(0, 0, 0)" stroke="rgb(60, 60, 60)" stroke-width="1px" opacity="0.25"></line><line x1="0" y1="132.75" x2="271.40625" y2="132.75" fill="rgb(0, 0, 0)" stroke="rgb(60, 60, 60)" stroke-width="1px" opacity="0.25"></line><line x1="0" y1="110.625" x2="271.40625" y2="110.625" fill="rgb(0, 0, 0)" stroke="rgb(60, 60, 60)" stroke-width="1px" opacity="0.25"></line><line x1="0" y1="88.5" x2="271.40625" y2="88.5" fill="rgb(0, 0, 0)" stroke="rgb(60, 60, 60)" stroke-width="1px" opacity="0.25"></line><line x1="0" y1="66.375" x2="271.40625" y2="66.375" fill="rgb(0, 0, 0)" stroke="rgb(60, 60, 60)" stroke-width="1px" opacity="0.25"></line><line x1="0" y1="44.25" x2="271.40625" y2="44.25" fill="rgb(0, 0, 0)" stroke="rgb(60, 60, 60)" stroke-width="1px" opacity="0.25"></line><line x1="0" y1="22.125" x2="271.40625" y2="22.125" fill="rgb(0, 0, 0)" stroke="rgb(60, 60, 60)" stroke-width="1px" opacity="0.25"></line><line x1="0" y1="0" x2="271.40625" y2="0" fill="rgb(0, 0, 0)" stroke="rgb(60, 60, 60)" stroke-width="1px" opacity="0.25"></line></g></g></g><g><g><line x1="0" y1="154.875" x2="271.40625" y2="154.875" fill="rgb(0, 0, 0)" stroke="rgb(153, 153, 153)" stroke-width="1.5px"></line></g></g><g><g><line x1="19.38616071428571" y1="0" x2="19.38616071428571" y2="177" fill="rgb(0, 0, 0)" stroke="rgb(153, 153, 153)" stroke-width="1.5px"></line></g></g><g><g><g><g><g><path stroke="rgb(51, 187, 238)" stroke-width="2px" d="M21.324776785714285,-10.819279993174007L23.263392857142858,3.1674048735674774L25.20200892857143,15.56745899915731L27.140625,26.23433864278823L29.07924107142857,35.64930380000101L31.017857142857142,43.86964599300245L32.956473214285715,51.19228907016526L34.895089285714285,57.62734115093561L36.833705357142854,63.36924080877145L38.77232142857142,68.52081821123633L40.7109375,73.29879405113554L42.64955357142857,77.62724409238226L44.588169642857146,81.34658853367797L46.526785714285715,84.78800912682284L48.465401785714285,88.03177996538281L50.40401785714286,90.98874416729217L52.34263392857143,93.68709325112366L54.28125,96.13989197897956L56.21986607142858,98.49042279822957L58.15848214285714,100.51068355364544L60.09709821428571,102.24512835843068L62.035714285714285,103.91125281750628L63.974330357142854,105.38961243649149L65.91294642857143,106.70192967361287L67.8515625,108.00426768201999L69.79017857142857,109.17988595273441L71.72879464285714,110.20094834190073L73.66741071428571,111.2080523332536L75.60602678571429,111.98409125020379L77.54464285714285,121.37616425004694L79.48325892857143,129.45171740489L81.421875,135.43020369924665L83.36049107142858,139.76516548254563L85.29910714285714,142.93371493042446L87.23772321428572,145.3222992214499L89.17633928571429,147.0185536327964L91.11495535714285,148.30857381997254L93.05357142857143,149.3063657754035L94.9921875,150.10252264276053L96.93080357142857,150.74070498229523L98.86941964285714,151.3426928706087L100.80803571428572,151.7892377469787L102.74665178571428,152.08776986493885L104.68526785714286,152.3170545753039L106.62388392857143,152.4452554964231L108.5625,152.58205142522203L110.50111607142857,152.6787768020187L112.43973214285715,152.76832354314126L114.37834821428571,152.82658448500064L116.31696428571428,152.87654848190934L118.25558035714286,152.94041611688618L120.19419642857142,152.95817843523793L122.1328125,152.97647188162313L124.07142857142857,153.01553112930958L126.01004464285715,153.0193592339212L127.94866071428571,153.03287436565483L129.88727678571428,153.05469928369953L131.82589285714286,153.06734198461794L133.76450892857144,153.07857781154408L135.703125,153.07877593077714L137.64174107142856,153.11574540503915L139.58035714285714,153.1040571635252L141.51897321428572,153.1072753431133L143.45758928571428,153.0750531453211L145.39620535714286,153.09009054960723L147.33482142857142,153.09865088432974L149.2734375,153.09747462712494L151.21205357142858,153.09205961300592L153.15066964285714,153.11581933637655L155.0892857142857,153.09810512607214L157.0279017857143,153.12702436218808L158.96651785714286,153.11492787185998L160.90513392857142,153.10591755990797L162.84375,153.1164660445965L164.78236607142856,153.13360787840585L166.72098214285717,153.10487113077582L168.65959821428572,153.10158839883292L170.59821428571428,153.1275793904655L172.53683035714283,153.11258520065505L174.47544642857144,153.10621069642758L176.4140625,153.09407460206063L178.35267857142858,153.08335549503155L180.29129464285714,153.08295492986196L182.2299107142857,153.08871868431183L184.1685267857143,153.08766929232843L186.10714285714286,153.0883916804538L188.04575892857142,153.09868724025165L189.984375,153.1009105966382L191.92299107142858,153.11847037569837L193.86160714285714,153.11991013221834L195.80022321428572,153.1023489548498L197.73883928571428,153.12713905659518L199.67745535714286,153.10544427647113L201.61607142857144,153.09923857020092L203.5546875,153.08825841922015L205.49330357142856,153.10602734195263L207.43191964285714,153.11280655753058L209.37053571428572,153.10863291599418L211.30915178571428,153.1280785163049L213.24776785714286,153.1077631383779L215.18638392857142,153.09721924243226L217.125,153.08017934895668L219.06361607142858,153.08917265797325L221.00223214285714,153.07110721722046L222.9408482142857,153.08794742969752L224.8794642857143,153.10355856745292L226.81808035714286,153.0822867704919L228.75669642857142,153.10520552138632L230.6953125,153.09954830978003L232.63392857142856,153.1021572661262L234.57254464285717,153.09317585877545L236.51116071428572,153.08118300435524L238.44977678571428,153.0672456081246L240.38839285714283,153.0726975887975L242.32700892857144,153.0843597077585L244.265625,153.10320905967095L246.20424107142858,153.10432947632992L248.14285714285714,153.10801501520467L250.0814732142857,153.12499528918264" style="fill: none;" fill="none"></path></g><g><path stroke="rgb(0, 119, 187)" stroke-width="2px" d="M23.263392857142858,-7.973293347417098L25.20200892857143,2.8022345002118243L27.140625,12.540003578752533L29.07924107142857,21.104336679222996L31.017857142857142,28.901694329592715L32.956473214285715,35.87309691542575L34.895089285714285,42.210881689001326L36.833705357142854,47.87447454481389L38.77232142857142,53.15600487456925L40.7109375,57.93073157289956L42.64955357142857,62.43969967310977L44.588169642857146,66.57669519750694L46.526785714285715,70.35498055002093L48.465401785714285,73.82798520484737L50.40401785714286,76.99976978475055L52.34263392857143,80.00500859888736L54.28125,82.57870541046456L56.21986607142858,85.2179599149449L58.15848214285714,87.34539424924832L60.09709821428571,89.60470863322125L62.035714285714285,91.43989757092368L63.974330357142854,93.2139116579821L65.91294642857143,94.76128065425779L67.8515625,96.23458230710528L69.79017857142857,97.22170448392868L71.72879464285714,98.51545242771144L73.66741071428571,99.5032386662863L75.60602678571429,100.55546208473467L77.54464285714285,101.66205574235076L79.48325892857143,111.85262815903147L81.421875,121.29356870976775L83.36049107142858,128.67997743602513L85.29910714285714,134.37643645883324L87.23772321428572,138.88074006812155L89.17633928571429,142.38726562934608L91.11495535714285,145.11443669486306L93.05357142857143,147.25938881155255L94.9921875,148.8900490781433L96.93080357142857,150.1798775012805L98.86941964285714,151.14785033088498L100.80803571428572,151.86975038161603L102.74665178571428,152.56088217221983L104.68526785714286,153.04457007219628L106.62388392857143,153.39125709746995L108.5625,153.6348598882213L110.50111607142857,153.80407958974354L112.43973214285715,153.93083680051683L114.37834821428571,154.01930274692916L116.31696428571428,154.09280771465183L118.25558035714286,154.15050477859444L120.19419642857142,154.19441630356954L122.1328125,154.22926464582355L124.07142857142857,154.2626882731013L126.01004464285715,154.29913428048448L127.94866071428571,154.320190613533L129.88727678571428,154.33139464060363L131.82589285714286,154.33399368619857L133.76450892857144,154.3295811595913L135.703125,154.33596306152322L137.64174107142856,154.3437119663428L139.58035714285714,154.35027351340477L141.51897321428572,154.35048386998668L143.45758928571428,154.34838509270963L145.39620535714286,154.3566507745589L147.33482142857142,154.35888638739615L149.2734375,154.3639783132841L151.21205357142858,154.35994851283846L153.15066964285714,154.36148898399244L155.0892857142857,154.36488990547878L157.0279017857143,154.36285419990196L158.96651785714286,154.35699086810095L160.90513392857142,154.36151953125562L162.84375,154.37043887615542L164.78236607142856,154.36054242639744L166.72098214285717,154.36235051782728L168.65959821428572,154.36268139214397L170.59821428571428,154.36800349699902L172.53683035714283,154.36613570329814" style="fill: none;" fill="none"></path></g><g><path stroke="rgb(204, 51, 17)" stroke-width="2px" d="M19.38616071428571,66.00063052368164L21.324776785714285,74.81802167129516L23.263392857142858,79.98351609771106L25.20200892857143,83.061883927177L27.140625,84.91023520223604L29.07924107142857,86.182477111337L31.017857142857142,87.00731747252708L32.956473214285715,87.66305960914282L34.895089285714285,88.08478444965765L36.833705357142854,88.3788911592731L38.77232142857142,88.66996588922034L40.7109375,88.82193120296628L42.64955357142857,88.96019835368472L44.588169642857146,89.05415740073342L46.526785714285715,89.19927374374289L48.465401785714285,89.38033820249615L50.40401785714286,89.52577860171047L52.34263392857143,89.63389238666306L54.28125,89.78042016647488L56.21986607142858,89.87335912336873L58.15848214285714,89.93149492317153L60.09709821428571,90.00563717538134L62.035714285714285,89.9854144087071L63.974330357142854,90.04131770894354L65.91294642857143,90.11263633593953L67.8515625,90.15552461153968L69.79017857142857,90.17781345916983L71.72879464285714,90.14711173828877L73.66741071428571,90.17760772803784L75.60602678571429,90.20929699246118L77.54464285714285,95.91502183560965L79.48325892857143,101.04620822409501L81.421875,104.77950005169387L83.36049107142858,107.49418161514281L85.29910714285714,109.60895187653384L87.23772321428572,111.3479151685149L89.17633928571429,112.82951829973119L91.11495535714285,114.13079921098898L93.05357142857143,115.28613277013417L94.9921875,116.2809469973947L96.93080357142857,117.20610117647377L98.86941964285714,118.05306326976839L100.80803571428572,118.79257857486753L102.74665178571428,119.45184986109918L104.68526785714286,120.06772383273916L106.62388392857143,120.67647801916388L108.5625,121.20212921874456L110.50111607142857,121.65741194898158L112.43973214285715,122.06844583272456L114.37834821428571,122.47493549280208L116.31696428571428,122.83383499563415L118.25558035714286,123.17466925299672L120.19419642857142,123.50828128202323L122.1328125,123.81146046843301L124.07142857142857,124.0622450066459L126.01004464285715,128.85525860372078L127.94866071428571,133.55346941394254L129.88727678571428,137.3520294297381L131.82589285714286,140.4010598026185L133.76450892857144,142.84836483512345L135.703125,144.85741916962883L137.64174107142856,146.50201006348385L139.58035714285714,147.87842603778515L141.51897321428572,149.03591308650778L143.45758928571428,149.98773524356727L145.39620535714286,150.7880719772866L147.33482142857142,151.42971143512074L149.2734375,152.12235441615667L151.21205357142858,152.62389212967446L153.15066964285714,152.9674941380113L155.0892857142857,153.20441856608926L157.0279017857143,153.36047724057516L158.96651785714286,153.47229362755587L160.90513392857142,153.5684385582779L162.84375,153.63726144486512L164.78236607142856,153.69757833527234L166.72098214285717,153.7429062066001L168.65959821428572,153.78347995233074L170.59821428571428,153.8206473549815L172.53683035714283,153.84276829427552" style="fill: none;" fill="none"></path></g><g><path stroke="rgb(0, 153, 136)" stroke-width="2px" d="M19.38616071428571,132.81609006500244L21.324776785714285,135.68133596992493L23.263392857142858,137.5867645283913L25.20200892857143,139.00705891396018L27.140625,140.12161107241056L29.07924107142857,141.0379049905271L31.017857142857142,141.7835022033647L32.956473214285715,142.39778420227123L34.895089285714285,142.9498255668317L36.833705357142854,143.4031178106518L38.77232142857142,143.80369214982903L40.7109375,144.15619316085014L42.64955357142857,144.44324450268894L44.588169642857146,144.68102109935683L46.526785714285715,144.95768881090197L48.465401785714285,145.19540464688689L50.40401785714286,145.4184599522082L52.34263392857143,145.61955287166907L54.28125,145.81182825394225L56.21986607142858,145.97211742003L58.15848214285714,146.11063943162546L60.09709821428571,146.23301201221773L62.035714285714285,146.39833556982552L63.974330357142854,146.5533623486881L65.91294642857143,146.7028830122219L67.8515625,146.83919815967388L69.79017857142857,146.96015125226467L71.72879464285714,147.0814064309845L73.66741071428571,147.21357777722417L75.60602678571429,147.31903192066574L77.54464285714285,147.45080007350322L79.48325892857143,147.5660909144836L81.421875,147.70423616081666L83.36049107142858,147.80119855351612L85.29910714285714,147.90444460232936L87.23772321428572,148.0093693412152L89.17633928571429,148.1261779790482L91.11495535714285,148.2288364981983L93.05357142857143,148.3408278330064L94.9921875,148.43956723368825L96.93080357142857,148.53040273805192L98.86941964285714,148.62370840618172L100.80803571428572,148.72060172067793L102.74665178571428,149.5901102360486L104.68526785714286,150.43042412282614L106.62388392857143,151.06194855485077L108.5625,151.52305365937121L110.50111607142857,151.87398698727185L112.43973214285715,152.13599861479094L114.37834821428571,152.34241906442983L116.31696428571428,152.5077953435354L118.25558035714286,152.6508959015715L120.19419642857142,152.77184476597972L122.1328125,152.87515566749505L124.07142857142857,152.9753407832333L126.01004464285715,153.1183842093199L127.94866071428571,153.2150855316192L129.88727678571428,153.28317168754756L131.82589285714286,153.3282760021831L133.76450892857144,153.36046438251407L135.703125,153.38742204114482L137.64174107142856,153.40241692440918L139.58035714285714,153.41886260886912L141.51897321428572,153.43270668580487L143.45758928571428,153.44582012716745L145.39620535714286,153.45878950748332L147.33482142857142,153.4727022683709L149.2734375,153.4832910534435L151.21205357142858,153.489539870828L153.15066964285714,153.49350664363482L155.0892857142857,153.4917584921013L157.0279017857143,153.4946799543077L158.96651785714286,153.49801786695565L160.90513392857142,153.49945580855993L162.84375,153.50063679594987L164.78236607142856,153.5002181396198L166.72098214285717,153.50230743025014L168.65959821428572,153.5003822238819L170.59821428571428,153.49887954013207L172.53683035714283,153.50189625873958" style="fill: none;" fill="none"></path></g><g><path stroke="rgb(238, 51, 119)" stroke-width="2px" d="M25.20200892857143,-0.6260228031382837L27.140625,8.101940810723079L29.07924107142857,16.007758322931892L31.017857142857142,23.150612291190924L32.956473214285715,29.63761550037242L34.895089285714285,35.48510570661935L36.833705357142854,40.76166099679878L38.77232142857142,45.46681556404039L40.7109375,49.86803355270196L42.64955357142857,53.75960098212437L44.588169642857146,57.319991895203756L46.526785714285715,60.60992985834959L48.465401785714285,63.37464542781055L50.40401785714286,66.0688601307299L52.34263392857143,68.40239801873379L54.28125,70.58100044833722L56.21986607142858,72.52039539510434L58.15848214285714,74.37316127953389L60.09709821428571,75.92219711244857L62.035714285714285,77.40982761095165L63.974330357142854,78.88550077567004L65.91294642857143,80.02244747218829L67.8515625,81.15119996198113L69.79017857142857,82.15047301409518L71.72879464285714,82.90692068656148L73.66741071428571,83.74406370671583L75.60602678571429,84.54665737118859L77.54464285714285,85.18588651189782L79.48325892857143,85.9017807922393L81.421875,86.34488185099471L83.36049107142858,86.90307336487093L85.29910714285714,87.48430606504716L87.23772321428572,87.83103627932338L89.17633928571429,88.37239920014355L91.11495535714285,88.73266232415823L93.05357142857143,89.07633495629577L94.9921875,89.29519126948017L96.93080357142857,89.63782905639651L98.86941964285714,89.96043655752831L100.80803571428572,90.18638911964081L102.74665178571428,90.47784467788966L104.68526785714286,90.8206994825507L106.62388392857143,90.93673481404936L108.5625,91.18897152808748L110.50111607142857,91.27817125913965L112.43973214285715,91.42211839269277L114.37834821428571,100.47791521903847L116.31696428571428,108.8632788372743L118.25558035714286,115.36273815199286L120.19419642857142,120.37488531674157L122.1328125,124.3588800120706L124.07142857142857,127.46540949528142L126.01004464285715,130.13540910354195L127.94866071428571,132.2704485169352L129.88727678571428,134.10366970830592L131.82589285714286,135.73019632876787L133.76450892857144,137.05898606508305L135.703125,138.18718854456745L137.64174107142856,140.1439591777659L139.58035714285714,141.68875061804872L141.51897321428572,142.83724630283606L143.45758928571428,143.62420659670408L145.39620535714286,144.24925809651123L147.33482142857142,144.79281575878565L149.2734375,145.1554725409037L151.21205357142858,145.47761911871947L153.15066964285714,145.68442135679078L155.0892857142857,145.94659651372046L157.0279017857143,146.17198189657455L158.96651785714286,146.50052869330364L160.90513392857142,146.67813723856517L162.84375,146.77976637329047L164.78236607142856,146.96227065618865L166.72098214285717,147.00601076865215L168.65959821428572,147.04255597901357L170.59821428571428,147.07243211646087L172.53683035714283,147.12188430344585" style="fill: none;" fill="none"></path></g><g><path stroke="rgb(255, 112, 67)" stroke-width="2px" d="M27.140625,-4.038873637361547L29.07924107142857,3.443932845848053L31.017857142857142,10.462226700989333L32.956473214285715,17.16833077660874L34.895089285714285,23.34838550199322L36.833705357142854,29.065429327055398L38.77232142857142,34.31789613042105L40.7109375,39.143080018151124L42.64955357142857,43.6171489016491L44.588169642857146,47.73279729812435L46.526785714285715,51.54125458076426L48.465401785714285,55.00094812638396L50.40401785714286,58.17594679997292L52.34263392857143,61.14185418510458L54.28125,63.751754177255336L56.21986607142858,66.18688603326099L58.15848214285714,68.43937826177134L60.09709821428571,70.48632587199225L62.035714285714285,72.4879724392017L63.974330357142854,74.12074199366285L65.91294642857143,75.5360097178915L67.8515625,77.04286045192816L69.79017857142857,78.41852391692818L71.72879464285714,79.56876987829364L73.66741071428571,80.67987553217111L75.60602678571429,81.75533701946148L77.54464285714285,82.4703766595502L79.48325892857143,83.31325459064395L81.421875,84.0730342237728L83.36049107142858,84.73826628086245L85.29910714285714,85.38174415457928L87.23772321428572,86.0676505525567L89.17633928571429,86.67076793536417L91.11495535714285,87.24072355630359L93.05357142857143,87.98477991180705L94.9921875,88.32904980789598L96.93080357142857,98.17678576421798L98.86941964285714,107.15797621138798L100.80803571428572,114.31892350355864L102.74665178571428,119.8993371353285L104.68526785714286,124.25485618789983L106.62388392857143,127.73001739337656L108.5625,130.54071364658034L110.50111607142857,132.84847874952345L112.43973214285715,134.8997495849468L114.37834821428571,136.43959120605865L116.31696428571428,137.7931533076261L118.25558035714286,138.82230624544292L120.19419642857142,140.83695448701536L122.1328125,142.43623617792866L124.07142857142857,143.69416481466814L126.01004464285715,144.62065326502193L127.94866071428571,145.28493911935266L129.88727678571428,145.77836427727573L131.82589285714286,146.1916162424519L133.76450892857144,146.5965882116577L135.703125,146.89909255864745L137.64174107142856,147.22364793020802L139.58035714285714,147.45714068530987L141.51897321428572,147.75454449419374L143.45758928571428,147.94679978001233L145.39620535714286,148.10117743270467L147.33482142857142,148.1988799184851L149.2734375,148.24135464329078L151.21205357142858,148.29094497896762L153.15066964285714,148.33607891822774L155.0892857142857,148.3101389555509L157.0279017857143,148.32937404868454L158.96651785714286,148.37151037128837L160.90513392857142,148.3934369539742L162.84375,148.42514527785326L164.78236607142856,148.43692617122855L166.72098214285717,148.4972076009305L168.65959821428572,148.50919506531903L170.59821428571428,148.49709352844923L172.53683035714283,148.52070173474533" style="fill: none;" fill="none"></path></g><g><path stroke="rgb(187, 187, 187)" stroke-width="2px" d="M19.38616071428571,64.76951687622069L21.324776785714285,71.76976546096802L23.263392857142858,75.7734573463907L25.20200892857143,78.32323664474487L27.140625,80.05955533260475L29.07924107142857,81.33881417409484L31.017857142857142,82.30622734015853L32.956473214285715,83.0712880610805L34.895089285714285,83.71628045447764L36.833705357142854,84.21515130669613L38.77232142857142,84.59725132362225L40.7109375,84.88745183345453L42.64955357142857,85.14757199227945L44.588169642857146,85.30087060193235L46.526785714285715,85.4840597879093L48.465401785714285,85.5769523131229L50.40401785714286,85.67783616921861L52.34263392857143,85.73402518152231L54.28125,85.77824279114947L56.21986607142858,85.8253611669434L58.15848214285714,85.87154538664683L60.09709821428571,85.92142377472643L62.035714285714285,85.9030315121647L63.974330357142854,85.97993489669636L65.91294642857143,85.98426378235622L67.8515625,86.05748621414205L69.79017857142857,86.09238160795032L71.72879464285714,86.11594400609519L73.66741071428571,91.72320571334167L75.60602678571429,96.7236731174623L77.54464285714285,100.31002559862819L79.48325892857143,102.9420184617147L81.421875,104.94712895842133L83.36049107142858,106.51552346491103L85.29910714285714,107.84775996366511L87.23772321428572,108.98051847157228L89.17633928571429,110.00018879921468L91.11495535714285,110.92006973436051L93.05357142857143,111.71292204257804L94.9921875,112.43513703998879L96.93080357142857,113.047341477414L98.86941964285714,113.58075072410742L100.80803571428572,114.11276306279188L102.74665178571428,114.57198671348712L104.68526785714286,115.01596907281615L106.62388392857143,115.38732584068552L108.5625,115.73802196926819L110.50111607142857,116.0639606669198L112.43973214285715,116.36256070191371L114.37834821428571,116.6021366652908L116.31696428571428,116.85027270352138L118.25558035714286,117.10419406034599L120.19419642857142,117.26016811467466L122.1328125,117.49120194912732L124.07142857142857,117.68568571415425L126.01004464285715,117.85395379909808L127.94866071428571,118.01165209513272L129.88727678571428,118.17654171484331L131.82589285714286,118.30331539145483L133.76450892857144,118.47978042749986L135.703125,123.11917133877544L137.64174107142856,127.67647087882688L139.58035714285714,131.29767958845338L141.51897321428572,134.16101864784744L143.45758928571428,136.37335972691648L145.39620535714286,138.1461699010913L147.33482142857142,139.5789897000542L149.2734375,140.69191722091142L151.21205357142858,141.58642041311327L153.15066964285714,142.29127881036794L155.0892857142857,142.85800607864022L157.0279017857143,143.2979430804727L158.96651785714286,144.5395159077929L160.90513392857142,145.62287217437546L162.84375,146.40511764971805L164.78236607142856,146.97363014641041L166.72098214285717,147.3915796167769L168.65959821428572,147.71886015257348L170.59821428571428,147.95712580223744L172.53683035714283,148.1697630072824" style="fill: none;" fill="none"></path></g><g><path stroke="rgb(238, 51, 119)" stroke-width="2px" d="M19.38616071428571,108.57902627563476L21.324776785714285,112.64758744812012L23.263392857142858,115.8086338226941L25.20200892857143,118.44680006655524L27.140625,120.62097813535183L29.07924107142857,122.4594971357032L31.017857142857142,123.97961661989427L32.956473214285715,125.33222619196884L34.895089285714285,126.48407990395371L36.833705357142854,127.47237426875367L38.77232142857142,128.3706619772027L40.7109375,129.16542763320192L42.64955357142857,129.85559015169954L44.588169642857146,130.40989804618377L46.526785714285715,130.95376316064338L48.465401785714285,131.42357277126652L50.40401785714286,131.858373229191L52.34263392857143,132.2526478514881L54.28125,132.5972322884372L56.21986607142858,132.89866970256347L58.15848214285714,133.1862692206824L60.09709821428571,133.51922137132533L62.035714285714285,133.75133766186914L63.974330357142854,133.88830786649987L65.91294642857143,134.0868109037566L67.8515625,134.3520159375164L69.79017857142857,134.57989530904786L71.72879464285714,134.86865338753364L73.66741071428571,135.1595347330811L75.60602678571429,135.438682443309L77.54464285714285,135.6799991830533L79.48325892857143,135.89863788172488L81.421875,136.10416995198426L83.36049107142858,136.29640456764068L85.29910714285714,136.46871828981125L87.23772321428572,136.6560653874402L89.17633928571429,136.81600890508483L91.11495535714285,136.96527163388834L93.05357142857143,137.13587612768575L94.9921875,137.30335092707946L96.93080357142857,137.45377478366325L98.86941964285714,137.6016848165582L100.80803571428572,137.74944127938187L102.74665178571428,137.8945047243193L104.68526785714286,138.04195009107661L106.62388392857143,138.18873256686217L108.5625,138.30273032686472L110.50111607142857,138.4392476230018L112.43973214285715,138.55734771625873L114.37834821428571,138.6721714868118L116.31696428571428,138.81620324303992L118.25558035714286,138.91486720949612L120.19419642857142,139.06028448890595L122.1328125,140.6487695825054L124.07142857142857,142.1583586748582L126.01004464285715,143.2779883906453L127.94866071428571,144.10891848604751L129.88727678571428,144.71470528016619L131.82589285714286,145.18251974250163L133.76450892857144,145.54574207011035L135.703125,145.85382457861408L137.64174107142856,146.0912009727544L139.58035714285714,146.30177488815704L141.51897321428572,146.4677143988366L143.45758928571428,146.6455747315261L145.39620535714286,146.97773906346399L147.33482142857142,147.22511281368875L149.2734375,147.39222852958287L151.21205357142858,147.50723841627268L153.15066964285714,147.58938268751996L155.0892857142857,147.6487775556272L157.0279017857143,147.71320749559555L158.96651785714286,147.74475450834368L160.90513392857142,147.7784985256239L162.84375,147.79665613289143L164.78236607142856,147.82079598838965L166.72098214285717,147.8605264928751L168.65959821428572,147.8946743109472L170.59821428571428,147.9148197293906L172.53683035714283,147.91850558427743" style="fill: none;" fill="none"></path></g></g></g></g><g opacity="0.2"><g><g><g><path stroke="rgb(51, 187, 238)" stroke-width="2px" d="M19.38616071428571,-24.730294372558603L21.324776785714285,1.881078735351565L23.263392857142858,19.615746276855475L25.20200892857143,31.75696966552735L27.140625,40.990473266601555L29.07924107142857,49.1128546142578L31.017857142857142,55.85498382568359L32.956473214285715,61.99176525878906L34.895089285714285,67.18264352416992L36.833705357142854,71.93001168823243L38.77232142857142,76.22014965820313L40.7109375,80.45015689086914L42.64955357142857,84.11143927001952L44.588169642857146,86.92123324584962L46.526785714285715,89.94771286010742L48.465401785714285,92.89606356811524L50.40401785714286,95.42343969726564L52.34263392857143,97.73420581054688L54.28125,99.81886587524414L56.21986607142858,102.0160901184082L58.15848214285714,103.54100820922851L60.09709821428571,104.84676132202148L62.035714285714285,106.4104197692871L63.974330357142854,107.60714135742188L65.91294642857143,108.67039993286133L67.8515625,109.9577713623047L69.79017857142857,110.94331155395508L71.72879464285714,111.73254098510742L73.66741071428571,112.71870776367187L75.60602678571429,113.14814936828614L77.54464285714285,135.4642718811035L79.48325892857143,141.5650461730957L81.421875,144.39793271255493L83.36049107142858,146.2676079711914L85.29910714285714,147.68653902053833L87.23772321428572,148.90517562103273L89.17633928571429,149.5629352340698L91.11495535714285,150.24360409355162L93.05357142857143,150.80305370521546L94.9921875,151.29675794219972L96.93080357142857,151.69797849082946L98.86941964285714,152.24567470264435L100.80803571428572,152.45905506134034L102.74665178571428,152.53556804180144L104.68526785714286,152.66098164081575L106.62388392857143,152.6375568780899L108.5625,152.78724531841277L110.50111607142857,152.82386486721037L112.43973214285715,152.9026436548233L114.37834821428571,152.91397589778902L116.31696428571428,152.95149447727204L118.25558035714286,153.0362175693512L120.19419642857142,152.9848219127655L122.1328125,153.00391205120087L124.07142857142857,153.07412000083923L126.01004464285715,153.0251013908386L127.94866071428571,153.05314706325532L129.88727678571428,153.0874366607666L131.82589285714286,153.08630603599548L133.76450892857144,153.0954315519333L135.703125,153.07907310962676L137.64174107142856,153.17119961643218L139.58035714285714,153.08652480125428L141.51897321428572,153.11210261249542L143.45758928571428,153.0267198486328L145.39620535714286,153.1126466560364L147.33482142857142,153.11149138641358L149.2734375,153.09571024131776L151.21205357142858,153.08393709182738L153.15066964285714,153.1514589214325L155.0892857142857,153.07153381061553L157.0279017857143,153.170403216362L158.96651785714286,153.0967831363678L160.90513392857142,153.09240209197998L162.84375,153.13228877162933L164.78236607142856,153.15932062911986L166.72098214285717,153.06176600933074L168.65959821428572,153.09666430091858L170.59821428571428,153.16656587791442L172.53683035714283,153.09009391593932L174.47544642857144,153.09664894008637L176.4140625,153.07587046051026L178.35267857142858,153.06727683448793L180.29129464285714,153.08235408210754L182.2299107142857,153.09736431598662L184.1685267857143,153.08609520435334L186.10714285714286,153.0894752626419L188.04575892857142,153.11413057994844L189.984375,153.10424563121796L191.92299107142858,153.14481004428865L193.86160714285714,153.1220697669983L195.80022321428572,153.076007188797L197.73883928571428,153.16432420921325L199.67745535714286,153.07290210628508L201.61607142857144,153.0899300107956L203.5546875,153.071788192749L205.49330357142856,153.13268072605132L207.43191964285714,153.12297538089751L209.37053571428572,153.10237245368958L211.30915178571428,153.15724691677093L213.24776785714286,153.07729007148743L215.18638392857142,153.0814033985138L217.125,153.0546195087433L219.06361607142858,153.1026626214981L221.00223214285714,153.0440090560913L222.9408482142857,153.1132077484131L224.8794642857143,153.126975274086L226.81808035714286,153.05037907505036L228.75669642857142,153.13958364772796L230.6953125,153.0910624923706L232.63392857142856,153.10607070064546L234.57254464285717,153.07970374774933L236.51116071428572,153.06319372272492L238.44977678571428,153.0463395137787L240.38839285714283,153.08087555980683L242.32700892857144,153.10185288619994L244.265625,153.13148308753966L246.20424107142858,153.10601010131836L248.14285714285714,153.11354332351684L250.0814732142857,153.15046570014954" style="fill: none;" fill="none"></path></g><g><path stroke="rgb(0, 119, 187)" stroke-width="2px" d="M21.324776785714285,-13.467556640624991L23.263392857142858,3.129650390624988L25.20200892857143,15.474255249023429L27.140625,25.253634887695313L29.07924107142857,32.951892517089846L31.017857142857142,40.052040527343735L32.956473214285715,46.037468811035154L34.895089285714285,51.55788317871094L36.833705357142854,56.284249877929696L38.77232142857142,61.03039727783204L40.7109375,65.06683776855469L42.64955357142857,69.1884292602539L44.588169642857146,72.77408367919922L46.526785714285715,76.01796734619141L48.465401785714285,79.03504275512695L50.40401785714286,81.75610446166992L52.34263392857143,84.5121037902832L54.28125,86.43885855102538L56.21986607142858,89.1766004333496L58.15848214285714,90.53642907714844L60.09709821428571,92.99360586547851L62.035714285714285,94.19264474487305L63.974330357142854,95.87491177368163L65.91294642857143,97.08232315063476L67.8515625,98.44452850341797L69.79017857142857,98.70238522338867L71.72879464285714,100.45607235717773L73.66741071428571,100.98491711425781L75.60602678571429,102.13379663085936L77.54464285714285,103.32194586181642L79.48325892857143,127.13848475646972L81.421875,135.45497840881347L83.36049107142858,139.7595899963379L85.29910714285714,142.92112474823L87.23772321428572,145.63719536590577L89.17633928571429,147.64705391693116L91.11495535714285,149.20519326782227L93.05357142857143,150.4768169746399L94.9921875,151.33603947257996L96.93080357142857,152.11462013339997L98.86941964285714,152.5998095741272L100.80803571428572,152.95260045719147L102.74665178571428,153.59757985782625L104.68526785714286,153.77010192203522L106.62388392857143,153.91128763532637L108.5625,154.00026407432557L110.50111607142857,154.05790914201737L112.43973214285715,154.1209726166725L114.37834821428571,154.15200166654586L116.31696428571428,154.20306516623498L118.25558035714286,154.2370503745079L120.19419642857142,154.26028359103202L122.1328125,154.28153715920448L124.07142857142857,154.31282371401787L126.01004464285715,154.35380329155922L127.94866071428571,154.3517751131058L129.88727678571428,154.34820068120956L131.82589285714286,154.337892254591L133.76450892857144,154.3229623696804L135.703125,154.34553591442108L137.64174107142856,154.35533532357215L139.58035714285714,154.36011583399772L141.51897321428572,154.35079940485954L143.45758928571428,154.34523692679406L145.39620535714286,154.36904929733277L147.33482142857142,154.36223980665207L149.2734375,154.371616202116L151.21205357142858,154.35390381217002L153.15066964285714,154.36379969072343L155.0892857142857,154.36999128770827L157.0279017857143,154.3598006415367L158.96651785714286,154.34819587039948L160.90513392857142,154.36831252598762L162.84375,154.3838178935051L164.78236607142856,154.3456977517605L166.72098214285717,154.36506265497206L168.65959821428572,154.36317770361902L170.59821428571428,154.37598665428163L172.53683035714283,154.3633340127468" style="fill: none;" fill="none"></path></g><g><path stroke="rgb(204, 51, 17)" stroke-width="2px" d="M19.38616071428571,66.00063052368164L21.324776785714285,80.10845635986327L23.263392857142858,84.94239074707032L25.20200892857143,86.6820444946289L27.140625,87.32344262695312L29.07924107142857,87.94244567871092L31.017857142857142,88.1868523864746L32.956473214285715,88.61913793945313L34.895089285714285,88.70674667358398L36.833705357142854,88.81560534667969L38.77232142857142,89.10393795776368L40.7109375,89.0490521850586L42.64955357142857,89.16714761352539L44.588169642857146,89.19491189575194L46.526785714285715,89.41677767944336L48.465401785714285,89.65180718994141L50.40401785714286,89.7438776550293L52.34263392857143,89.79603561401368L54.28125,90.00018951416016L56.21986607142858,90.01275906372071L58.15848214285714,90.01869543457032L60.09709821428571,90.11684811401366L62.035714285714285,89.95508065795899L63.974330357142854,90.12517199707031L65.91294642857143,90.21961376953125L67.8515625,90.21985684204103L69.79017857142857,90.21124667358399L71.72879464285714,90.10105920410156L73.66741071428571,90.22335168457032L75.60602678571429,90.25683087158204L77.54464285714285,104.47360720825195L79.48325892857143,108.74298678588868L81.421875,110.37943734741211L83.36049107142858,111.56620376586915L85.29910714285714,112.78110717773437L87.23772321428572,113.95636006164551L89.17633928571429,115.05192297363281L91.11495535714285,116.08272056579591L93.05357142857143,117.01913310241699L94.9921875,117.77316833496093L96.93080357142857,118.5938324432373L98.86941964285714,119.3235064086914L100.80803571428572,119.90185153198243L102.74665178571428,120.44075679016115L104.68526785714286,120.99153479003907L106.62388392857143,121.58960929870605L108.5625,121.9906060180664L110.50111607142857,122.34033604431153L112.43973214285715,122.68499665832519L114.37834821428571,123.08466998291016L116.31696428571428,123.37218424987793L118.25558035714286,123.68592063903809L120.19419642857142,124.00869932556152L122.1328125,124.26622924804687L124.07142857142857,124.43842181396485L126.01004464285715,136.04477899932863L127.94866071428571,140.60078562927245L129.88727678571428,143.04986945343018L131.82589285714286,144.97460536193847L133.76450892857144,146.51932238388062L135.703125,147.87100067138672L137.64174107142856,148.96889640426636L139.58035714285714,149.94304999923708L141.51897321428572,150.77214365959168L143.45758928571428,151.4154684791565L145.39620535714286,151.9885770778656L147.33482142857142,152.39217062187194L149.2734375,153.16131888771056L151.21205357142858,153.37619869995117L153.15066964285714,153.48289715051652L155.0892857142857,153.55980520820617L157.0279017857143,153.59456525230408L158.96651785714286,153.64001820802687L160.90513392857142,153.71265595436097L162.84375,153.74049577474594L164.78236607142856,153.7880536708832L166.72098214285717,153.81089801359178L168.65959821428572,153.84434057092668L170.59821428571428,153.87639845895768L172.53683035714283,153.87594970321655" style="fill: none;" fill="none"></path></g><g><path stroke="rgb(0, 153, 136)" stroke-width="2px" d="M19.38616071428571,132.81609006500244L21.324776785714285,137.40048351287842L23.263392857142858,139.41597594451903L25.20200892857143,140.67732511138917L27.140625,141.57677037048342L29.07924107142857,142.30546934509277L31.017857142857142,142.84971814727783L32.956473214285715,143.2934132537842L34.895089285714285,143.7639793510437L36.833705357142854,144.0762039642334L38.77232142857142,144.4009204788208L40.7109375,144.6830263824463L42.64955357142857,144.87288424301147L44.588169642857146,145.03722016525268L46.526785714285715,145.37236516571045L48.465401785714285,145.55181074523927L50.40401785714286,145.7529485206604L52.34263392857143,145.9211411933899L54.28125,146.1002120361328L56.21986607142858,146.21253651809693L58.15848214285714,146.31841485214233L60.09709821428571,146.4165668563843L62.035714285714285,146.6463176422119L63.974330357142854,146.785900680542L65.91294642857143,146.9271629447937L67.8515625,147.04367029953002L69.79017857142857,147.14158058166504L71.72879464285714,147.26328901290893L73.66741071428571,147.4118346748352L75.60602678571429,147.47721307754517L77.54464285714285,147.64845225906373L79.48325892857143,147.73902715301514L81.421875,147.91145401382445L83.36049107142858,147.94664213562012L85.29910714285714,148.05931367111205L87.23772321428572,148.16675644683838L89.17633928571429,148.3013909339905L91.11495535714285,148.38282427597045L93.05357142857143,148.50881483459472L94.9921875,148.58767633438111L96.93080357142857,148.6666559944153L98.86941964285714,148.76366690826416L100.80803571428572,148.8659416923523L102.74665178571428,150.89437300872802L104.68526785714286,151.69089495277404L106.62388392857143,152.0092352027893L108.5625,152.21471131610872L110.50111607142857,152.40038697910308L112.43973214285715,152.52901605606078L114.37834821428571,152.652049738884L116.31696428571428,152.75585976219176L118.25558035714286,152.86554673862457L120.19419642857142,152.95326806259155L122.1328125,153.03012201976776L124.07142857142857,153.12561845684053L126.01004464285715,153.33294934844972L127.94866071428571,153.36013751506806L129.88727678571428,153.38530092144012L131.82589285714286,153.39593247413634L133.76450892857144,153.40874695301056L135.703125,153.42785852909088L137.64174107142856,153.42490924930573L139.58035714285714,153.44353113555908L141.51897321428572,153.4534728012085L143.45758928571428,153.4654902892113L145.39620535714286,153.47824357795716L147.33482142857142,153.4935714097023L149.2734375,153.4991742310524L151.21205357142858,153.49891309690474L153.15066964285714,153.499456802845L155.0892857142857,153.48913626480103L157.0279017857143,153.49906214761734L158.96651785714286,153.50302473592757L160.90513392857142,153.50161272096634L162.84375,153.50240827703476L164.78236607142856,153.49959015512465L166.72098214285717,153.50544136619567L168.65959821428572,153.49749441432954L170.59821428571428,153.4966255145073L172.53683035714283,153.50642133665085" style="fill: none;" fill="none"></path></g><g><path stroke="rgb(238, 51, 119)" stroke-width="2px" d="M21.324776785714285,-14.763986572265622L23.263392857142858,0.039075256347672394L25.20200892857143,10.768738769531268L27.140625,19.497170104980455L29.07924107142857,26.944350036621074L31.017857142857142,33.365007751464844L32.956473214285715,39.095728454589846L34.895089285714285,44.10901794433593L36.833705357142854,48.59673065185547L38.77232142857142,52.48187200927734L40.7109375,56.44590930175782L42.64955357142857,59.58424548339845L44.588169642857146,62.653603088378915L46.526785714285715,65.54096960449219L48.465401785714285,67.51976889038086L50.40401785714286,70.10904208374023L52.34263392857143,71.90211236572266L54.28125,73.84857220458984L56.21986607142858,75.42931054687499L58.15848214285714,77.15220849609375L60.09709821428571,78.24569989013672L62.035714285714285,79.6412439880371L63.974330357142854,81.09899304199219L65.91294642857143,81.72785943603516L67.8515625,82.84432388305665L69.79017857142857,83.6493800354004L71.72879464285714,84.04159103393556L73.66741071428571,84.99977746582032L75.60602678571429,85.7505474243164L77.54464285714285,86.14473001098634L79.48325892857143,86.97562207031251L81.421875,87.00953338623047L83.36049107142858,87.74036059570312L85.29910714285714,88.35615509033202L87.23772321428572,88.35113159179687L89.17633928571429,89.18444357299805L91.11495535714285,89.27305700683594L93.05357142857143,89.59184390258788L94.9921875,89.62347573852539L96.93080357142857,90.15178573608398L98.86941964285714,90.44434780883789L100.80803571428572,90.52531796264648L102.74665178571428,90.91502801513671L104.68526785714286,91.33498168945313L106.62388392857143,91.1107878112793L108.5625,91.56732659912109L110.50111607142857,91.4119708557129L112.43973214285715,91.63803909301758L114.37834821428571,114.06161045837402L116.31696428571428,121.44132426452637L118.25558035714286,125.11192712402344L120.19419642857142,127.89310606384278L122.1328125,130.33487205505372L124.07142857142857,132.12520372009277L126.01004464285715,134.14040851593018L127.94866071428571,135.47300763702393L129.88727678571428,136.85350149536134L131.82589285714286,138.16998625946044L133.76450892857144,139.05217066955566L135.703125,139.87949226379394L137.64174107142856,143.07911512756348L139.58035714285714,144.0059377784729L141.51897321428572,144.5599898300171L143.45758928571428,144.8046470375061L145.39620535714286,145.18683534622193L147.33482142857142,145.60815225219727L149.2734375,145.6994577140808L151.21205357142858,145.9608389854431L153.15066964285714,145.9946247138977L155.0892857142857,146.339859249115L157.0279017857143,146.5100599708557L158.96651785714286,146.9933488883972L160.90513392857142,146.94455005645753L162.84375,146.9322100753784L164.78236607142856,147.2360270805359L166.72098214285717,147.0716209373474L168.65959821428572,147.09737379455566L170.59821428571428,147.11724632263184L172.53683035714283,147.19606258392335" style="fill: none;" fill="none"></path></g><g><path stroke="rgb(255, 112, 67)" stroke-width="2px" d="M25.20200892857143,-2.1345655517578166L27.140625,6.3361549072265575L29.07924107142857,13.795348022460928L31.017857142857142,20.49849920654296L32.956473214285715,26.94589489746093L34.895089285714285,32.46276580810547L36.833705357142854,37.55457312011717L38.77232142857142,42.148956848144536L40.7109375,46.35459741210937L42.64955357142857,50.31364361572267L44.588169642857146,53.89820690917968L46.526785714285715,57.24946380615235L48.465401785714285,60.18804840087891L50.40401785714286,62.93710125732423L52.34263392857143,65.58996221923829L54.28125,67.66620657348633L56.21986607142858,69.83936123657226L58.15848214285714,71.81799307250976L60.09709821428571,73.55667993164063L62.035714285714285,75.4904027709961L63.974330357142854,76.56987698364259L65.91294642857143,77.65890124511719L67.8515625,79.30313012695312L69.79017857142857,80.48201559448243L71.72879464285714,81.29413705444335L73.66741071428571,82.34653298950195L75.60602678571429,83.36852865600585L77.54464285714285,83.54293588256836L79.48325892857143,84.57757131958007L81.421875,85.21270358276367L83.36049107142858,85.73611431884765L85.29910714285714,86.3469609375L87.23772321428572,87.09651013183593L89.17633928571429,87.57544400024413L91.11495535714285,88.09565698242187L93.05357142857143,89.10086444091796L94.9921875,88.8454546508789L96.93080357142857,112.94838967895508L98.86941964285714,120.62976187133789L100.80803571428572,125.06034443664552L102.74665178571428,128.26995758056643L104.68526785714286,130.788134765625L106.62388392857143,132.9427592010498L108.5625,134.75675802612307L110.50111607142857,136.3101264038086L112.43973214285715,137.9766558380127L114.37834821428571,138.74935363769532L116.31696428571428,139.82349645996095L118.25558035714286,140.36603565216063L120.19419642857142,143.85892684936522L122.1328125,144.83515871429444L124.07142857142857,145.58105776977538L126.01004464285715,146.01038594055177L127.94866071428571,146.28136790084838L129.88727678571428,146.51850201416016L131.82589285714286,146.81149419021608L133.76450892857144,147.2040461654663L135.703125,147.35284907913208L137.64174107142856,147.71048098754883L139.58035714285714,147.80737981796264L141.51897321428572,148.20065020751952L143.45758928571428,148.23518270874024L145.39620535714286,148.33274391174317L147.33482142857142,148.34543364715577L149.2734375,148.30506673049928L151.21205357142858,148.3653304824829L153.15066964285714,148.40377982711792L155.0892857142857,148.27122901153564L157.0279017857143,148.358226688385L158.96651785714286,148.4347148551941L160.90513392857142,148.42632682800294L162.84375,148.47270776367188L164.78236607142856,148.4545975112915L166.72098214285717,148.5876297454834L168.65959821428572,148.52717626190184L170.59821428571428,148.47894122314455L172.53683035714283,148.55611404418946" style="fill: none;" fill="none"></path></g><g><path stroke="rgb(187, 187, 187)" stroke-width="2px" d="M19.38616071428571,64.76951687622069L21.324776785714285,75.9699146118164L23.263392857142858,79.61700155639649L25.20200892857143,81.32177709960938L27.140625,82.3264930114746L29.07924107142857,83.10848968505859L31.017857142857142,83.68964364624023L32.956473214285715,84.18675393676759L34.895089285714285,84.66751895141601L36.833705357142854,84.95591638183593L38.77232142857142,85.16693572998047L40.7109375,85.32117333984375L42.64955357142857,85.5369028930664L44.588169642857146,85.53051818847655L46.526785714285715,85.7586282348633L48.465401785714285,85.7162255859375L50.40401785714286,85.82911926269531L52.34263392857143,85.81829443359375L54.28125,85.84456246948243L56.21986607142858,85.89603442382813L58.15848214285714,85.94081918334962L60.09709821428571,85.99623971557617L62.035714285714285,85.87544348144532L63.974330357142854,86.0952890625L65.91294642857143,85.99075708007813L67.8515625,86.16731954956056L69.79017857142857,86.144724609375L71.72879464285714,86.15128756713868L73.66741071428571,100.13409310913086L75.60602678571429,104.22437145996093L77.54464285714285,105.68955313110351L79.48325892857143,106.89000723266601L81.421875,107.95479446411133L83.36049107142858,108.86811511230468L85.29910714285714,109.84611465454101L87.23772321428572,110.67965620422363L89.17633928571429,111.52969427490235L91.11495535714285,112.29989112854004L93.05357142857143,112.90220050048828L94.9921875,113.51845953369141L96.93080357142857,113.96564813232422L98.86941964285714,114.38086459350586L100.80803571428572,114.91078157043457L102.74665178571428,115.26082218933105L104.68526785714286,115.68194261169434L106.62388392857143,115.94436099243163L108.5625,116.26406616210937L110.50111607142857,116.5528687133789L112.43973214285715,116.81046075439453L114.37834821428571,116.96150061035155L116.31696428571428,117.22247676086425L118.25558035714286,117.48507609558105L120.19419642857142,117.494129196167L122.1328125,117.83775270080567L124.07142857142857,117.97741136169434L126.01004464285715,118.10635592651366L127.94866071428571,118.24819953918457L129.88727678571428,118.42387614440918L131.82589285714286,118.49347590637208L133.76450892857144,118.74447798156737L135.703125,130.0782577056885L137.64174107142856,134.5124201889038L139.58035714285714,136.72949265289307L141.51897321428572,138.45602723693847L143.45758928571428,139.69187134552L145.39620535714286,140.8053851623535L147.33482142857142,141.72821939849854L149.2734375,142.36130850219726L151.21205357142858,142.92817520141602L153.15066964285714,143.34856640625L155.0892857142857,143.70809698104858L157.0279017857143,143.95784858322145L158.96651785714286,146.4018751487732L160.90513392857142,147.24790657424927L162.84375,147.57848586273192L164.78236607142856,147.82639889144897L166.72098214285717,148.01850382232666L168.65959821428572,148.2097809562683L170.59821428571428,148.3145242767334L172.53683035714283,148.48871881484985" style="fill: none;" fill="none"></path></g><g><path stroke="rgb(238, 51, 119)" stroke-width="2px" d="M19.38616071428571,108.57902627563476L21.324776785714285,115.08872415161133L23.263392857142858,118.84323834228516L25.20200892857143,121.54928356933594L27.140625,123.45958502197266L29.07924107142857,125.0028307800293L31.017857142857142,126.15341180419921L32.956473214285715,127.30434393310546L34.895089285714285,128.1828403930664L36.833705357142854,128.93987622070313L38.77232142857142,129.7099461364746L40.7109375,130.35325103759766L42.64955357142857,130.88858042907714L44.588169642857146,131.24027394104004L46.526785714285715,131.76892153930663L48.465401785714285,132.12795584106445L50.40401785714286,132.51038992309572L52.34263392857143,132.8439596786499L54.28125,133.11405644989014L56.21986607142858,133.3507982711792L58.15848214285714,133.61765272521973L60.09709821428571,134.01863864135743L62.035714285714285,134.09950751495361L63.974330357142854,134.0937615509033L65.91294642857143,134.3845640487671L67.8515625,134.74982235717772L69.79017857142857,134.92171378326415L71.72879464285714,135.30179006195067L73.66741071428571,135.59585648345947L75.60602678571429,135.85740385437012L77.54464285714285,136.0419742126465L79.48325892857143,136.22659588623048L81.421875,136.4124680328369L83.36049107142858,136.58475647735597L85.29910714285714,136.72718886566162L87.23772321428572,136.93708602905275L89.17633928571429,137.05592417907715L91.11495535714285,137.189165725708L93.05357142857143,137.39178286743163L94.9921875,137.55456312561034L96.93080357142857,137.6794105682373L98.86941964285714,137.82354986572267L100.80803571428572,137.97107597351075L102.74665178571428,138.1120998916626L104.68526785714286,138.26311814117432L106.62388392857143,138.40890628051758L108.5625,138.4737269668579L110.50111607142857,138.6440235671997L112.43973214285715,138.73449785614014L114.37834821428571,138.84440714263917L116.31696428571428,139.03225087738036L118.25558035714286,139.0628631591797L120.19419642857142,139.27841040802002L122.1328125,143.03149722290038L124.07142857142857,144.42274231338502L126.01004464285715,144.95743296432494L127.94866071428571,145.3553136291504L129.88727678571428,145.623385471344L131.82589285714286,145.88424143600463L133.76450892857144,146.09057556152345L135.703125,146.31594834136962L137.64174107142856,146.44726556396483L139.58035714285714,146.617635761261L141.51897321428572,146.71662366485594L143.45758928571428,146.9123652305603L145.39620535714286,147.47598556137086L147.33482142857142,147.59617343902588L149.2734375,147.64290210342406L151.21205357142858,147.67975324630737L153.15066964285714,147.71259909439087L155.0892857142857,147.7378698577881L157.0279017857143,147.8098524055481L158.96651785714286,147.7920750274658L160.90513392857142,147.8291145515442L162.84375,147.82389254379274L164.78236607142856,147.85700577163695L166.72098214285717,147.92012224960328L168.65959821428572,147.94589603805542L170.59821428571428,147.94503785705567L172.53683035714283,147.92403436660766" style="fill: none;" fill="none"></path></g></g></g></g></g></g><g transform="translate(58, 177)" clip-path="url(#clip_1)"><clipPath id="clip_1"><rect width="271" height="22"></rect></clipPath><g><g><line x1="0" y1="0" x2="0" y2="5" style="visibility: inherit;" fill="rgb(0, 0, 0)" stroke="rgb(204, 204, 204)" stroke-width="1px"></line><line x1="19.38616071428571" y1="0" x2="19.38616071428571" y2="5" style="visibility: inherit;" fill="rgb(0, 0, 0)" stroke="rgb(204, 204, 204)" stroke-width="1px"></line><line x1="38.77232142857142" y1="0" x2="38.77232142857142" y2="5" style="visibility: inherit;" fill="rgb(0, 0, 0)" stroke="rgb(204, 204, 204)" stroke-width="1px"></line><line x1="58.15848214285714" y1="0" x2="58.15848214285714" y2="5" style="visibility: inherit;" fill="rgb(0, 0, 0)" stroke="rgb(204, 204, 204)" stroke-width="1px"></line><line x1="77.54464285714285" y1="0" x2="77.54464285714285" y2="5" style="visibility: inherit;" fill="rgb(0, 0, 0)" stroke="rgb(204, 204, 204)" stroke-width="1px"></line><line x1="96.93080357142857" y1="0" x2="96.93080357142857" y2="5" style="visibility: inherit;" fill="rgb(0, 0, 0)" stroke="rgb(204, 204, 204)" stroke-width="1px"></line><line x1="116.31696428571428" y1="0" x2="116.31696428571428" y2="5" style="visibility: inherit;" fill="rgb(0, 0, 0)" stroke="rgb(204, 204, 204)" stroke-width="1px"></line><line x1="135.703125" y1="0" x2="135.703125" y2="5" style="visibility: inherit;" fill="rgb(0, 0, 0)" stroke="rgb(204, 204, 204)" stroke-width="1px"></line><line x1="155.0892857142857" y1="0" x2="155.0892857142857" y2="5" style="visibility: inherit;" fill="rgb(0, 0, 0)" stroke="rgb(204, 204, 204)" stroke-width="1px"></line><line x1="174.47544642857144" y1="0" x2="174.47544642857144" y2="5" style="visibility: inherit;" fill="rgb(0, 0, 0)" stroke="rgb(204, 204, 204)" stroke-width="1px"></line><line x1="193.86160714285714" y1="0" x2="193.86160714285714" y2="5" style="visibility: inherit;" fill="rgb(0, 0, 0)" stroke="rgb(204, 204, 204)" stroke-width="1px"></line><line x1="213.24776785714286" y1="0" x2="213.24776785714286" y2="5" style="visibility: inherit;" fill="rgb(0, 0, 0)" stroke="rgb(204, 204, 204)" stroke-width="1px"></line><line x1="232.63392857142856" y1="0" x2="232.63392857142856" y2="5" style="visibility: inherit;" fill="rgb(0, 0, 0)" stroke="rgb(204, 204, 204)" stroke-width="1px"></line><line x1="252.0200892857143" y1="0" x2="252.0200892857143" y2="5" style="visibility: inherit;" fill="rgb(0, 0, 0)" stroke="rgb(204, 204, 204)" stroke-width="1px"></line><line x1="271.40625" y1="0" x2="271.40625" y2="5" style="visibility: inherit;" fill="rgb(0, 0, 0)" stroke="rgb(204, 204, 204)" stroke-width="1px"></line></g><g transform="translate(0, 8)"><text x="0" y="0" dx="0em" dy="0.95em" style="text-anchor: middle; visibility: hidden; font-family: &quot;Helvetica Neue&quot;, sans-serif; font-size: 12px; font-weight: 200;" fill="rgb(50, 49, 63)" stroke="none" stroke-width="1px">-10</text><text x="19.38616071428571" y="0" dx="0em" dy="0.95em" style="text-anchor: middle; visibility: inherit; font-family: &quot;Helvetica Neue&quot;, sans-serif; font-size: 12px; font-weight: 200;" fill="rgb(50, 49, 63)" stroke="none" stroke-width="1px">0</text><text x="38.77232142857142" y="0" dx="0em" dy="0.95em" style="text-anchor: middle; visibility: hidden; font-family: &quot;Helvetica Neue&quot;, sans-serif; font-size: 12px; font-weight: 200;" fill="rgb(50, 49, 63)" stroke="none" stroke-width="1px">10</text><text x="58.15848214285714" y="0" dx="0em" dy="0.95em" style="text-anchor: middle; visibility: inherit; font-family: &quot;Helvetica Neue&quot;, sans-serif; font-size: 12px; font-weight: 200;" fill="rgb(50, 49, 63)" stroke="none" stroke-width="1px">20</text><text x="77.54464285714285" y="0" dx="0em" dy="0.95em" style="text-anchor: middle; visibility: hidden; font-family: &quot;Helvetica Neue&quot;, sans-serif; font-size: 12px; font-weight: 200;" fill="rgb(50, 49, 63)" stroke="none" stroke-width="1px">30</text><text x="96.93080357142857" y="0" dx="0em" dy="0.95em" style="text-anchor: middle; visibility: inherit; font-family: &quot;Helvetica Neue&quot;, sans-serif; font-size: 12px; font-weight: 200;" fill="rgb(50, 49, 63)" stroke="none" stroke-width="1px">40</text><text x="116.31696428571428" y="0" dx="0em" dy="0.95em" style="text-anchor: middle; visibility: hidden; font-family: &quot;Helvetica Neue&quot;, sans-serif; font-size: 12px; font-weight: 200;" fill="rgb(50, 49, 63)" stroke="none" stroke-width="1px">50</text><text x="135.703125" y="0" dx="0em" dy="0.95em" style="text-anchor: middle; visibility: inherit; font-family: &quot;Helvetica Neue&quot;, sans-serif; font-size: 12px; font-weight: 200;" fill="rgb(50, 49, 63)" stroke="none" stroke-width="1px">60</text><text x="155.0892857142857" y="0" dx="0em" dy="0.95em" style="text-anchor: middle; visibility: hidden; font-family: &quot;Helvetica Neue&quot;, sans-serif; font-size: 12px; font-weight: 200;" fill="rgb(50, 49, 63)" stroke="none" stroke-width="1px">70</text><text x="174.47544642857144" y="0" dx="0em" dy="0.95em" style="text-anchor: middle; visibility: inherit; font-family: &quot;Helvetica Neue&quot;, sans-serif; font-size: 12px; font-weight: 200;" fill="rgb(50, 49, 63)" stroke="none" stroke-width="1px">80</text><text x="193.86160714285714" y="0" dx="0em" dy="0.95em" style="text-anchor: middle; visibility: hidden; font-family: &quot;Helvetica Neue&quot;, sans-serif; font-size: 12px; font-weight: 200;" fill="rgb(50, 49, 63)" stroke="none" stroke-width="1px">90</text><text x="213.24776785714286" y="0" dx="0em" dy="0.95em" style="text-anchor: middle; visibility: inherit; font-family: &quot;Helvetica Neue&quot;, sans-serif; font-size: 12px; font-weight: 200;" fill="rgb(50, 49, 63)" stroke="none" stroke-width="1px">100</text><text x="232.63392857142856" y="0" dx="0em" dy="0.95em" style="text-anchor: middle; visibility: hidden; font-family: &quot;Helvetica Neue&quot;, sans-serif; font-size: 12px; font-weight: 200;" fill="rgb(50, 49, 63)" stroke="none" stroke-width="1px">110</text><text x="252.0200892857143" y="0" dx="0em" dy="0.95em" style="text-anchor: middle; visibility: inherit; font-family: &quot;Helvetica Neue&quot;, sans-serif; font-size: 12px; font-weight: 200;" fill="rgb(50, 49, 63)" stroke="none" stroke-width="1px">120</text><text x="271.40625" y="0" dx="0em" dy="0.95em" style="text-anchor: middle; visibility: hidden; font-family: &quot;Helvetica Neue&quot;, sans-serif; font-size: 12px; font-weight: 200;" fill="rgb(50, 49, 63)" stroke="none" stroke-width="1px">130</text></g><line x1="0" y1="0" x2="271.40625" y2="0" fill="rgb(0, 0, 0)" stroke="rgb(204, 204, 204)" stroke-width="1px"></line></g></g></g></g></svg>