<svg viewBox="0 0 330 200" xmlns="http://www.w3.org/2000/svg"><g><g><g><g><g><line x1="50.17599868774414" y1="175.61999893188477" x2="45.17599868774414" y2="175.61999893188477" style="visibility: inherit;" fill="rgb(0, 0, 0)" stroke="rgb(204, 204, 204)" stroke-width="1px"></line><line x1="50.17599868774414" y1="162.1107682448167" x2="45.17599868774414" y2="162.1107682448167" style="visibility: inherit;" fill="rgb(0, 0, 0)" stroke="rgb(204, 204, 204)" stroke-width="1px"></line><line x1="50.17599868774414" y1="148.60153755774866" x2="45.17599868774414" y2="148.60153755774866" style="visibility: inherit;" fill="rgb(0, 0, 0)" stroke="rgb(204, 204, 204)" stroke-width="1px"></line><line x1="50.17599868774414" y1="135.0923068706806" x2="45.17599868774414" y2="135.0923068706806" style="visibility: inherit;" fill="rgb(0, 0, 0)" stroke="rgb(204, 204, 204)" stroke-width="1px"></line><line x1="50.17599868774414" y1="121.58307618361252" x2="45.17599868774414" y2="121.58307618361252" style="visibility: inherit;" fill="rgb(0, 0, 0)" stroke="rgb(204, 204, 204)" stroke-width="1px"></line><line x1="50.17599868774414" y1="108.07384549654448" x2="45.17599868774414" y2="108.07384549654448" style="visibility: inherit;" fill="rgb(0, 0, 0)" stroke="rgb(204, 204, 204)" stroke-width="1px"></line><line x1="50.17599868774414" y1="94.56461480947642" x2="45.17599868774414" y2="94.56461480947642" style="visibility: inherit;" fill="rgb(0, 0, 0)" stroke="rgb(204, 204, 204)" stroke-width="1px"></line><line x1="50.17599868774414" y1="81.05538412240836" x2="45.17599868774414" y2="81.05538412240836" style="visibility: inherit;" fill="rgb(0, 0, 0)" stroke="rgb(204, 204, 204)" stroke-width="1px"></line><line x1="50.17599868774414" y1="67.5461534353403" x2="45.17599868774414" y2="67.5461534353403" style="visibility: inherit;" fill="rgb(0, 0, 0)" stroke="rgb(204, 204, 204)" stroke-width="1px"></line><line x1="50.17599868774414" y1="54.03692274827223" x2="45.17599868774414" y2="54.03692274827223" style="visibility: inherit;" fill="rgb(0, 0, 0)" stroke="rgb(204, 204, 204)" stroke-width="1px"></line><line x1="50.17599868774414" y1="40.52769206120419" x2="45.17599868774414" y2="40.52769206120419" style="visibility: inherit;" fill="rgb(0, 0, 0)" stroke="rgb(204, 204, 204)" stroke-width="1px"></line><line x1="50.17599868774414" y1="27.01846137413611" x2="45.17599868774414" y2="27.01846137413611" style="visibility: inherit;" fill="rgb(0, 0, 0)" stroke="rgb(204, 204, 204)" stroke-width="1px"></line><line x1="50.17599868774414" y1="13.509230687068055" x2="45.17599868774414" y2="13.509230687068055" style="visibility: inherit;" fill="rgb(0, 0, 0)" stroke="rgb(204, 204, 204)" stroke-width="1px"></line><line x1="50.17599868774414" y1="0" x2="45.17599868774414" y2="0" style="visibility: inherit;" fill="rgb(0, 0, 0)" stroke="rgb(204, 204, 204)" stroke-width="1px"></line></g><g transform="translate(40.17599868774414, 0)"><text style="text-anchor: end; visibility: hidden; font-family: &quot;Helvetica Neue&quot;, sans-serif; font-size: 12px; font-weight: 200;" x="0" y="175.61999893188477" dx="0em" dy="0.3em" fill="rgb(50, 49, 63)" stroke="none" stroke-width="1px">-0.1</text><text style="text-anchor: end; visibility: inherit; font-family: &quot;Helvetica Neue&quot;, sans-serif; font-size: 12px; font-weight: 200;" x="0" y="162.1107682448167" dx="0em" dy="0.3em" fill="rgb(50, 49, 63)" stroke="none" stroke-width="1px">0</text><text style="text-anchor: end; visibility: hidden; font-family: &quot;Helvetica Neue&quot;, sans-serif; font-size: 12px; font-weight: 200;" x="0" y="148.60153755774866" dx="0em" dy="0.3em" fill="rgb(50, 49, 63)" stroke="none" stroke-width="1px">0.1</text><text style="text-anchor: end; visibility: inherit; font-family: &quot;Helvetica Neue&quot;, sans-serif; font-size: 12px; font-weight: 200;" x="0" y="135.0923068706806" dx="0em" dy="0.3em" fill="rgb(50, 49, 63)" stroke="none" stroke-width="1px">0.2</text><text style="text-anchor: end; visibility: hidden; font-family: &quot;Helvetica Neue&quot;, sans-serif; font-size: 12px; font-weight: 200;" x="0" y="121.58307618361252" dx="0em" dy="0.3em" fill="rgb(50, 49, 63)" stroke="none" stroke-width="1px">0.3</text><text style="text-anchor: end; visibility: inherit; font-family: &quot;Helvetica Neue&quot;, sans-serif; font-size: 12px; font-weight: 200;" x="0" y="108.07384549654448" dx="0em" dy="0.3em" fill="rgb(50, 49, 63)" stroke="none" stroke-width="1px">0.4</text><text style="text-anchor: end; visibility: hidden; font-family: &quot;Helvetica Neue&quot;, sans-serif; font-size: 12px; font-weight: 200;" x="0" y="94.56461480947642" dx="0em" dy="0.3em" fill="rgb(50, 49, 63)" stroke="none" stroke-width="1px">0.5</text><text style="text-anchor: end; visibility: inherit; font-family: &quot;Helvetica Neue&quot;, sans-serif; font-size: 12px; font-weight: 200;" x="0" y="81.05538412240836" dx="0em" dy="0.3em" fill="rgb(50, 49, 63)" stroke="none" stroke-width="1px">0.6</text><text style="text-anchor: end; visibility: hidden; font-family: &quot;Helvetica Neue&quot;, sans-serif; font-size: 12px; font-weight: 200;" x="0" y="67.5461534353403" dx="0em" dy="0.3em" fill="rgb(50, 49, 63)" stroke="none" stroke-width="1px">0.7</text><text style="text-anchor: end; visibility: inherit; font-family: &quot;Helvetica Neue&quot;, sans-serif; font-size: 12px; font-weight: 200;" x="0" y="54.03692274827223" dx="0em" dy="0.3em" fill="rgb(50, 49, 63)" stroke="none" stroke-width="1px">0.8</text><text style="text-anchor: end; visibility: hidden; font-family: &quot;Helvetica Neue&quot;, sans-serif; font-size: 12px; font-weight: 200;" x="0" y="40.52769206120419" dx="0em" dy="0.3em" fill="rgb(50, 49, 63)" stroke="none" stroke-width="1px">0.9</text><text style="text-anchor: end; visibility: inherit; font-family: &quot;Helvetica Neue&quot;, sans-serif; font-size: 12px; font-weight: 200;" x="0" y="27.01846137413611" dx="0em" dy="0.3em" fill="rgb(50, 49, 63)" stroke="none" stroke-width="1px">1</text><text style="text-anchor: end; visibility: hidden; font-family: &quot;Helvetica Neue&quot;, sans-serif; font-size: 12px; font-weight: 200;" x="0" y="13.509230687068055" dx="0em" dy="0.3em" fill="rgb(50, 49, 63)" stroke="none" stroke-width="1px">1.1</text><text style="text-anchor: end; visibility: hidden; font-family: &quot;Helvetica Neue&quot;, sans-serif; font-size: 12px; font-weight: 200;" x="0" y="0" dx="0em" dy="0.3em" fill="rgb(50, 49, 63)" stroke="none" stroke-width="1px">1.2</text></g><line x1="50.17599868774414" y1="0" x2="50.17599868774414" y2="175.61999893188477" fill="rgb(0, 0, 0)" stroke="rgb(204, 204, 204)" stroke-width="1px"></line></g></g><g transform="translate(50, 0)" clip-path="url(#clip_0)"><clipPath id="clip_0"><rect width="279" height="175"></rect></clipPath><g><g><g><line x1="0" y1="0" x2="0" y2="175.61999893188477" fill="rgb(0, 0, 0)" stroke="rgb(60, 60, 60)" stroke-width="1px" opacity="0.25"></line><line x1="19.987428665161133" y1="0" x2="19.987428665161133" y2="175.61999893188477" fill="rgb(0, 0, 0)" stroke="rgb(60, 60, 60)" stroke-width="1px" opacity="0.25"></line><line x1="39.974857330322266" y1="0" x2="39.974857330322266" y2="175.61999893188477" fill="rgb(0, 0, 0)" stroke="rgb(60, 60, 60)" stroke-width="1px" opacity="0.25"></line><line x1="59.9622859954834" y1="0" x2="59.9622859954834" y2="175.61999893188477" fill="rgb(0, 0, 0)" stroke="rgb(60, 60, 60)" stroke-width="1px" opacity="0.25"></line><line x1="79.94971466064453" y1="0" x2="79.94971466064453" y2="175.61999893188477" fill="rgb(0, 0, 0)" stroke="rgb(60, 60, 60)" stroke-width="1px" opacity="0.25"></line><line x1="99.93714332580566" y1="0" x2="99.93714332580566" y2="175.61999893188477" fill="rgb(0, 0, 0)" stroke="rgb(60, 60, 60)" stroke-width="1px" opacity="0.25"></line><line x1="119.9245719909668" y1="0" x2="119.9245719909668" y2="175.61999893188477" fill="rgb(0, 0, 0)" stroke="rgb(60, 60, 60)" stroke-width="1px" opacity="0.25"></line><line x1="139.91200065612793" y1="0" x2="139.91200065612793" y2="175.61999893188477" fill="rgb(0, 0, 0)" stroke="rgb(60, 60, 60)" stroke-width="1px" opacity="0.25"></line><line x1="159.89942932128906" y1="0" x2="159.89942932128906" y2="175.61999893188477" fill="rgb(0, 0, 0)" stroke="rgb(60, 60, 60)" stroke-width="1px" opacity="0.25"></line><line x1="179.8868579864502" y1="0" x2="179.8868579864502" y2="175.61999893188477" fill="rgb(0, 0, 0)" stroke="rgb(60, 60, 60)" stroke-width="1px" opacity="0.25"></line><line x1="199.87428665161133" y1="0" x2="199.87428665161133" y2="175.61999893188477" fill="rgb(0, 0, 0)" stroke="rgb(60, 60, 60)" stroke-width="1px" opacity="0.25"></line><line x1="219.86171531677246" y1="0" x2="219.86171531677246" y2="175.61999893188477" fill="rgb(0, 0, 0)" stroke="rgb(60, 60, 60)" stroke-width="1px" opacity="0.25"></line><line x1="239.8491439819336" y1="0" x2="239.8491439819336" y2="175.61999893188477" fill="rgb(0, 0, 0)" stroke="rgb(60, 60, 60)" stroke-width="1px" opacity="0.25"></line><line x1="259.8365726470947" y1="0" x2="259.8365726470947" y2="175.61999893188477" fill="rgb(0, 0, 0)" stroke="rgb(60, 60, 60)" stroke-width="1px" opacity="0.25"></line><line x1="279.82400131225586" y1="0" x2="279.82400131225586" y2="175.61999893188477" fill="rgb(0, 0, 0)" stroke="rgb(60, 60, 60)" stroke-width="1px" opacity="0.25"></line></g><g><line x1="0" y1="175.61999893188477" x2="279.82400131225586" y2="175.61999893188477" fill="rgb(0, 0, 0)" stroke="rgb(60, 60, 60)" stroke-width="1px" opacity="0.25"></line><line x1="0" y1="162.1107682448167" x2="279.82400131225586" y2="162.1107682448167" fill="rgb(0, 0, 0)" stroke="rgb(60, 60, 60)" stroke-width="1px" opacity="0.25"></line><line x1="0" y1="148.60153755774866" x2="279.82400131225586" y2="148.60153755774866" fill="rgb(0, 0, 0)" stroke="rgb(60, 60, 60)" stroke-width="1px" opacity="0.25"></line><line x1="0" y1="135.0923068706806" x2="279.82400131225586" y2="135.0923068706806" fill="rgb(0, 0, 0)" stroke="rgb(60, 60, 60)" stroke-width="1px" opacity="0.25"></line><line x1="0" y1="121.58307618361252" x2="279.82400131225586" y2="121.58307618361252" fill="rgb(0, 0, 0)" stroke="rgb(60, 60, 60)" stroke-width="1px" opacity="0.25"></line><line x1="0" y1="108.07384549654448" x2="279.82400131225586" y2="108.07384549654448" fill="rgb(0, 0, 0)" stroke="rgb(60, 60, 60)" stroke-width="1px" opacity="0.25"></line><line x1="0" y1="94.56461480947642" x2="279.82400131225586" y2="94.56461480947642" fill="rgb(0, 0, 0)" stroke="rgb(60, 60, 60)" stroke-width="1px" opacity="0.25"></line><line x1="0" y1="81.05538412240836" x2="279.82400131225586" y2="81.05538412240836" fill="rgb(0, 0, 0)" stroke="rgb(60, 60, 60)" stroke-width="1px" opacity="0.25"></line><line x1="0" y1="67.5461534353403" x2="279.82400131225586" y2="67.5461534353403" fill="rgb(0, 0, 0)" stroke="rgb(60, 60, 60)" stroke-width="1px" opacity="0.25"></line><line x1="0" y1="54.03692274827223" x2="279.82400131225586" y2="54.03692274827223" fill="rgb(0, 0, 0)" stroke="rgb(60, 60, 60)" stroke-width="1px" opacity="0.25"></line><line x1="0" y1="40.52769206120419" x2="279.82400131225586" y2="40.52769206120419" fill="rgb(0, 0, 0)" stroke="rgb(60, 60, 60)" stroke-width="1px" opacity="0.25"></line><line x1="0" y1="27.01846137413611" x2="279.82400131225586" y2="27.01846137413611" fill="rgb(0, 0, 0)" stroke="rgb(60, 60, 60)" stroke-width="1px" opacity="0.25"></line><line x1="0" y1="13.509230687068055" x2="279.82400131225586" y2="13.509230687068055" fill="rgb(0, 0, 0)" stroke="rgb(60, 60, 60)" stroke-width="1px" opacity="0.25"></line><line x1="0" y1="0" x2="279.82400131225586" y2="0" fill="rgb(0, 0, 0)" stroke="rgb(60, 60, 60)" stroke-width="1px" opacity="0.25"></line></g></g></g><g><g><line x1="0" y1="162.1107682448167" x2="279.82400131225586" y2="162.1107682448167" fill="rgb(0, 0, 0)" stroke="rgb(153, 153, 153)" stroke-width="1.5px"></line></g></g><g><g><line x1="19.987428665161133" y1="0" x2="19.987428665161133" y2="175.61999893188477" fill="rgb(0, 0, 0)" stroke="rgb(153, 153, 153)" stroke-width="1.5px"></line></g></g><g><g><g><g><g><path style="fill: none;" stroke="rgb(51, 187, 238)" stroke-width="2px" d="M19.987428665161133,159.4859246770664L19.987428665161133,159.96144969532614L21.986171531677247,152.2503807328289L23.98491439819336,143.25188303987025L25.983657264709475,135.90826493046666L27.98240013122559,129.45625503506216L29.9811429977417,123.54191598599508L31.979885864257813,118.49486570842686L33.97862873077393,113.85985092201994L35.97737159729004,109.73953224498706L37.97611446380615,105.75701367696102L39.974857330322266,102.22434742377062L41.973600196838376,98.9267469713946L43.972343063354494,95.81016643023389L45.971085929870604,93.4717154495979L47.96982879638672,91.0643704535552L49.96857166290283,88.41926219349556L51.96731452941895,86.29831532040583L53.96605739593506,84.21249183385234L55.96480026245118,82.47249923412707L57.96354312896729,80.73927042273066L59.9622859954834,79.35321720369929L61.96102886199951,77.80911679738382L63.959771728515626,76.33120489114353L65.95851459503174,75.372051393339L67.95725746154785,74.5858173650131L69.95600032806396,73.35917214306056L71.95474319458008,72.46756795512596L73.95348606109619,71.68267863233686L75.9522289276123,70.79241914993905L77.95097179412842,70.44118528457669L79.94971466064453,48.29955379215858L81.94845752716064,42.008304651498634L83.94720039367675,38.90658431433897L85.94594326019288,36.973413088664415L87.94468612670899,35.39148378048117L89.9434289932251,34.12566495112404L91.94217185974121,33.35428710073472L93.94091472625732,32.60317645894506L95.93965759277344,31.938521525830197L97.93840045928954,31.363027816721683L99.93714332580566,30.88075360461687L101.93588619232177,30.226904628570253L103.9346290588379,29.951312462685536L105.933371925354,29.848647818408352L107.93211479187012,29.651410919461767L109.93085765838623,29.668972612729874L111.92960052490236,29.550090980721393L113.92834339141845,29.566299916323743L115.92708625793458,29.444720821112696L117.92582912445069,29.409597434576455L119.9245719909668,29.343400882372322L121.92331485748291,29.30557198050454L123.92205772399902,29.365012796508807L125.92080059051514,29.263692857768433L127.91954345703125,29.179934612296194L129.91828632354736,29.313680474370216L131.9170291900635,29.174531633762058L133.91577205657958,29.2339724497663L135.9145149230957,29.1893958638276L137.91325778961183,29.1407610048916L139.91200065612793,29.225872008029626L141.91074352264403,29.06106103241666L143.90948638916015,29.158322698159736L145.90822925567628,29.15696994049395L147.90697212219237,29.182640127627735L149.9057149887085,29.151566961959844L151.9044578552246,29.158322698159736L153.90320072174075,29.183992885293492L155.90194358825684,29.202907336227383L157.90068645477294,29.06106103241666L159.89942932128906,29.201554578561627L161.8981721878052,29.040793823817012L163.89691505432128,29.185345642959277L165.8956579208374,29.15291971962563L167.8944007873535,29.139408247225845L169.89314365386963,29.09618441895293L171.89188652038575,29.22451925036387L173.89062938690185,29.20560479942995L175.88937225341797,29.08537040975571L177.88811511993407,29.138063541689036L179.8868579864502,29.200201820895842L181.88560085296632,29.23667796509787L183.88434371948242,29.21776351416395L185.88308658599854,29.186690348496086L187.88182945251464,29.15291971962563L189.88057231903076,29.225872008029626L191.8793151855469,29.206957557095734L193.87805805206298,29.138063541689036L195.87680091857908,29.194798842361735L197.87554378509523,29.078622725684795L199.87428665161133,29.116443575423602L201.87302951812745,29.151566961959844L203.87177238464355,29.098881882155496L205.87051525115967,29.227216713566435L207.8692581176758,29.16912865522795L209.8680009841919,29.2339724497663L211.866743850708,29.102932103023818L213.86548671722412,29.1893958638276L215.86422958374024,29.16912865522795L217.86297245025634,29.116443575423602L219.86171531677246,29.120493796291953L221.86045818328856,29.206957557095734L223.8592010498047,29.16778394969117L225.8579439163208,29.15291971962563L227.8566867828369,29.254239658365975L229.85542964935303,29.163725676693844L231.85417251586915,29.121846553957738L233.85291538238525,29.24883667983184L235.85165824890137,29.106990376021145L237.85040111541747,29.198849063230085L239.8491439819336,29.115090817757846L241.84788684844972,29.179934612296194L243.84662971496581,29.16912865522795L245.84537258148194,29.27720433016819L247.84411544799804,29.22046902949549L249.84285831451416,29.174531633762058L251.84160118103028,29.155625234957142L253.84034404754638,29.192093327030193L255.8390869140625,29.09618441895293L257.8378297805786,29.08537040975571" fill="none"></path></g><g><path style="fill: none;" stroke="rgb(0, 119, 187)" stroke-width="2px" d="M19.987428665161133,160.95302722924657L21.986171531677247,158.0012603058036L23.98491439819336,152.49759920928054L25.983657264709475,146.4292531286365L27.98240013122559,140.82697433752722L29.9811429977417,135.58944692327674L31.979885864257813,130.6680340139169L33.97862873077393,126.47206558527742L35.97737159729004,122.17612997556336L37.97611446380615,118.54484929896415L39.974857330322266,114.74740488908623L41.973600196838376,111.67675771759444L43.972343063354494,108.2521671393443L45.971085929870604,105.21799611205452L47.96982879638672,102.60530974926407L49.96857166290283,100.07097865341171L51.96731452941895,97.77305806391055L53.96605739593506,95.54133402661353L55.96480026245118,93.73379614308284L57.96354312896729,91.40885663484663L59.9622859954834,90.3146125694313L61.96102886199951,88.08288450606979L63.959771728515626,87.07239868612669L65.95851459503174,85.5823280651524L67.95725746154785,84.56913672987775L69.95600032806396,83.38842890365865L71.95474319458008,83.07771335123768L73.95348606109619,81.32286457357586L75.9522289276123,80.70955001472853L77.95097179412842,79.64772382051791L79.94971466064453,78.65209417851139L81.94845752716064,56.198402428135495L83.94720039367675,48.07664670607819L85.94594326019288,43.298432858194815L87.94468612670899,40.10350107616043L89.9434289932251,37.19766488028159L91.94217185974121,34.85651643644303L93.94091472625732,33.412383211202155L95.93965759277344,31.839907102421392L97.93840045928954,30.973965049491568L99.93714332580566,30.11342597509588L101.93588619232177,29.486599943848802L103.9346290588379,29.190748621493384L105.933371925354,28.303186602298155L107.93211479187012,28.10189948248319L109.93085765838623,27.97761487194063L111.92960052490236,27.841171546664015L113.92834339141845,27.772277531257316L115.92708625793458,27.706080979053212L117.92582912445069,27.72769289318967L119.9245719909668,27.620969975915187L121.92331485748291,27.616919755046837L123.92205772399902,27.579090853179082L125.92080059051514,27.562881917576732L127.91954345703125,27.516952573972247L129.91828632354736,27.4642674941679L131.9170291900635,27.462914736502142L133.91577205657958,27.46831771503625L135.9145149230957,27.512902353103897L137.91325778961183,27.52370831017214L139.91200065612793,27.503441101572463L141.91074352264403,27.491282386838492L143.90948638916015,27.462914736502142L145.90822925567628,27.4764262089019L147.90697212219237,27.48318194510179L149.9057149887085,27.45615900030225L151.9044578552246,27.4521087794339L153.90320072174075,27.444000285568222L155.90194358825684,27.45615900030225L157.90068645477294,27.48318194510179L159.89942932128906,27.453461537099656L161.8981721878052,27.445353043234007L163.89691505432128,27.472367935904572L165.8956579208374,27.4399500646999L167.8944007873535,27.438597307034115L169.89314365386963,27.473720693570357L171.89188652038575,27.461561978836357L173.89062938690185,27.43724454936836L175.88937225341797,27.449403264102358L177.88811511993407,27.457511757968007" fill="none"></path></g><g><path style="fill: none;" stroke="rgb(204, 51, 17)" stroke-width="2px" d="M19.987428665161133,158.64835253913424L21.986171531677247,149.25808580872686L23.98491439819336,144.0462255620618L25.983657264709475,141.9036607357389L27.98240013122559,141.07419482701113L29.9811429977417,140.50140260716967L31.979885864257813,140.11774080544143L33.97862873077393,139.54629933023352L35.97737159729004,139.40850526032338L37.97611446380615,139.12751414196902L39.974857330322266,139.1194076611356L41.973600196838376,139.07077481523186L43.972343063354494,138.7370966040409L45.971085929870604,138.87353992931747L47.96982879638672,138.65198962696735L49.96857166290283,138.40341839284991L51.96731452941895,138.20483276230203L53.96605739593506,138.25211687660453L55.96480026245118,138.13458598922958L57.96354312896729,137.92654313321475L59.9622859954834,138.10891781512805L61.96102886199951,137.75767791066897L63.959771728515626,137.8508913685759L65.95851459503174,137.74416845130145L67.95725746154785,137.46317733294705L69.95600032806396,137.6090758706584L71.95474319458008,137.6563579719286L73.95348606109619,137.85224211320946L75.9522289276123,137.57935546265625L77.95097179412842,137.6590614742279L79.94971466064453,118.90824993118946L81.94845752716064,112.80072621707637L83.94720039367675,110.44336481157099L85.94594326019288,108.74930558151466L87.94468612670899,106.79182095243658L89.9434289932251,104.84783974362932L91.94217185974121,103.27806915018009L93.94091472625732,101.53402632958648L95.93965759277344,100.48571160777561L97.93840045928954,99.1631574777458L99.93714332580566,97.88653269132044L101.93588619232177,96.41132630041167L103.9346290588379,95.7655858182307L105.933371925354,94.76455319769008L107.93211479187012,93.78243100201885L109.93085765838623,92.95972082949095L111.92960052490236,92.41124201305303L113.92834339141845,91.69795222100217L115.92708625793458,91.2494486377678L117.92582912445069,90.57263498991894L119.9245719909668,89.7958541609955L121.92331485748291,89.52702578343963L123.92205772399902,89.25818935375479L125.92080059051514,88.77456238398419L127.91954345703125,88.46114131623168L129.91828632354736,64.13237445064865L131.9170291900635,55.09063883819144L133.91577205657958,49.97604730288228L135.9145149230957,45.90841773171823L137.91325778961183,42.61081325327771L139.91200065612793,39.602312413121695L141.91074352264403,37.30844607055337L143.90948638916015,35.33744594301106L145.90822925567628,33.39616622347083L147.90697212219237,32.10873547997724L149.9057149887085,30.91317147582157L151.9044578552246,30.183672748168362L153.90320072174075,28.580131525848657L155.90194358825684,28.172146255555674L157.90068645477294,27.97356465107225L159.89942932128906,27.851977503732257L161.8981721878052,27.764169037391667L163.89691505432128,27.718239693787183L165.8956579208374,27.581796368510595L167.8944007873535,27.579090853179082L169.89314365386963,27.48318194510179L171.89188652038575,27.422388371431794L173.89062938690185,27.35619181922766L175.88937225341797,27.329176926557068L177.88811511993407,27.32377394802296" fill="none"></path></g><g><path style="fill: none;" stroke="rgb(0, 153, 136)" stroke-width="2px" d="M19.987428665161133,156.8894507726847L21.986171531677247,144.88785018552363L23.98491439819336,135.70292356371888L25.983657264709475,129.00234646026144L27.98240013122559,123.75536182054401L29.9811429977417,119.69448395951537L31.979885864257813,116.12264409892039L33.97862873077393,113.76258120414793L35.97737159729004,110.71084848359004L37.97611446380615,109.10730323520586L39.974857330322266,106.74453885116635L41.973600196838376,105.0167049661751L43.972343063354494,103.88463199889199L45.971085929870604,102.6579948290684L47.96982879638672,100.48571160777561L49.96857166290283,99.1996336219478L51.96731452941895,98.32558307515234L53.96605739593506,96.7301463206338L55.96480026245118,95.95336549171037L57.96354312896729,95.16442594805291L59.9622859954834,94.39169533999781L61.96102886199951,93.90806837022723L63.959771728515626,92.15591705576796L65.95851459503174,91.48721190178476L67.95725746154785,90.347030440636L69.95600032806396,89.5418819613762L71.95474319458008,88.84750662025922L73.95348606109619,87.95184415932731L75.9522289276123,87.20343903286917L77.95097179412842,86.88461498658256L79.94971466064453,85.70661267569498L81.94845752716064,84.84877911663084L83.94720039367675,83.7991116371542L85.94594326019288,83.55864285780571L87.94468612670899,82.8332024031498L89.9434289932251,82.16584195470341L91.94217185974121,81.15940635562866L93.94091472625732,80.58796286738853L95.93965759277344,79.7166178359246L97.93840045928954,79.10735349794564L99.93714332580566,78.66965587177951L101.93588619232177,77.85504614098828L103.9346290588379,77.26874647481155L105.933371925354,59.06235950127821L107.93211479187012,51.66064930747166L109.93085765838623,48.59269959918244L111.92960052490236,46.724372168046244L113.92834339141845,44.93305529831139L115.92708625793458,43.72532452729271L117.92582912445069,42.681060026350195L119.9245719909668,41.81782348875194L121.92331485748291,40.83030234061107L123.92205772399902,39.91437267107949L125.92080059051514,39.322670026368655L127.91954345703125,38.39323693656627L129.91828632354736,36.069642133866836L131.9170291900635,35.861607329980984L133.91577205657958,35.4819977621533L135.9145149230957,35.48604798302165L137.91325778961183,35.276652369341036L139.91200065612793,35.026730390590075L141.91074352264403,35.0996826789941L143.90948638916015,34.92811596718127L145.90822925567628,34.82004029224103L147.90697212219237,34.6971084393642L149.9057149887085,34.54715364168783L151.9044578552246,34.39179586547735L153.90320072174075,34.436380503545024L155.90194358825684,34.380989908409106L157.90068645477294,34.2580580555323L159.89942932128906,34.47285664774702L161.8981721878052,34.42692730414254L163.89691505432128,34.336413322470435L165.8956579208374,34.30128993593419L167.8944007873535,34.33506056480465L169.89314365386963,34.479612383946915L171.89188652038575,34.25265507699817L173.89062938690185,34.40666009554289L175.88937225341797,34.480957089483695L177.88811511993407,34.25265507699817" fill="none"></path></g><g><path style="fill: none;" stroke="rgb(51, 187, 238)" stroke-width="2px" d="M19.987428665161133,159.37920175979195L21.986171531677247,151.45873969990436L23.98491439819336,142.49266390421494L25.983657264709475,135.14634430554426L27.98240013122559,129.12933256007108L29.9811429977417,123.36359353798235L31.979885864257813,118.2800711422766L33.97862873077393,113.80716181615111L35.97737159729004,109.75034222811978L37.97611446380615,106.15283218039103L39.974857330322266,102.66339780760252L41.973600196838376,99.4292883920991L43.972343063354494,96.62342340335933L45.971085929870604,93.90671561256146L47.96982879638672,91.61149651232735L49.96857166290283,88.92450912953159L51.96731452941895,86.71710654776703L53.96605739593506,84.73124219015916L55.96480026245118,83.13039843104204L57.96354312896729,81.59439846646328L59.9622859954834,80.03678658774803L61.96102886199951,78.24816718121573L63.959771728515626,77.1863409870051L65.95851459503174,75.82866347043904L67.95725746154785,74.98028311077734L69.95600032806396,73.42807421059624L71.95474319458008,72.99307404763267L73.95348606109619,71.88667126748334L75.9522289276123,50.22056630309912L77.95097179412842,43.59428418055023L79.94971466064453,40.3196524260409L81.94845752716064,38.355408034698485L83.94720039367675,36.499239318296276L85.94594326019288,35.24828471900469L87.94468612670899,33.97031522704253L89.9434289932251,33.197584618987435L91.94217185974121,32.416753569195635L93.94091472625732,31.97230020682963L95.93965759277344,31.396806497721144L97.93840045928954,30.384959867983298L99.93714332580566,30.174219548765905L101.93588619232177,30.04587666522599L103.9346290588379,30.022911993423776L105.933371925354,29.966176692751077L107.93211479187012,29.77840104533587L109.93085765838623,29.689239821329522L111.92960052490236,29.650058161795982L113.92834339141845,29.566299916323743L115.92708625793458,29.61898499612809L117.92582912445069,29.460929756715018L119.9245719909668,29.366365554174564L121.92331485748291,29.34069536704078L123.92205772399902,29.36096257564043L125.92080059051514,29.47579398678056L127.91954345703125,29.40013618304502L129.91828632354736,29.447418284315262L131.9170291900635,29.42715912784456L133.91577205657958,29.359609817974672L135.9145149230957,29.429856591047155L137.91325778961183,29.250189437497625L139.91200065612793,29.386632762774212L141.91074352264403,29.285312824033866L143.90948638916015,29.227216713566435L145.90822925567628,29.36096257564043L147.90697212219237,29.32448643143846L149.9057149887085,29.273154109299867L151.9044578552246,29.262348152231624L153.90320072174075,29.313680474370216L155.90194358825684,29.250189437497625L157.90068645477294,29.433914864044453L159.89942932128906,29.34880386090643L161.8981721878052,29.347451103240672L163.89691505432128,29.356912354772106L165.8956579208374,29.298816244304675L167.8944007873535,29.25693712156854L169.89314365386963,29.370415775042915L171.89188652038575,29.378524268908563L173.89062938690185,29.370415775042915L175.88937225341797,29.31637793757278L177.88811511993407,29.35555959710632" fill="none"></path></g><g><path style="fill: none;" stroke="rgb(255, 112, 67)" stroke-width="2px" d="M19.987428665161133,161.31237273383746L21.986171531677247,159.94658949132508L23.98491439819336,156.4504003888528L25.983657264709475,151.99235428627674L27.98240013122559,147.09796029565194L29.9811429977417,142.33325389410385L31.979885864257813,137.14030709185658L33.97862873077393,132.08515234648718L35.97737159729004,127.55010474115488L37.97611446380615,123.25687062070787L39.974857330322266,119.10142855713875L41.973600196838376,115.23779162112118L43.972343063354494,112.02394538815292L45.971085929870604,108.57503738043478L47.96982879638672,105.41252749566958L49.96857166290283,102.80389537981195L51.96731452941895,100.29793193429595L53.96605739593506,97.80547996117974L55.96480026245118,95.81827089803507L57.96354312896729,93.70678125041228L59.9622859954834,91.84520955547596L61.96102886199951,90.26057473196119L63.959771728515626,88.31524479155263L65.95851459503174,87.10346379966562L67.95725746154785,85.91735299491239L69.95600032806396,84.2827386069248L71.95474319458008,83.14121244023923L73.95348606109619,82.12531558963306L75.9522289276123,81.05808641688832L77.95097179412842,79.86927009680355L79.94971466064453,79.47480435103931L81.94845752716064,78.68721756504762L83.94720039367675,78.02931836813265L85.94594326019288,77.29306390427956L87.94468612670899,76.450086523152L89.9434289932251,76.01914463318575L91.94217185974121,75.2855956846642L93.94091472625732,74.71820241729239L95.93965759277344,73.90224798096436L97.93840045928954,73.81713697782635L99.93714332580566,55.439183292480166L101.93588619232177,49.39379785757389L103.9346290588379,45.83276798011164L105.933371925354,42.94989645603505L107.93211479187012,40.58038036186011L109.93085765838623,38.63505042145155L111.92960052490236,37.136871306611596L113.92834339141845,35.70489679610472L115.92708625793458,34.464748153881374L117.92582912445069,33.55827973588123L119.9245719909668,32.786901885491886L121.92331485748291,32.249237078251156L123.92205772399902,30.325519051979086L125.92080059051514,29.894577162012837L127.91954345703125,29.5554939592555L129.91828632354736,29.274506866965623L131.9170291900635,29.063758495619254L133.91577205657958,28.90570325620618L135.9145149230957,28.830045452470642L137.91325778961183,28.64767278358957L139.91200065612793,28.536899645446766L141.91074352264403,28.396406099301828L143.90948638916015,28.30724487529548L145.90822925567628,28.177557286218757L147.90697212219237,28.184304970289674L149.9057149887085,28.12892242728276L151.9044578552246,28.142425847553568L153.90320072174075,28.14918158375346L155.90194358825684,28.155937319953324L157.90068645477294,28.060020359747085L159.89942932128906,28.07353183214684L161.8981721878052,28.10865521868311L163.89691505432128,28.10055477694641L165.8956579208374,28.054617381212978L167.8944007873535,28.046516939476277L169.89314365386963,28.054617381212978L171.89188652038575,28.007335279942737L173.89062938690185,28.03029995174495L175.88937225341797,28.043811424144735L177.88811511993407,28.027602488542385" fill="none"></path></g><g><path style="fill: none;" stroke="rgb(187, 187, 187)" stroke-width="2px" d="M19.987428665161133,158.1187906899205L21.986171531677247,149.6822759885577L23.98491439819336,145.5038712662186L25.983657264709475,143.44236218958474L27.98240013122559,141.76991889972936L29.9811429977417,140.94720671416923L31.979885864257813,140.32172941452342L33.97862873077393,139.4909127611621L35.97737159729004,139.14912806913773L37.97611446380615,138.7114304429716L39.974857330322266,138.6627955840356L41.973600196838376,138.38450595494828L43.972343063354494,138.08054815175944L45.971085929870604,138.1818680904998L47.96982879638672,137.7671351361359L49.96857166290283,138.11567355132792L51.96731452941895,137.63609478939344L53.96605739593506,137.7252560133998L55.96480026245118,137.52937187211896L57.96354312896729,137.63609478939344L59.9622859954834,137.5888126881232L61.96102886199951,137.6590614742279L63.959771728515626,137.6333933001264L65.95851459503174,137.35915590493966L67.95725746154785,137.7266067580333L69.95600032806396,137.43480766957848L71.95474319458008,137.61583160685825L73.95348606109619,137.22136183502954L75.9522289276123,118.25980393367695L77.95097179412842,112.07663046795727L79.94971466064453,109.3963988213614L81.94845752716064,107.24708027187084L83.94720039367675,105.58814845441525L85.94594326019288,103.81438522581952L87.94468612670899,101.91228716581286L89.9434289932251,100.69510319539174L91.94217185974121,98.8159698071873L93.94091472625732,97.50827588115854L95.93965759277344,96.67475572549792L97.93840045928954,95.16442594805291L99.93714332580566,94.27551922332088L101.93588619232177,93.48657967966344L103.9346290588379,92.85975364841636L105.933371925354,92.05594987469337L107.93211479187012,91.23323970216546L109.93085765838623,90.74690721706332L111.92960052490236,90.08900802014836L113.92834339141845,89.74721930205949L115.92708625793458,89.18658982301655L117.92582912445069,89.0541967186083L119.9245719909668,88.54084934083558L121.92331485748291,87.9383407390565L123.92205772399902,87.9261820243225L125.92080059051514,87.57763757003376L127.91954345703125,86.77248909077397L129.91828632354736,86.85624733624621L131.9170291900635,86.50366071321808L133.91577205657958,86.28480384800605L135.9145149230957,86.01462271278442L137.91325778961183,85.80252963590122L139.91200065612793,62.98138703243167L141.91074352264403,54.20984060732505L143.90948638916015,49.7396367965311L145.90822925567628,46.07593422266271L147.90697212219237,43.425422984068945L149.9057149887085,41.17613322743932L151.9044578552246,39.13354162128769L153.90320072174075,37.77180583172432L155.90194358825684,36.61947370797054L157.90068645477294,35.76974059064307L159.89942932128906,35.13480606553034L161.8981721878052,34.579579565021504L163.89691505432128,31.002332699827917L165.8956579208374,29.851345281610946L167.8944007873535,29.454174020515154L169.89314365386963,29.174531633762058L171.89188652038575,28.858421154935968L173.89062938690185,28.726028050527702L175.88937225341797,28.65983149832357L177.88811511993407,28.462594599376985" fill="none"></path></g><g><path style="fill: none;" stroke="rgb(238, 51, 119)" stroke-width="2px" d="M19.987428665161133,158.86450011457927L21.986171531677247,150.43744188379634L23.98491439819336,141.33087052892972L25.983657264709475,133.57116670749645L27.98240013122559,127.82299139170807L29.9811429977417,123.4351930687206L31.979885864257813,119.63774865884267L33.97862873077393,116.24963019873005L35.97737159729004,113.58155726686817L37.97611446380615,110.96482068320935L39.974857330322266,108.51424783282926L41.973600196838376,106.81343286657305L43.972343063354494,104.9532139293025L45.971085929870604,103.76170014601517L47.96982879638672,101.93389907994931L49.96857166290283,100.97339282447905L51.96731452941895,99.40632372029687L53.96605739593506,98.29586266715022L55.96480026245118,97.53394204222784L57.96354312896729,96.55047111495533L59.9622859954834,95.85069279530423L61.96102886199951,94.1444788765784L63.959771728515626,93.97560962796815L65.95851459503174,93.5757409036698L67.95725746154785,92.57065001013186L69.95600032806396,91.55340845398888L71.95474319458008,90.9468415792125L73.95348606109619,89.84179155672894L75.9522289276123,88.93261762339723L77.95097179412842,87.66004305784023L79.94971466064453,87.19397778133775L81.94845752716064,86.61983682989502L83.94720039367675,86.07406352878864L85.94594326019288,85.32700310786731L87.94468612670899,84.74205619935637L89.9434289932251,84.17466293198456L91.94217185974121,83.67482702661161L93.94091472625732,83.12634821017369L95.93965759277344,82.25500317870977L97.93840045928954,81.74300050647386L99.93714332580566,80.92434860694325L101.93588619232177,80.66631813432664L103.9346290588379,80.32723493156934L105.933371925354,79.55856259651155L107.93211479187012,78.95875145793504L109.93085765838623,78.4913334237668L111.92960052490236,78.24681442354995L113.92834339141845,77.88071632812206L115.92708625793458,77.27009923247734L117.92582912445069,76.79862292531176L119.9245719909668,75.9543008386474L121.92331485748291,75.84757792137292L123.92205772399902,74.98973631017981L125.92080059051514,59.36090828683619L127.91954345703125,53.57490608221232L129.91828632354736,51.201331715040084L131.9170291900635,49.44918845270978L133.91577205657958,48.294150813624455L135.9145149230957,47.172883803409576L137.91325778961183,46.22588902033908L139.91200065612793,45.46531712701798L141.91074352264403,44.608828273490644L143.90948638916015,44.04549327911616L145.90822925567628,43.63346584008377L147.90697212219237,42.82696460315822L149.9057149887085,40.36422901197963L151.9044578552246,40.084586625226535L153.90320072174075,39.62121881192664L155.90194358825684,39.44290441604289L157.90068645477294,39.40102529330676L159.89942932128906,39.24566751709628L161.8981721878052,39.00250127454521L163.89691505432128,39.10651867648815L165.8956579208374,38.83093456273238L167.8944007873535,38.71610315159225L169.89314365386963,38.984939581277104L171.89188652038575,38.44456925870483L173.89062938690185,38.47428966670694L175.88937225341797,38.347299540832836L177.88811511993407,38.45402245810729" fill="none"></path></g></g></g></g></g></g><g transform="translate(50, 175)" clip-path="url(#clip_1)"><clipPath id="clip_1"><rect width="279" height="24"></rect></clipPath><g><g><line x1="0" y1="0" x2="0" y2="5" style="visibility: inherit;" fill="rgb(0, 0, 0)" stroke="rgb(204, 204, 204)" stroke-width="1px"></line><line x1="19.987428665161133" y1="0" x2="19.987428665161133" y2="5" style="visibility: inherit;" fill="rgb(0, 0, 0)" stroke="rgb(204, 204, 204)" stroke-width="1px"></line><line x1="39.974857330322266" y1="0" x2="39.974857330322266" y2="5" style="visibility: inherit;" fill="rgb(0, 0, 0)" stroke="rgb(204, 204, 204)" stroke-width="1px"></line><line x1="59.9622859954834" y1="0" x2="59.9622859954834" y2="5" style="visibility: inherit;" fill="rgb(0, 0, 0)" stroke="rgb(204, 204, 204)" stroke-width="1px"></line><line x1="79.94971466064453" y1="0" x2="79.94971466064453" y2="5" style="visibility: inherit;" fill="rgb(0, 0, 0)" stroke="rgb(204, 204, 204)" stroke-width="1px"></line><line x1="99.93714332580566" y1="0" x2="99.93714332580566" y2="5" style="visibility: inherit;" fill="rgb(0, 0, 0)" stroke="rgb(204, 204, 204)" stroke-width="1px"></line><line x1="119.9245719909668" y1="0" x2="119.9245719909668" y2="5" style="visibility: inherit;" fill="rgb(0, 0, 0)" stroke="rgb(204, 204, 204)" stroke-width="1px"></line><line x1="139.91200065612793" y1="0" x2="139.91200065612793" y2="5" style="visibility: inherit;" fill="rgb(0, 0, 0)" stroke="rgb(204, 204, 204)" stroke-width="1px"></line><line x1="159.89942932128906" y1="0" x2="159.89942932128906" y2="5" style="visibility: inherit;" fill="rgb(0, 0, 0)" stroke="rgb(204, 204, 204)" stroke-width="1px"></line><line x1="179.8868579864502" y1="0" x2="179.8868579864502" y2="5" style="visibility: inherit;" fill="rgb(0, 0, 0)" stroke="rgb(204, 204, 204)" stroke-width="1px"></line><line x1="199.87428665161133" y1="0" x2="199.87428665161133" y2="5" style="visibility: inherit;" fill="rgb(0, 0, 0)" stroke="rgb(204, 204, 204)" stroke-width="1px"></line><line x1="219.86171531677246" y1="0" x2="219.86171531677246" y2="5" style="visibility: inherit;" fill="rgb(0, 0, 0)" stroke="rgb(204, 204, 204)" stroke-width="1px"></line><line x1="239.8491439819336" y1="0" x2="239.8491439819336" y2="5" style="visibility: inherit;" fill="rgb(0, 0, 0)" stroke="rgb(204, 204, 204)" stroke-width="1px"></line><line x1="259.8365726470947" y1="0" x2="259.8365726470947" y2="5" style="visibility: inherit;" fill="rgb(0, 0, 0)" stroke="rgb(204, 204, 204)" stroke-width="1px"></line><line x1="279.82400131225586" y1="0" x2="279.82400131225586" y2="5" style="visibility: inherit;" fill="rgb(0, 0, 0)" stroke="rgb(204, 204, 204)" stroke-width="1px"></line></g><g transform="translate(0, 8)"><text style="text-anchor: middle; visibility: hidden; font-family: &quot;Helvetica Neue&quot;, sans-serif; font-size: 12px; font-weight: 200;" x="0" y="0" dx="0em" dy="0.95em" fill="rgb(50, 49, 63)" stroke="none" stroke-width="1px">-10</text><text style="text-anchor: middle; visibility: inherit; font-family: &quot;Helvetica Neue&quot;, sans-serif; font-size: 12px; font-weight: 200;" x="19.987428665161133" y="0" dx="0em" dy="0.95em" fill="rgb(50, 49, 63)" stroke="none" stroke-width="1px">0</text><text style="text-anchor: middle; visibility: hidden; font-family: &quot;Helvetica Neue&quot;, sans-serif; font-size: 12px; font-weight: 200;" x="39.974857330322266" y="0" dx="0em" dy="0.95em" fill="rgb(50, 49, 63)" stroke="none" stroke-width="1px">10</text><text style="text-anchor: middle; visibility: inherit; font-family: &quot;Helvetica Neue&quot;, sans-serif; font-size: 12px; font-weight: 200;" x="59.9622859954834" y="0" dx="0em" dy="0.95em" fill="rgb(50, 49, 63)" stroke="none" stroke-width="1px">20</text><text style="text-anchor: middle; visibility: hidden; font-family: &quot;Helvetica Neue&quot;, sans-serif; font-size: 12px; font-weight: 200;" x="79.94971466064453" y="0" dx="0em" dy="0.95em" fill="rgb(50, 49, 63)" stroke="none" stroke-width="1px">30</text><text style="text-anchor: middle; visibility: inherit; font-family: &quot;Helvetica Neue&quot;, sans-serif; font-size: 12px; font-weight: 200;" x="99.93714332580566" y="0" dx="0em" dy="0.95em" fill="rgb(50, 49, 63)" stroke="none" stroke-width="1px">40</text><text style="text-anchor: middle; visibility: hidden; font-family: &quot;Helvetica Neue&quot;, sans-serif; font-size: 12px; font-weight: 200;" x="119.9245719909668" y="0" dx="0em" dy="0.95em" fill="rgb(50, 49, 63)" stroke="none" stroke-width="1px">50</text><text style="text-anchor: middle; visibility: inherit; font-family: &quot;Helvetica Neue&quot;, sans-serif; font-size: 12px; font-weight: 200;" x="139.91200065612793" y="0" dx="0em" dy="0.95em" fill="rgb(50, 49, 63)" stroke="none" stroke-width="1px">60</text><text style="text-anchor: middle; visibility: hidden; font-family: &quot;Helvetica Neue&quot;, sans-serif; font-size: 12px; font-weight: 200;" x="159.89942932128906" y="0" dx="0em" dy="0.95em" fill="rgb(50, 49, 63)" stroke="none" stroke-width="1px">70</text><text style="text-anchor: middle; visibility: inherit; font-family: &quot;Helvetica Neue&quot;, sans-serif; font-size: 12px; font-weight: 200;" x="179.8868579864502" y="0" dx="0em" dy="0.95em" fill="rgb(50, 49, 63)" stroke="none" stroke-width="1px">80</text><text style="text-anchor: middle; visibility: hidden; font-family: &quot;Helvetica Neue&quot;, sans-serif; font-size: 12px; font-weight: 200;" x="199.87428665161133" y="0" dx="0em" dy="0.95em" fill="rgb(50, 49, 63)" stroke="none" stroke-width="1px">90</text><text style="text-anchor: middle; visibility: inherit; font-family: &quot;Helvetica Neue&quot;, sans-serif; font-size: 12px; font-weight: 200;" x="219.86171531677246" y="0" dx="0em" dy="0.95em" fill="rgb(50, 49, 63)" stroke="none" stroke-width="1px">100</text><text style="text-anchor: middle; visibility: hidden; font-family: &quot;Helvetica Neue&quot;, sans-serif; font-size: 12px; font-weight: 200;" x="239.8491439819336" y="0" dx="0em" dy="0.95em" fill="rgb(50, 49, 63)" stroke="none" stroke-width="1px">110</text><text style="text-anchor: middle; visibility: inherit; font-family: &quot;Helvetica Neue&quot;, sans-serif; font-size: 12px; font-weight: 200;" x="259.8365726470947" y="0" dx="0em" dy="0.95em" fill="rgb(50, 49, 63)" stroke="none" stroke-width="1px">120</text><text style="text-anchor: middle; visibility: hidden; font-family: &quot;Helvetica Neue&quot;, sans-serif; font-size: 12px; font-weight: 200;" x="279.82400131225586" y="0" dx="0em" dy="0.95em" fill="rgb(50, 49, 63)" stroke="none" stroke-width="1px">130</text></g><line x1="0" y1="0" x2="279.82400131225586" y2="0" fill="rgb(0, 0, 0)" stroke="rgb(204, 204, 204)" stroke-width="1px"></line></g></g></g></g></svg>