<svg viewBox="0 0 330 200" xmlns="http://www.w3.org/2000/svg"><g><g><g><g><g><line x1="70.26399803161621" y1="175.5999984741211" x2="65.26399803161621" y2="175.5999984741211" style="visibility: inherit;" fill="rgb(0, 0, 0)" stroke="rgb(204, 204, 204)" stroke-width="1px"></line><line x1="70.26399803161621" y1="160.96666526794434" x2="65.26399803161621" y2="160.96666526794434" style="visibility: inherit;" fill="rgb(0, 0, 0)" stroke="rgb(204, 204, 204)" stroke-width="1px"></line><line x1="70.26399803161621" y1="146.33333206176758" x2="65.26399803161621" y2="146.33333206176758" style="visibility: inherit;" fill="rgb(0, 0, 0)" stroke="rgb(204, 204, 204)" stroke-width="1px"></line><line x1="70.26399803161621" y1="131.69999885559082" x2="65.26399803161621" y2="131.69999885559082" style="visibility: inherit;" fill="rgb(0, 0, 0)" stroke="rgb(204, 204, 204)" stroke-width="1px"></line><line x1="70.26399803161621" y1="117.06666564941406" x2="65.26399803161621" y2="117.06666564941406" style="visibility: inherit;" fill="rgb(0, 0, 0)" stroke="rgb(204, 204, 204)" stroke-width="1px"></line><line x1="70.26399803161621" y1="102.4333324432373" x2="65.26399803161621" y2="102.4333324432373" style="visibility: inherit;" fill="rgb(0, 0, 0)" stroke="rgb(204, 204, 204)" stroke-width="1px"></line><line x1="70.26399803161621" y1="87.79999923706055" x2="65.26399803161621" y2="87.79999923706055" style="visibility: inherit;" fill="rgb(0, 0, 0)" stroke="rgb(204, 204, 204)" stroke-width="1px"></line><line x1="70.26399803161621" y1="73.16666603088379" x2="65.26399803161621" y2="73.16666603088379" style="visibility: inherit;" fill="rgb(0, 0, 0)" stroke="rgb(204, 204, 204)" stroke-width="1px"></line><line x1="70.26399803161621" y1="58.53333282470703" x2="65.26399803161621" y2="58.53333282470703" style="visibility: inherit;" fill="rgb(0, 0, 0)" stroke="rgb(204, 204, 204)" stroke-width="1px"></line><line x1="70.26399803161621" y1="43.89999961853027" x2="65.26399803161621" y2="43.89999961853027" style="visibility: inherit;" fill="rgb(0, 0, 0)" stroke="rgb(204, 204, 204)" stroke-width="1px"></line><line x1="70.26399803161621" y1="29.266666412353516" x2="65.26399803161621" y2="29.266666412353516" style="visibility: inherit;" fill="rgb(0, 0, 0)" stroke="rgb(204, 204, 204)" stroke-width="1px"></line><line x1="70.26399803161621" y1="14.633333206176758" x2="65.26399803161621" y2="14.633333206176758" style="visibility: inherit;" fill="rgb(0, 0, 0)" stroke="rgb(204, 204, 204)" stroke-width="1px"></line><line x1="70.26399803161621" y1="0" x2="65.26399803161621" y2="0" style="visibility: inherit;" fill="rgb(0, 0, 0)" stroke="rgb(204, 204, 204)" stroke-width="1px"></line></g><g transform="translate(60.26399803161621, 0)"><text style="text-anchor: end; visibility: hidden; font-family: &quot;Helvetica Neue&quot;, sans-serif; font-size: 12px; font-weight: 200;" x="0" y="175.5999984741211" dx="0em" dy="0.3em" fill="rgb(50, 49, 63)" stroke="none" stroke-width="1px">-1e+3</text><text style="text-anchor: end; visibility: inherit; font-family: &quot;Helvetica Neue&quot;, sans-serif; font-size: 12px; font-weight: 200;" x="0" y="160.96666526794434" dx="0em" dy="0.3em" fill="rgb(50, 49, 63)" stroke="none" stroke-width="1px">0</text><text style="text-anchor: end; visibility: hidden; font-family: &quot;Helvetica Neue&quot;, sans-serif; font-size: 12px; font-weight: 200;" x="0" y="146.33333206176758" dx="0em" dy="0.3em" fill="rgb(50, 49, 63)" stroke="none" stroke-width="1px">1e+3</text><text style="text-anchor: end; visibility: inherit; font-family: &quot;Helvetica Neue&quot;, sans-serif; font-size: 12px; font-weight: 200;" x="0" y="131.69999885559082" dx="0em" dy="0.3em" fill="rgb(50, 49, 63)" stroke="none" stroke-width="1px">2e+3</text><text style="text-anchor: end; visibility: hidden; font-family: &quot;Helvetica Neue&quot;, sans-serif; font-size: 12px; font-weight: 200;" x="0" y="117.06666564941406" dx="0em" dy="0.3em" fill="rgb(50, 49, 63)" stroke="none" stroke-width="1px">3e+3</text><text style="text-anchor: end; visibility: inherit; font-family: &quot;Helvetica Neue&quot;, sans-serif; font-size: 12px; font-weight: 200;" x="0" y="102.4333324432373" dx="0em" dy="0.3em" fill="rgb(50, 49, 63)" stroke="none" stroke-width="1px">4e+3</text><text style="text-anchor: end; visibility: hidden; font-family: &quot;Helvetica Neue&quot;, sans-serif; font-size: 12px; font-weight: 200;" x="0" y="87.79999923706055" dx="0em" dy="0.3em" fill="rgb(50, 49, 63)" stroke="none" stroke-width="1px">5e+3</text><text style="text-anchor: end; visibility: inherit; font-family: &quot;Helvetica Neue&quot;, sans-serif; font-size: 12px; font-weight: 200;" x="0" y="73.16666603088379" dx="0em" dy="0.3em" fill="rgb(50, 49, 63)" stroke="none" stroke-width="1px">6e+3</text><text style="text-anchor: end; visibility: hidden; font-family: &quot;Helvetica Neue&quot;, sans-serif; font-size: 12px; font-weight: 200;" x="0" y="58.53333282470703" dx="0em" dy="0.3em" fill="rgb(50, 49, 63)" stroke="none" stroke-width="1px">7e+3</text><text style="text-anchor: end; visibility: inherit; font-family: &quot;Helvetica Neue&quot;, sans-serif; font-size: 12px; font-weight: 200;" x="0" y="43.89999961853027" dx="0em" dy="0.3em" fill="rgb(50, 49, 63)" stroke="none" stroke-width="1px">8e+3</text><text style="text-anchor: end; visibility: hidden; font-family: &quot;Helvetica Neue&quot;, sans-serif; font-size: 12px; font-weight: 200;" x="0" y="29.266666412353516" dx="0em" dy="0.3em" fill="rgb(50, 49, 63)" stroke="none" stroke-width="1px">9e+3</text><text style="text-anchor: end; visibility: inherit; font-family: &quot;Helvetica Neue&quot;, sans-serif; font-size: 12px; font-weight: 200;" x="0" y="14.633333206176758" dx="0em" dy="0.3em" fill="rgb(50, 49, 63)" stroke="none" stroke-width="1px">1e+4</text><text style="text-anchor: end; visibility: hidden; font-family: &quot;Helvetica Neue&quot;, sans-serif; font-size: 12px; font-weight: 200;" x="0" y="0" dx="0em" dy="0.3em" fill="rgb(50, 49, 63)" stroke="none" stroke-width="1px">1.1e+4</text></g><line x1="70.26399803161621" y1="0" x2="70.26399803161621" y2="175.5999984741211" fill="rgb(0, 0, 0)" stroke="rgb(204, 204, 204)" stroke-width="1px"></line></g></g><g transform="translate(70, 0)" clip-path="url(#clip_0)"><clipPath id="clip_0"><rect width="259" height="175"></rect></clipPath><g><g><g><line x1="0" y1="0" x2="0" y2="175.5999984741211" fill="rgb(0, 0, 0)" stroke="rgb(60, 60, 60)" stroke-width="1px" opacity="0.25"></line><line x1="18.55257156917027" y1="0" x2="18.55257156917027" y2="175.5999984741211" fill="rgb(0, 0, 0)" stroke="rgb(60, 60, 60)" stroke-width="1px" opacity="0.25"></line><line x1="37.10514313834054" y1="0" x2="37.10514313834054" y2="175.5999984741211" fill="rgb(0, 0, 0)" stroke="rgb(60, 60, 60)" stroke-width="1px" opacity="0.25"></line><line x1="55.657714707510806" y1="0" x2="55.657714707510806" y2="175.5999984741211" fill="rgb(0, 0, 0)" stroke="rgb(60, 60, 60)" stroke-width="1px" opacity="0.25"></line><line x1="74.21028627668107" y1="0" x2="74.21028627668107" y2="175.5999984741211" fill="rgb(0, 0, 0)" stroke="rgb(60, 60, 60)" stroke-width="1px" opacity="0.25"></line><line x1="92.76285784585136" y1="0" x2="92.76285784585136" y2="175.5999984741211" fill="rgb(0, 0, 0)" stroke="rgb(60, 60, 60)" stroke-width="1px" opacity="0.25"></line><line x1="111.31542941502161" y1="0" x2="111.31542941502161" y2="175.5999984741211" fill="rgb(0, 0, 0)" stroke="rgb(60, 60, 60)" stroke-width="1px" opacity="0.25"></line><line x1="129.8680009841919" y1="0" x2="129.8680009841919" y2="175.5999984741211" fill="rgb(0, 0, 0)" stroke="rgb(60, 60, 60)" stroke-width="1px" opacity="0.25"></line><line x1="148.42057255336215" y1="0" x2="148.42057255336215" y2="175.5999984741211" fill="rgb(0, 0, 0)" stroke="rgb(60, 60, 60)" stroke-width="1px" opacity="0.25"></line><line x1="166.97314412253246" y1="0" x2="166.97314412253246" y2="175.5999984741211" fill="rgb(0, 0, 0)" stroke="rgb(60, 60, 60)" stroke-width="1px" opacity="0.25"></line><line x1="185.52571569170271" y1="0" x2="185.52571569170271" y2="175.5999984741211" fill="rgb(0, 0, 0)" stroke="rgb(60, 60, 60)" stroke-width="1px" opacity="0.25"></line><line x1="204.07828726087297" y1="0" x2="204.07828726087297" y2="175.5999984741211" fill="rgb(0, 0, 0)" stroke="rgb(60, 60, 60)" stroke-width="1px" opacity="0.25"></line><line x1="222.63085883004322" y1="0" x2="222.63085883004322" y2="175.5999984741211" fill="rgb(0, 0, 0)" stroke="rgb(60, 60, 60)" stroke-width="1px" opacity="0.25"></line><line x1="241.18343039921353" y1="0" x2="241.18343039921353" y2="175.5999984741211" fill="rgb(0, 0, 0)" stroke="rgb(60, 60, 60)" stroke-width="1px" opacity="0.25"></line><line x1="259.7360019683838" y1="0" x2="259.7360019683838" y2="175.5999984741211" fill="rgb(0, 0, 0)" stroke="rgb(60, 60, 60)" stroke-width="1px" opacity="0.25"></line></g><g><line x1="0" y1="175.5999984741211" x2="259.7360019683838" y2="175.5999984741211" fill="rgb(0, 0, 0)" stroke="rgb(60, 60, 60)" stroke-width="1px" opacity="0.25"></line><line x1="0" y1="160.96666526794434" x2="259.7360019683838" y2="160.96666526794434" fill="rgb(0, 0, 0)" stroke="rgb(60, 60, 60)" stroke-width="1px" opacity="0.25"></line><line x1="0" y1="146.33333206176758" x2="259.7360019683838" y2="146.33333206176758" fill="rgb(0, 0, 0)" stroke="rgb(60, 60, 60)" stroke-width="1px" opacity="0.25"></line><line x1="0" y1="131.69999885559082" x2="259.7360019683838" y2="131.69999885559082" fill="rgb(0, 0, 0)" stroke="rgb(60, 60, 60)" stroke-width="1px" opacity="0.25"></line><line x1="0" y1="117.06666564941406" x2="259.7360019683838" y2="117.06666564941406" fill="rgb(0, 0, 0)" stroke="rgb(60, 60, 60)" stroke-width="1px" opacity="0.25"></line><line x1="0" y1="102.4333324432373" x2="259.7360019683838" y2="102.4333324432373" fill="rgb(0, 0, 0)" stroke="rgb(60, 60, 60)" stroke-width="1px" opacity="0.25"></line><line x1="0" y1="87.79999923706055" x2="259.7360019683838" y2="87.79999923706055" fill="rgb(0, 0, 0)" stroke="rgb(60, 60, 60)" stroke-width="1px" opacity="0.25"></line><line x1="0" y1="73.16666603088379" x2="259.7360019683838" y2="73.16666603088379" fill="rgb(0, 0, 0)" stroke="rgb(60, 60, 60)" stroke-width="1px" opacity="0.25"></line><line x1="0" y1="58.53333282470703" x2="259.7360019683838" y2="58.53333282470703" fill="rgb(0, 0, 0)" stroke="rgb(60, 60, 60)" stroke-width="1px" opacity="0.25"></line><line x1="0" y1="43.89999961853027" x2="259.7360019683838" y2="43.89999961853027" fill="rgb(0, 0, 0)" stroke="rgb(60, 60, 60)" stroke-width="1px" opacity="0.25"></line><line x1="0" y1="29.266666412353516" x2="259.7360019683838" y2="29.266666412353516" fill="rgb(0, 0, 0)" stroke="rgb(60, 60, 60)" stroke-width="1px" opacity="0.25"></line><line x1="0" y1="14.633333206176758" x2="259.7360019683838" y2="14.633333206176758" fill="rgb(0, 0, 0)" stroke="rgb(60, 60, 60)" stroke-width="1px" opacity="0.25"></line><line x1="0" y1="0" x2="259.7360019683838" y2="0" fill="rgb(0, 0, 0)" stroke="rgb(60, 60, 60)" stroke-width="1px" opacity="0.25"></line></g></g></g><g><g><line x1="0" y1="160.96666526794434" x2="259.7360019683838" y2="160.96666526794434" fill="rgb(0, 0, 0)" stroke="rgb(153, 153, 153)" stroke-width="1.5px"></line></g></g><g><g><line x1="18.55257156917027" y1="0" x2="18.55257156917027" y2="175.5999984741211" fill="rgb(0, 0, 0)" stroke="rgb(153, 153, 153)" stroke-width="1.5px"></line></g></g><g><g><g><g><g><path style="fill: none;" stroke="rgb(51, 187, 238)" stroke-width="2px" d="M18.55257156917027,43.37880144597588L18.55257156917027,42.627597178008045L20.4078287260873,51.37753037539463L22.263085883004326,60.62823410894572L24.118343039921353,68.82955043863532L25.97360019683838,75.88455627345726L27.828857353755403,82.11155389018221L29.684114510672433,87.54843553443004L31.53937166758946,92.39158473660076L33.39462882450648,96.6476869421155L35.24988598142351,100.44534257734914L37.10514313834054,103.85256285611429L38.960400295257564,107.01268545572141L40.8156574521746,109.87549457300288L42.670914609091625,112.3354451500886L44.52617176600865,114.6115786751547L46.38142892292568,116.75698791922827L48.236686079842706,118.7127050918961L50.09194323675973,120.49737588286958L51.94720039367676,122.11964124207418L53.802457550593786,123.67426726193736L55.657714707510806,125.01045477820234L57.51297186442784,126.15760545644618L59.36822902134487,127.25956949588638L61.22348617826189,128.23734707343064L63.07874333517892,129.10530528373602L64.93400049209595,129.96666329612427L66.78925764901297,130.744209686119L68.64451480593,131.41953380656943L70.49977196284702,132.0856259321621L72.35502911976405,132.59889309838547L74.21028627668107,138.81074998893646L76.06554343359811,144.15186909126462L77.92080059051513,148.10600161166604L79.77605774743216,150.9731175534087L81.6313149043492,153.06877585176164L83.48657206126623,154.6485701939815L85.34182921818325,155.770461990758L87.19708637510027,156.62367307512608L89.0523435320173,157.28360627983855L90.90760068893432,157.81017932952992L92.76285784585136,158.23226903894047L94.61811500276838,158.6304199702749L96.47337215968541,158.9257618897069L98.32862931660243,159.12320911930493L100.18388647351946,159.2748565573096L102.03914363043648,159.35964782492886L103.89440078735352,159.45012377554417L105.74965794427054,159.5140973198677L107.60491510118757,159.57332296056256L109.46017225810459,159.61185637412794L111.31542941502161,159.64490224147607L113.17068657193865,159.6871438859374L115.02594372885568,159.6988917694608L116.88120088577271,159.71099093766165L118.73645804268973,159.7368244737601L120.59171519960677,159.73935635761683L122.44697235652379,159.74829517913022L124.30222951344082,159.76273004005432L126.15748667035784,159.7710918414177L128.01274382727487,159.7785231453389L129.8680009841919,159.77865418013L131.72325814110891,159.80310555347836L133.57851529802593,159.79537502544818L135.43377245494298,159.7975035088032L137.28902961186,159.7761919536878L139.14428676877702,159.7861375965115L140.99954392569404,159.79179934703586L142.8548010826111,159.79102137805896L144.7100582395281,159.78743992242414L146.56531539644513,159.80315445119112L148.42057255336215,159.79143838602192L150.2758297102792,159.81056538345254L152.13108686719622,159.80256484227303L153.98634402411324,159.79660547969291L155.84160118103026,159.8035821798632L157.69685833794728,159.81491967888678L159.55211549486432,159.7959133781712L161.40737265178134,159.79374220030243L163.2626298086984,159.81093247559818L165.1178869656154,159.8010154145517L166.97314412253246,159.79679935830833L168.82840127944948,159.78877262327137L170.6836584363665,159.78168307457852L172.53891559328352,159.78141814334245L174.39417275020054,159.7852302535971L176.2494299071176,159.78453619246457L178.1046870640346,159.7850139753411L179.95994422095163,159.79182339260961L181.81520137786865,159.7932939062747L183.6704585347857,159.8049078316087L185.52571569170271,159.80586007734394L187.38097284861973,159.79424522717775L189.23623000553675,159.81064124159835L191.0914871624538,159.79629245306094L192.94674431937082,159.79218803870472L194.80200147628784,159.78492583721518L196.65725863320486,159.7966780888337L198.51251579012188,159.80116181857056L200.36777294703893,159.79840139880625L202.22303010395595,159.81126259422956L204.07828726087297,159.79782613346504L205.93354441779,159.7908524682599L207.78880157470704,159.77958239191975L209.64405873162406,159.78553050886734L211.49931588854108,159.77358214213055L213.3545730454581,159.78472015073797L215.20983020237514,159.79504525720134L217.06508735929216,159.78097622701716L218.92034451620918,159.79613454197798L220.7756016731262,159.7923928984773L222.63085883004322,159.79411844548446L224.48611598696027,159.78817820022238L226.3413731438773,159.78024620316816L228.19663030079434,159.77102809862268L230.05188745771136,159.77463400369928L231.9071446146284,159.78234725444034L233.76240177154543,159.79481409499428L235.61765892846245,159.79555513139204L237.47291608537947,159.79799272318405L239.3281732422965,159.80922336757055" fill="none"></path></g><g><path style="fill: none;" stroke="rgb(0, 119, 187)" stroke-width="2px" d="M18.55257156917027,38.91792127640545L20.4078287260873,45.61045621174014L22.263085883004326,53.25984770365183L24.118343039921353,60.38671276429771L25.97360019683838,66.82721082581594L27.828857353755403,72.49160585170851L29.684114510672433,77.64872823026633L31.53937166758946,82.25956922248767L33.39462882450648,86.45133945438664L35.24988598142351,90.19720347261162L37.10514313834054,93.69037378464952L38.960400295257564,96.84834742284595L40.8156574521746,99.8305500274289L42.670914609091625,102.56673235425221L44.52617176600865,105.06566607227951L46.38142892292568,107.3626890933271L48.236686079842706,109.46048708726775L50.09194323675973,111.44813277908241L51.94720039367676,113.15035935605346L53.802457550593786,114.89594537096707L55.657714707510806,116.30301680545847L57.51297186442784,117.79731285961368L59.36822902134487,119.01109506172392L61.22348617826189,120.18441660967318L63.07874333517892,121.20783654709282L64.93400049209595,122.1822688182489L66.78925764901297,122.83514509977041L68.64451480593,123.69082169846777L70.49977196284702,124.34413718617589L72.35502911976405,125.04007101168989L74.21028627668107,125.77196496494359L76.06554343359811,132.51194425239953L77.92080059051513,138.75612182793083L79.77605774743216,143.64144522175394L81.6313149043492,147.40904671219835L83.48657206126623,150.38816425237917L85.34182921818325,152.707357786091L87.19708637510027,154.5110912510381L89.0523435320173,155.9297488345324L90.90760068893432,157.00825708434462L92.76285784585136,157.86134133720626L94.61811500276838,158.50155236320077L96.47337215968541,158.97901243026985L98.32862931660243,159.43612256727715L100.18388647351946,159.75603064448174L102.03914363043648,159.98532722116366L103.89440078735352,160.1464445457747L105.74965794427054,160.258365371873L107.60491510118757,160.34220177872186L109.46017225810459,160.40071258872192L111.31542941502161,160.449328303298L113.17068657193865,160.48748877162296L115.02594372885568,160.51653157282306L116.88120088577271,160.5395800430552L118.73645804268973,160.56168621593267L120.59171519960677,160.5857913716422L122.44697235652379,160.59971789537548L124.30222951344082,160.60712816707607L126.15748667035784,160.6088471591759L128.01274382727487,160.60592874235667L129.8680009841919,160.61014969139435L131.72325814110891,160.61527476738115L133.57851529802593,160.61961453255657L135.43377245494298,160.6197536610517L137.28902961186,160.61836554321124L139.14428676877702,160.62383241221355L140.99954392569404,160.62531103221662L142.8548010826111,160.62867879936599L144.7100582395281,160.62601351517725L146.56531539644513,160.62703237292598L148.42057255336215,160.62928172060137L150.2758297102792,160.6279353179792L152.13108686719622,160.62405734790272L153.98634402411324,160.6270525766901L155.84160118103026,160.63295177424487L157.69685833794728,160.6264063257989L159.55211549486432,160.627602185883L161.40737265178134,160.62782102403554L163.2626298086984,160.6313410300786L165.1178869656154,160.63010568329506" fill="none"></path></g><g><path style="fill: none;" stroke="rgb(204, 51, 17)" stroke-width="2px" d="M18.55257156917027,102.1857268708446L20.4078287260873,108.01749286732922L22.263085883004326,111.43391777654472L24.118343039921353,113.46993053043171L25.97360019683838,114.69241821811536L27.828857353755403,115.5338708633012L29.684114510672433,116.0794149919881L31.53937166758946,116.51311863865153L33.39462882450648,116.7920447454346L35.24988598142351,116.98656503831484L37.10514313834054,117.17907999927374L38.960400295257564,117.27958888387602L40.8156574521746,117.37103789124018L42.670914609091625,117.43318180279715L44.52617176600865,117.52916082204774L46.38142892292568,117.64891569466843L48.236686079842706,117.74510904261612L50.09194323675973,117.81661480710842L51.94720039367676,117.91352734161453L53.802457550593786,117.97499657208061L55.657714707510806,118.01344721749177L57.51297186442784,118.06248442794342L59.36822902134487,118.04910921966794L61.22348617826189,118.08608330417347L63.07874333517892,118.13325298700462L64.93400049209595,118.16161901762587L66.78925764901297,118.17636071860457L68.64451480593,118.15605479717382L70.49977196284702,118.17622464935235L72.35502911976405,118.19718372575306L74.21028627668107,121.97091357038819L76.06554343359811,125.36464736318841L77.92080059051513,127.83382265218957L79.77605774743216,129.6292956405111L81.6313149043492,131.02799113833925L83.48657206126623,132.1781303150565L85.34182921818325,133.15805313080352L87.19708637510027,134.01871198591186L89.0523435320173,134.78284219767457L90.90760068893432,135.4408059520587L92.76285784585136,136.05269699701014L94.61811500276838,136.6128722975381L96.47337215968541,137.1019829809543L98.32862931660243,137.5380207845562L100.18388647351946,137.94535588241018L102.03914363043648,138.3479819999518L103.89440078735352,138.69564433458189L105.74965794427054,138.99676541456273L107.60491510118757,139.26862059105267L109.46017225810459,139.53747024713311L111.31542941502161,139.77484407820532L113.17068657193865,140.00026967169987L115.02594372885568,140.22091852965843L116.88120088577271,140.4214393005471L118.73645804268973,140.5873065869031L120.59171519960677,143.75737506273282L122.44697235652379,146.86474158290622L124.30222951344082,149.3770848332925L126.15748667035784,151.3936939814106L128.01274382727487,153.01232584571784L129.8680009841919,154.3411015070119L131.72325814110891,155.42882338441868L133.57851529802593,156.33917608870138L135.43377245494298,157.1047306046694L137.28902961186,157.73425967934844L139.14428676877702,158.26359726586406L140.99954392569404,158.687973491162L142.8548010826111,159.1460831198363L144.7100582395281,159.47779694932194L146.56531539644513,159.70505311557298L148.42057255336215,159.86175341391186L150.2758297102792,159.9649696210742L152.13108686719622,160.0389242628188L153.98634402411324,160.10251390382854L155.84160118103026,160.14803291994792L157.69685833794728,160.18792612470676L159.55211549486432,160.2179056883075L161.40737265178134,160.24474090370632L163.2626298086984,160.26932318562257L165.1178869656154,160.28395383310382" fill="none"></path></g><g><path style="fill: none;" stroke="rgb(0, 153, 136)" stroke-width="2px" d="M18.55257156917027,146.3770436072048L20.4078287260873,148.2720988860461L22.263085883004326,149.53233712318075L24.118343039921353,150.47171072746963L25.97360019683838,151.208868382171L27.828857353755403,151.81489930730513L29.684114510672433,152.30803252552204L31.53937166758946,152.7143147028127L33.39462882450648,153.07943132343217L35.24988598142351,153.3792359084534L37.10514313834054,153.6441732092003L38.960400295257564,153.87731511879514L40.8156574521746,154.06716903664403L42.670914609091625,154.22443295382698L44.52617176600865,154.40741920514586L46.38142892292568,154.56464293560245L48.236686079842706,154.71217028503395L50.09194323675973,154.84517185320905L51.94720039367676,154.97234155879767L53.802457550593786,155.07835578599327L55.657714707510806,155.1699733567081L57.51297186442784,155.2509097972553L59.36822902134487,155.36025373873804L61.22348617826189,155.46278745674826L63.07874333517892,155.5616794653674L64.93400049209595,155.65183743028103L66.78925764901297,155.7318350305612L68.64451480593,155.8120324286711L70.49977196284702,155.89944971001955L72.35502911976405,155.96919640466146L74.21028627668107,156.05634701647767L76.06554343359811,156.1325996398307L77.92080059051513,156.2239680204156L79.77605774743216,156.2880983255383L81.6313149043492,156.35638460054417L83.48657206126623,156.42578115040578L85.34182921818325,156.50303763486994L87.19708637510027,156.57093532152197L89.0523435320173,156.6450056726384L90.90760068893432,156.71031127945224L92.76285784585136,156.77038929989538L94.61811500276838,156.83210107082277L96.47337215968541,156.89618568806452L98.32862931660243,157.47127304765897L100.18388647351946,158.0270512670033L102.03914363043648,158.44473747905565L103.89440078735352,158.74970944007333L105.74965794427054,158.9818144940992L107.60491510118757,159.15510730537062L109.46017225810459,159.29163246786257L111.31542941502161,159.40101127900604L113.17068657193865,159.49565707099393L115.02594372885568,159.57565187478124L116.88120088577271,159.64398104294867L118.73645804268973,159.71024283643555L120.59171519960677,159.8048508417182L122.44697235652379,159.86880847655135L124.30222951344082,159.9138402237345L126.15748667035784,159.94367192837169L128.01274382727487,159.96496111683498L129.8680009841919,159.98279073948817L131.72325814110891,159.99270825918063L133.57851529802593,160.003585329486L135.43377245494298,160.01274171324792L137.28902961186,160.0214148593242L139.14428676877702,160.0299927243475L140.99954392569404,160.039194535235L142.8548010826111,160.04619788982103L144.7100582395281,160.05033081759194L146.56531539644513,160.05295441570428L148.42057255336215,160.0517981994835L150.2758297102792,160.05373043586386L152.13108686719622,160.05593810989734L153.98634402411324,160.05688915525897L155.84160118103026,160.05767025275L157.69685833794728,160.05739335613637L159.55211549486432,160.0587751995695L161.40737265178134,160.05750188041574L163.2626298086984,160.05650801501395L165.1178869656154,160.05850325336752" fill="none"></path></g><g><path style="fill: none;" stroke="rgb(238, 51, 119)" stroke-width="2px" d="M18.55257156917027,37.59111809783056L20.4078287260873,44.57699848960061L22.263085883004326,51.71076300961633L24.118343039921353,58.11928535474151L25.97360019683838,63.89190455352205L27.828857353755403,69.120761589607L29.684114510672433,73.84499942737405L31.53937166758946,78.1354617762776L33.39462882450648,82.00295432352581L35.24988598142351,85.49283417627204L37.10514313834054,88.6047932528375L38.960400295257564,91.51573062418682L40.8156574521746,94.08958838188367L42.670914609091625,96.44440811410219L44.52617176600865,98.62035199850278L46.38142892292568,100.44891715774467L48.236686079842706,102.23085349567911L50.09194323675973,103.77424049971974L51.94720039367676,105.21515418451854L53.802457550593786,106.49785757319283L55.657714707510806,107.72326505522194L57.51297186442784,108.74778742771227L59.36822902134487,109.73169670555481L61.22348617826189,110.70769747946386L63.07874333517892,111.4596667381221L64.93400049209595,112.20621640096687L66.78925764901297,112.86712919353354L68.64451480593,113.3674388362109L70.49977196284702,113.92111986469196L72.35502911976405,114.45195017074377L74.21028627668107,114.87473222774247L76.06554343359811,115.34822011676543L77.92080059051513,115.64128431729776L79.77605774743216,116.01046860725982L81.6313149043492,116.39489219017531L83.48657206126623,116.62421733178672L85.34182921818325,116.98227129815196L87.19708637510027,117.22054701953525L89.0523435320173,117.44784989591545L90.90760068893432,117.59260005885795L92.76285784585136,117.81921849524095L94.61811500276838,118.03258902897535L96.47337215968541,118.18203260548074L98.32862931660243,118.37479944383769L100.18388647351946,118.60156141436622L102.03914363043648,118.67830643897679L103.89440078735352,118.84513418511696L105.74965794427054,118.90413031557515L107.60491510118757,118.9993360271845L109.46017225810459,124.98878201169771L111.31542941502161,130.53480776901282L113.17068657193865,134.83350850629037L115.02594372885568,138.14851051940502L116.88120088577271,140.78349907842835L118.73645804268973,142.83813776962091L120.59171519960677,144.60405839913673L122.44697235652379,146.01615978419906L124.30222951344082,147.22864053149632L126.15748667035784,148.3044148142505L128.01274382727487,149.18326782995436L129.8680009841919,149.929453719506L131.72325814110891,151.22364927582936L133.57851529802593,152.24536443423426L135.43377245494298,153.00497211971899L137.28902961186,153.52546261464335L139.14428676877702,153.9388676708105L140.99954392569404,154.29837322510798L142.8548010826111,154.53823209662048L144.7100582395281,154.7512977786276L146.56531539644513,154.88807545354194L148.42057255336215,155.0614764221175L150.2758297102792,155.2105448698963L152.13108686719622,155.42784361567522L153.98634402411324,155.5453127692606L155.84160118103026,155.61252962765113L157.69685833794728,155.73323679073377L159.55211549486432,155.7621662207972L161.40737265178134,155.78633698872076L163.2626298086984,155.80609687455942L165.1178869656154,155.83880423410406" fill="none"></path></g><g><path style="fill: none;" stroke="rgb(255, 112, 67)" stroke-width="2px" d="M18.55257156917027,35.85962608813679L20.4078287260873,40.011914768689536L22.263085883004326,45.066022052395226L24.118343039921353,50.60624392569409L25.97360019683838,55.862047685129426L27.828857353755403,60.81112793761059L29.684114510672433,65.45298251483749L31.53937166758946,69.88835677263809L33.39462882450648,73.97580536151757L35.24988598142351,77.75702150824979L37.10514313834054,81.23096939019473L38.960400295257564,84.4223150900921L40.8156574521746,87.38143557640232L42.670914609091625,90.10349904962669L44.52617176600865,92.6223882888746L46.38142892292568,94.91060742760058L48.236686079842706,97.01053120250664L50.09194323675973,98.972163339243L51.94720039367676,100.69833446782788L53.802457550593786,102.30891507121346L55.657714707510806,103.79869899546728L57.51297186442784,105.15253702647065L59.36822902134487,106.47641323794979L61.22348617826189,107.55631655724157L63.07874333517892,108.49236555993468L64.93400049209595,109.48898697838126L66.78925764901297,110.39884197783478L68.64451480593,111.15960728503116L70.49977196284702,111.89448544369584L72.35502911976405,112.60578877901472L74.21028627668107,113.0787114144517L76.06554343359811,113.63618547627442L77.92080059051513,114.13869885638022L79.77605774743216,114.57867907562647L81.6313149043492,115.0042712174073L83.48657206126623,115.4579253132198L85.34182921818325,115.85682328497388L87.19708637510027,116.23378827995423L89.0523435320173,116.72590238500533L90.90760068893432,116.95360028793527L92.76285784585136,123.4668297376667L94.61811500276838,129.4069315411275L96.47337215968541,134.14313618737393L98.32862931660243,137.83398599989277L100.18388647351946,140.71469838778555L102.03914363043648,143.01314773761243L103.89440078735352,144.87212422640263L105.74965794427054,146.3984652755757L107.60491510118757,147.75516266002143L109.46017225810459,148.77360403974885L111.31542941502161,149.6688413390704L113.17068657193865,150.3495164965479L115.02594372885568,151.6819919321261L116.88120088577271,152.73974659308303L118.73645804268973,153.5717325316593L120.59171519960677,154.18450605508085L122.44697235652379,154.62386046188635L124.30222951344082,154.95020869909305L126.15748667035784,155.22353090042776L128.01274382727487,155.49137676549213L129.8680009841919,155.6914512019133L131.72325814110891,155.90611004466587L133.57851529802593,156.0605406564911L135.43377245494298,156.25724162969715L137.28902961186,156.3843980436195L139.14428676877702,156.48650243374084L140.99954392569404,156.55112223168422L142.8548010826111,156.57921474246035L144.7100582395281,156.61201347266444L146.56531539644513,156.64186477083848L148.42057255336215,156.624708245767L150.2758297102792,156.6374302130925L152.13108686719622,156.66529890682108L153.98634402411324,156.67980100808728L155.84160118103026,156.70077269028985L157.69685833794728,156.70856449766734L159.55211549486432,156.74843424894294L161.40737265178134,156.75636268106476L163.2626298086984,156.74835880213493L165.1178869656154,156.7639731184798" fill="none"></path></g><g><path style="fill: none;" stroke="rgb(187, 187, 187)" stroke-width="2px" d="M18.55257156917027,101.3714761943263L20.4078287260873,106.00139574536244L22.263085883004326,108.64941189967911L24.118343039921353,110.33581958668603L25.97360019683838,111.48420963918615L27.828857353755403,112.33030323848433L29.684114510672433,112.97014410659969L31.53937166758946,113.47615036432664L33.39462882450648,113.90274419971783L35.24988598142351,114.23269418423138L37.10514313834054,114.48541268663888L38.960400295257564,114.67734944401643L40.8156574521746,114.84939125001546L42.670914609091625,114.95078196798582L44.52617176600865,115.0719421215754L46.38142892292568,115.13338064242573L48.236686079842706,115.20010457830698L50.09194323675973,115.23726763094272L51.94720039367676,115.26651287457007L53.802457550593786,115.29767666634979L55.657714707510806,115.32822261327804L57.51297186442784,115.36121185949526L59.36822902134487,115.34904733490853L61.22348617826189,115.39991074058241L63.07874333517892,115.40277383781503L64.93400049209595,115.45120268493318L66.78925764901297,115.47428227476175L68.64451480593,115.48986629388901L70.49977196284702,119.1984732514652L72.35502911976405,122.50575034575324L74.21028627668107,124.87774089272268L76.06554343359811,126.61852410455656L77.92080059051513,127.94469133680562L79.77605774743216,128.98201741193333L81.6313149043492,129.8631500942248L83.48657206126623,130.61234931177677L85.34182921818325,131.2867527316567L87.19708637510027,131.89515608686565L89.0523435320173,132.41954352232025L90.90760068893432,132.89721189310487L92.76285784585136,133.30211998454635L94.61811500276838,133.65491344181737L96.47337215968541,134.00678299308368L98.32862931660243,134.31051057259916L100.18388647351946,134.60415765968284L102.03914363043648,134.8497706460151L103.89440078735352,135.08171881793223L105.74965794427054,135.297292583696L107.60491510118757,135.49478473318487L109.46017225810459,135.65323873997755L111.31542941502161,135.81735432541885L113.17068657193865,135.98529628350153L115.02594372885568,136.08845652343416L116.88120088577271,136.24126082090066L118.73645804268973,136.36989113668963L120.59171519960677,136.48118256968164L122.44697235652379,136.58548321202835L124.30222951344082,136.6945401497669L126.15748667035784,136.77838744701563L128.01274382727487,136.8951002909337L129.8680009841919,139.96356370690674L131.72325814110891,142.97773241605606L133.57851529802593,145.37277664914416L135.43377245494298,147.26657075257347L137.28902961186,148.7297989639059L139.14428676877702,149.90232425158953L140.99954392569404,150.84998208402484L142.8548010826111,151.58606521383402L144.7100582395281,152.17768389249972L146.56531539644513,152.6438727191754L148.42057255336215,153.01870250239142L150.2758297102792,153.3096740159526L152.13108686719622,154.13084232699944L153.98634402411324,154.84736721874643L155.84160118103026,155.3647393629142L157.69685833794728,155.7407498847662L159.55211549486432,156.01717898592858L161.40737265178134,156.2336402348419L163.2626298086984,156.3912276085422L165.1178869656154,156.53186449321805" fill="none"></path></g><g><path style="fill: none;" stroke="rgb(238, 51, 119)" stroke-width="2px" d="M18.55257156917027,130.346804946451L20.4078287260873,133.03772523149917L22.263085883004326,135.12842104525367L24.118343039921353,136.87328729156815L25.97360019683838,138.31127473248398L27.828857353755403,139.52725941668865L29.684114510672433,140.53265670145112L31.53937166758946,141.42726400387062L33.39462882450648,142.18909266702298L35.24988598142351,142.84274422615988L37.10514313834054,143.43686595961742L38.960400295257564,143.96251887103267L40.8156574521746,144.4189879376808L42.670914609091625,144.7856036266662L44.52617176600865,145.14531252786858L46.38142892292568,145.4560415934375L48.236686079842706,145.74361582977681L50.09194323675973,146.00438653815254L51.94720039367676,146.2322924763916L53.802457550593786,146.43166125025454L55.657714707510806,146.62187772838203L57.51297186442784,146.84209014700673L59.36822902134487,146.9956103739947L61.22348617826189,147.08620158952826L63.07874333517892,147.21749022621145L64.93400049209595,147.39289513590467L66.78925764901297,147.54361309181127L68.64451480593,147.73459583434047L70.49977196284702,147.9269828920967L72.35502911976405,148.11160939865064L74.21028627668107,148.27121474377637L76.06554343359811,148.41582097787472L77.92080059051513,148.55175857193848L79.77605774743216,148.67890131474806L81.6313149043492,148.79286850627432L83.48657206126623,148.91677867598347L85.34182921818325,149.02256429351394L87.19708637510027,149.12128570575553L89.0523435320173,149.2341224245898L90.90760068893432,149.34488918360296L92.76285784585136,149.44437855831703L94.61811500276838,149.54220530615376L96.47337215968541,149.6399304837296L98.32862931660243,149.73587451653435L100.18388647351946,149.83339393716562L102.03914363043648,149.93047492595647L103.89440078735352,150.00587231383784L105.74965794427054,150.09616397859625L107.60491510118757,150.17427462340117L109.46017225810459,150.250218329367L111.31542941502161,150.34548000987124L113.17068657193865,150.41073572497163L115.02594372885568,150.50691378162878L116.88120088577271,151.55752764231514L118.73645804268973,152.55596019340254L120.59171519960677,153.29647611198558L122.44697235652379,153.84604795185274L124.30222951344082,154.24671145514043L126.15748667035784,154.5561209424183L128.01274382727487,154.79635386209387L129.8680009841919,155.00011765879125L131.72325814110891,155.15711688458723L133.57851529802593,155.29638912271676L135.43377245494298,155.40614045161368L137.28902961186,155.52377613579023L139.14428676877702,155.74346749617234L140.99954392569404,155.90707890921192L142.8548010826111,156.01760817269974L144.7100582395281,156.09367497468554L146.56531539644513,156.14800466924555L148.42057255336215,156.18728805436422L150.2758297102792,156.22990160374323L152.13108686719622,156.2507665957976L153.98634402411324,156.2730846725694L155.84160118103026,156.2850939976484L157.69685833794728,156.3010599433684L159.55211549486432,156.32733744441177L161.40737265178134,156.3499225924395L163.2626298086984,156.36324664309078L165.1178869656154,156.36568444389115" fill="none"></path></g></g></g></g><g opacity="0.2"><g><g><g><path style="fill: none;" stroke="rgb(51, 187, 238)" stroke-width="2px" d="M18.55257156917027,43.37880144597588L18.55257156917027,42.176874617227355L20.4078287260873,59.7774662448857L22.263085883004326,71.50706169960182L24.118343039921353,79.53718903867808L25.97360019683838,85.64416914511658L27.828857353755403,91.01626011406071L29.684114510672433,95.47546116580722L31.53937166758946,99.53428907650151L33.39462882450648,102.96750269412948L35.24988598142351,106.10738157309545L37.10514313834054,108.94485133196785L38.960400295257564,111.74255100655043L40.8156574521746,114.16409970783909L42.670914609091625,116.0224794361568L44.52617176600865,118.0241736570443L46.38142892292568,119.9741939200475L48.236686079842706,121.64578429451959L50.09194323675973,123.1741101926975L51.94720039367676,124.55289099940146L53.802457550593786,126.0061210323465L55.657714707510806,127.01469208478042L57.51297186442784,127.8783088253229L59.36822902134487,128.9125025012321L61.22348617826189,129.70400649012254L63.07874333517892,130.40723889774875L64.93400049209595,131.2586981107276L66.78925764901297,131.91052807739425L68.64451480593,132.4325193651761L70.49977196284702,133.08476375241204L72.35502911976405,133.36879367751558L74.21028627668107,148.12853408881136L76.06554343359811,152.1635471071345L77.92080059051513,154.0372001090418L79.77605774743216,155.2737913428033L81.6313149043492,156.21226324525225L83.48657206126623,157.01826168286928L85.34182921818325,157.45329967550828L87.19708637510027,157.90348969692593L89.0523435320173,158.2735060847019L90.90760068893432,158.60003890301113L92.76285784585136,158.8654036025485L94.61811500276838,159.2276463669891L96.47337215968541,159.368774768727L98.32862931660243,159.41937996365064L100.18388647351946,159.502327714293L102.03914363043648,159.4868347263498L103.89440078735352,159.58583770146203L105.74965794427054,159.61005763635086L107.60491510118757,159.66216142160366L109.46017225810459,159.66965649447553L111.31542941502161,159.69447104249804L113.17068657193865,159.7505063526292L115.02594372885568,159.71651359474586L116.88120088577271,159.7291396899629L118.73645804268973,159.77557477790776L120.59171519960677,159.7431541834019L122.44697235652379,159.7617034114003L124.30222951344082,159.78438233144047L126.15748667035784,159.78363454346274L128.01274382727487,159.78967010122076L129.8680009841919,159.77885073231656L131.72325814110891,159.83978261350097L133.57851529802593,159.7837792334029L135.43377245494298,159.80069623383574L137.28902961186,159.74422462101467L139.14428676877702,159.80105606074707L140.99954392569404,159.80029197282238L142.8548010826111,159.78985442459359L144.7100582395281,159.78206773897196L146.56531539644513,159.82672624434156L148.42057255336215,159.7738642882681L150.2758297102792,159.83925587959848L152.13108686719622,159.79056403050376L153.98634402411324,159.78766643582273L155.84160118103026,159.81404723011863L157.69685833794728,159.8319259274222L159.55211549486432,159.76740392709783L161.40737265178134,159.79048543349924L163.2626298086984,159.83671788854184L165.1178869656154,159.786139822982L166.97314412253246,159.79047527394326L168.82840127944948,159.7767325207159L170.6836584363665,159.77104875153924L172.53891559328352,159.7810207464884L174.39417275020054,159.790948418979L176.2494299071176,159.7834951007658L178.1046870640346,159.78573064965587L179.95994422095163,159.80203751851238L181.81520137786865,159.79549967677232L183.6704585347857,159.82232871960966L185.52571569170271,159.80728844594682L187.38097284861973,159.77682295192852L189.23623000553675,159.8352352632292L191.0914871624538,159.77476927025486L192.94674431937082,159.78603141717036L194.80200147628784,159.7740325349809L196.65725863320486,159.8143064662614L198.51251579012188,159.8078874131759L200.36777294703893,159.7942607691598L202.22303010395595,159.83055438736451L204.07828726087297,159.77767144231828L205.93354441779,159.78039197045217L207.78880157470704,159.7626772774095L209.64405873162406,159.79445268428873L211.49931588854108,159.75565959202532L213.3545730454581,159.80142716364912L215.20983020237514,159.81053291689642L217.06508735929216,159.75987268174092L218.92034451620918,159.81887201441916L220.7756016731262,159.78678043322626L222.63085883004322,159.79670676599522L224.48611598696027,159.77926783232923L226.3413731438773,159.76834820758688L228.19663030079434,159.75720094180443L230.05188745771136,159.78004286131417L231.9071446146284,159.79391713055193L233.76240177154543,159.81351435582516L235.61765892846245,159.79666668598867L237.47291608537947,159.80164911087212L239.3281732422965,159.82606933415033" fill="none"></path></g><g><path style="fill: none;" stroke="rgb(0, 119, 187)" stroke-width="2px" d="M18.55257156917027,38.91792127640545L20.4078287260873,49.62597717294098L22.263085883004326,60.603263535886995L24.118343039921353,68.76790607561729L25.97360019683838,75.23592509493419L27.828857353755403,80.32750335472728L29.684114510672433,85.02349574556202L31.53937166758946,88.98221965321991L33.39462882450648,92.63338633698784L35.24988598142351,95.75937498169951L37.10514313834054,98.89844645507354L38.960400295257564,101.56812232705764L40.8156574521746,104.29411652537529L42.670914609091625,106.66564537846577L44.52617176600865,108.8111292465413L46.38142892292568,110.80660358629795L48.236686079842706,112.60629636037304L50.09194323675973,114.42909665377857L51.94720039367676,115.7034399044239L53.802457550593786,117.51416483986145L55.657714707510806,118.41354679005407L57.51297186442784,120.03870777039835L59.36822902134487,120.83174440087704L61.22348617826189,121.94438503248477L63.07874333517892,122.74295917919139L64.93400049209595,123.64391306947451L66.78925764901297,123.81445785152121L68.64451480593,124.97433528284867L70.49977196284702,125.32410981594212L72.35502911976405,126.08397136532888L74.21028627668107,126.86980565212015L76.06554343359811,142.62191184255317L77.92080059051513,148.12238744579838L79.77605774743216,150.96942996256286L81.6313149043492,153.06044878594565L83.48657206126623,154.85684048583067L85.34182921818325,156.18614805077704L87.19708637510027,157.21669143171468L89.0523435320173,158.05773520187225L90.90760068893432,158.6260194554587L92.76285784585136,159.14096771478816L94.61811500276838,159.4618689014223L96.47337215968541,159.69520253052877L98.32862931660243,160.12178777259018L100.18388647351946,160.23589276020545L102.03914363043648,160.3292720861508L103.89440078735352,160.3881205326762L105.74965794427054,160.42624661101414L107.60491510118757,160.46795638899235L109.46017225810459,160.48847880372085L111.31542941502161,160.5222518751615L113.17068657193865,160.54472947411014L115.02594372885568,160.56009577462308L116.88120088577271,160.57415274840332L118.73645804268973,160.59484547524886L120.59171519960677,160.62194910520643L122.44697235652379,160.6206076809754L124.30222951344082,160.61824357462694L126.15748667035784,160.61142564732566L128.01274382727487,160.60155111712785L129.8680009841919,160.6164811149509L131.72325814110891,160.62296238136133L133.57851529802593,160.62612418031966L135.43377245494298,160.61996235379445L137.28902961186,160.61628336645052L139.14428676877702,160.63203271571703L140.99954392569404,160.62752896222122L142.8548010826111,160.63373045009L144.7100582395281,160.6220155888942L146.56531539644513,160.6285606595491L148.42057255336215,160.63265574211442L150.2758297102792,160.62591571404596L152.13108686719622,160.61824039278798L153.98634402411324,160.63154541987114L155.84160118103026,160.64180057057703L157.69685833794728,160.61658815312998L159.55211549486432,160.6293959760091L161.40737265178134,160.6281492812644L163.2626298086984,160.63662103914317L165.1178869656154,160.62825266311978" fill="none"></path></g><g><path style="fill: none;" stroke="rgb(204, 51, 17)" stroke-width="2px" d="M18.55257156917027,102.1857268708446L20.4078287260873,111.51655246521997L22.263085883004326,114.71368568939158L24.118343039921353,115.86428152900282L25.97360019683838,116.28849814315512L27.828857353755403,116.69790279454551L29.684114510672433,116.85955182471639L31.53937166758946,117.14546271904186L33.39462882450648,117.20340657433263L35.24988598142351,117.27540500306897L37.10514313834054,117.4661063441853L38.960400295257564,117.42980524586793L40.8156574521746,117.50791280541057L42.670914609091625,117.52627592374058L44.52617176600865,117.67301653118943L46.38142892292568,117.82846354318502L48.236686079842706,117.88935835873662L50.09194323675973,117.92385529854103L51.94720039367676,118.05888137972448L53.802457550593786,118.0671947992486L55.657714707510806,118.07112107688374L57.51297186442784,118.13603863003058L59.36822902134487,118.02904667132488L61.22348617826189,118.14154399293847L63.07874333517892,118.20400717598945L64.93400049209595,118.2041679425896L66.78925764901297,118.19847323235264L68.64451480593,118.12559594620205L70.49977196284702,118.2064794090409L72.35502911976405,118.22862232877034L74.21028627668107,127.63150708593102L76.06554343359811,130.4552473771493L77.92080059051513,131.53758529092138L79.77605774743216,132.32250499438726L81.6313149043492,133.12603432497008L83.48657206126623,133.9033390504748L85.34182921818325,134.62793733926304L87.19708637510027,135.30970026058495L89.0523435320173,135.92903751106257L90.90760068893432,136.427751581436L92.76285784585136,136.97053356321038L94.61811500276838,137.45313524765615L96.47337215968541,137.83564900572551L98.32862931660243,138.19207748977024L100.18388647351946,138.5563585290853L102.03914363043648,138.95192117620144L103.89440078735352,139.2171378364945L105.74965794427054,139.44844703451707L107.60491510118757,139.67640335577843L109.46017225810459,139.94074473124834L111.31542941502161,140.13090482481078L113.17068657193865,140.33840806194L115.02594372885568,140.55189181659534L116.88120088577271,140.7222204568796L118.73645804268973,140.83610751643684L120.59171519960677,148.51247777647444L122.44697235652379,151.52579136316456L124.30222951344082,153.1455997088711L126.15748667035784,154.41860770358727L128.01274382727487,155.44027364217857L129.8680009841919,156.33426499895285L131.72325814110891,157.06040620052877L133.57851529802593,157.70470514512544L135.43377245494298,158.2530623786214L137.28902961186,158.67855329136697L139.14428676877702,159.05760364563747L140.99954392569404,159.32453782910898L142.8548010826111,159.8332475628477L144.7100582395281,159.97536769355042L146.56531539644513,160.04593736494954L148.42057255336215,160.09680386142017L150.2758297102792,160.11979393181772L152.13108686719622,160.14985622543568L153.98634402411324,160.19789836534312L155.84160118103026,160.21631144412703L157.69685833794728,160.24776593184504L159.55211549486432,160.26287503370858L161.40737265178134,160.28499372680454L163.2626298086984,160.30619660849692L165.1178869656154,160.30589980432572" fill="none"></path></g><g><path style="fill: none;" stroke="rgb(0, 153, 136)" stroke-width="2px" d="M18.55257156917027,146.3770436072048L20.4078287260873,149.4091320533509L22.263085883004326,150.74216583083L24.118343039921353,151.57641408611335L25.97360019683838,152.17130141614913L27.828857353755403,152.65325824789866L29.684114510672433,153.0132209177037L31.53937166758946,153.30667801761138L33.39462882450648,153.61790741859346L35.24988598142351,153.82441077678442L37.10514313834054,154.0391761985022L38.960400295257564,154.22575923521094L40.8156574521746,154.35133000743522L42.670914609091625,154.46002073321603L44.52617176600865,154.68168348865478L46.38142892292568,154.8003676449314L48.236686079842706,154.93339888055115L50.09194323675973,155.0446404363879L51.94720039367676,155.16307674415594L53.802457550593786,155.23736743666632L55.657714707510806,155.3073946882551L57.51297186442784,155.37231179482805L59.36822902134487,155.5242674921567L61.22348617826189,155.61658681915398L63.07874333517892,155.71001677541406L64.93400049209595,155.78707399316895L66.78925764901297,155.8518312262895L68.64451480593,155.93232840271403L70.49977196284702,156.03057555151852L72.35502911976405,156.07381640807637L74.21028627668107,156.18707290530187L76.06554343359811,156.24697855968856L77.92080059051513,156.3610205803854L79.77605774743216,156.3842937786288L81.6313149043492,156.45881401011832L83.48657206126623,156.5298759734087L85.34182921818325,156.61892236037093L87.19708637510027,156.6727818508697L89.0523435320173,156.7561111989005L90.90760068893432,156.80826968945476L92.76285784585136,156.86050633043965L94.61811500276838,156.9246687271396L96.47337215968541,156.9923126138809L98.32862931660243,158.33390408680157L100.18388647351946,158.86071859587534L102.03914363043648,159.07126679706906L103.89440078735352,159.20716738157134L105.74965794427054,159.329972075125L107.60491510118757,159.41504652227187L109.46017225810459,159.49642021159775L111.31542941502161,159.56507949571994L113.17068657193865,159.63762575897505L115.02594372885568,159.69564408046188L116.88120088577271,159.74647479519962L118.73645804268973,159.80963552666577L120.59171519960677,159.94676284964208L122.44697235652379,159.964744928801L124.30222951344082,159.98138784450924L126.15748667035784,159.98841948532746L128.01274382727487,159.99689489952993L129.8680009841919,160.00953517346795L131.72325814110891,160.00758453871927L133.57851529802593,160.01990093494405L135.43377245494298,160.02647628889082L137.28902961186,160.03442457843866L139.14428676877702,160.0428595218824L140.99954392569404,160.05299725156624L142.8548010826111,160.05670292170007L144.7100582395281,160.05653020924836L146.56531539644513,160.05688981287275L148.42057255336215,160.05006387515232L150.2758297102792,160.05662879043442L152.13108686719622,160.05924962094755L153.98634402411324,160.05831572330143L155.84160118103026,160.05884189898657L157.69685833794728,160.0569780112159L159.55211549486432,160.06084796471924L161.40737265178134,160.0555919016851L163.2626298086984,160.05501721691124L165.1178869656154,160.0614961108979" fill="none"></path></g><g><path style="fill: none;" stroke="rgb(238, 51, 119)" stroke-width="2px" d="M18.55257156917027,37.59111809783056L20.4078287260873,48.76852672466262L22.263085883004326,58.55917694883142L24.118343039921353,65.65570763260871L25.97360019683838,71.42863617944998L27.828857353755403,76.35415325904543L29.684114510672433,80.60073512318638L31.53937166758946,84.39099706941751L33.39462882450648,87.70675460896454L35.24988598142351,90.6748990330426L37.10514313834054,93.24450662790146L38.960400295257564,95.86629548858294L40.8156574521746,97.94197092627547L42.670914609091625,99.97202437543217L44.52617176600865,101.88171008474939L46.38142892292568,103.19047525078571L48.236686079842706,104.90300394684216L50.09194323675973,106.08892913998757L51.94720039367676,107.37630520301964L53.802457550593786,108.42179541203379L55.657714707510806,109.56130907400699L57.51297186442784,110.28453727410268L59.36822902134487,111.20754119674629L61.22348617826189,112.1716870786678L63.07874333517892,112.5876152814338L64.93400049209595,113.32603771154069L66.78925764901297,113.85849669128889L68.64451480593,114.11790253213374L70.49977196284702,114.75164089739508L72.35502911976405,115.24819533643964L74.21028627668107,115.5089051730414L76.06554343359811,116.05845185609161L77.92080059051513,116.08088058311026L79.77605774743216,116.56424501575901L81.6313149043492,116.97152754802723L83.48657206126623,116.96820503829046L85.34182921818325,117.51935224216012L87.19708637510027,117.57796059939824L89.0523435320173,117.78880420921976L90.90760068893432,117.80972530278797L92.76285784585136,118.15914614936105L94.61811500276838,118.35264482932025L96.47337215968541,118.40619797013095L98.32862931660243,118.66394970128965L100.18388647351946,118.94170437010006L102.03914363043648,118.79342397588073L103.89440078735352,119.0953758043116L105.74965794427054,118.99262451125914L107.60491510118757,119.1421445945953L109.46017225810459,133.97295098834647L111.31542941502161,138.85384640491824L113.17068657193865,141.28155961217544L115.02594372885568,143.12101353906257L116.88120088577271,144.73598191695638L118.73645804268973,145.92009580640658L120.59171519960677,147.2529393434088L122.44697235652379,148.13431186179176L124.30222951344082,149.0473616524418L126.15748667035784,149.91807623838156L128.01274382727487,150.50154735351003L129.8680009841919,151.0487325538334L131.72325814110891,153.16494261031434L133.57851529802593,153.77793717184156L135.43377245494298,154.14438364794606L137.28902961186,154.30619835702987L139.14428676877702,154.55897525506123L140.99954392569404,154.83763155655424L142.8548010826111,154.89802040388918L144.7100582395281,155.07089630163827L146.56531539644513,155.0932419659135L148.42057255336215,155.32157787498082L150.2758297102792,155.43414754156447L152.13108686719622,155.75379173434357L153.98634402411324,155.72151649963868L155.84160118103026,155.71335491523695L157.69685833794728,155.91429753535772L159.55211549486432,155.80556036589243L161.40737265178134,155.82259314060607L163.2626298086984,155.83573670331737L165.1178869656154,155.88786527342106" fill="none"></path></g><g><path style="fill: none;" stroke="rgb(255, 112, 67)" stroke-width="2px" d="M18.55257156917027,35.85962608813679L20.4078287260873,42.50328797702119L22.263085883004326,49.917965044752705L24.118343039921353,57.121544848693546L25.97360019683838,62.72402507344819L27.828857353755403,67.65748759568297L29.684114510672433,72.09090882994514L31.53937166758946,76.35517502010428L33.39462882450648,80.0039980841009L35.24988598142351,83.37168680809253L37.10514313834054,86.41038276150543L38.960400295257564,89.1919664775692L40.8156574521746,91.8104542640606L42.670914609091625,94.18126145374588L44.52617176600865,96.3977612880012L46.38142892292568,98.34132230626885L48.236686079842706,100.15952824750077L50.09194323675973,101.91411348616053L51.94720039367676,103.28732819590765L53.802457550593786,104.72463876284519L55.657714707510806,106.03329317855696L57.51297186442784,107.18324952435866L59.36822902134487,108.46220141754206L61.22348617826189,109.17615874369488L63.07874333517892,109.89643241093867L64.93400049209595,110.98391485591605L66.78925764901297,111.76362214894547L68.64451480593,112.3007540778718L70.49977196284702,112.99680200476618L72.35502911976405,113.67274338886654L74.21028627668107,113.78809521078085L76.06554343359811,114.47239645808982L77.92080059051513,114.89246886654897L79.77605774743216,115.23864937298093L81.6313149043492,115.64265941178797L83.48657206126623,116.1384064452406L85.34182921818325,116.45517023643339L87.19708637510027,116.7992357689254L89.0523435320173,117.464073539841L90.90760068893432,117.29514714156929L92.76285784585136,133.236673899204L94.61811500276838,138.3170842391723L96.47337215968541,141.24744315332475L98.32862931660243,143.37026071707254L100.18388647351946,145.03576696887612L102.03914363043648,146.4608217619944L103.89440078735352,147.66058895941404L105.74965794427054,148.68797684924957L107.60491510118757,149.79020873664436L109.46017225810459,150.3012661093194L111.31542941502161,151.01169728804194L113.17068657193865,151.37052923275914L115.02594372885568,153.68070508548757L116.88120088577271,154.32637858451565L118.73645804268973,154.81971143952245L120.59171519960677,155.10366634021256L122.44697235652379,155.2828920720943L124.30222951344082,155.439731054903L126.15748667035784,155.63351420242975L128.01274382727487,155.8931455630887L129.8680009841919,155.99156285654504L131.72325814110891,156.22809830879467L133.57851529802593,156.292186574229L135.43377245494298,156.5522930895062L137.28902961186,156.57513266450306L139.14428676877702,156.63965901892283L140.99954392569404,156.64805192859924L142.8548010826111,156.62135350862454L144.7100582395281,156.66121156797058L146.56531539644513,156.68664171809954L148.42057255336215,156.59897345815983L150.2758297102792,156.65651316408074L152.13108686719622,156.70710194741395L153.98634402411324,156.70155415998656L155.84160118103026,156.73223021359368L157.69685833794728,156.72025220873357L159.55211549486432,156.80823887585638L161.40737265178134,156.76825532924744L163.2626298086984,156.73635298374015L165.1178869656154,156.78739459299715" fill="none"></path></g><g><path style="fill: none;" stroke="rgb(187, 187, 187)" stroke-width="2px" d="M18.55257156917027,101.3714761943263L20.4078287260873,108.77934747598412L22.263085883004326,111.19150740782311L24.118343039921353,112.31903502660617L25.97360019683838,112.98354769173031L27.828857353755403,113.50075528000947L29.684114510672433,113.88512678545852L31.53937166758946,114.21391234575259L33.39462882450648,114.53188724533328L35.24988598142351,114.722631457543L37.10514313834054,114.86219830203336L38.960400295257564,114.96421006872505L40.8156574521746,115.1068922126675L42.670914609091625,115.10266940996982L44.52617176600865,115.25353993274737L46.38142892292568,115.22549509249627L48.236686079842706,115.30016224679537L50.09194323675973,115.29300277420134L51.94720039367676,115.31037628479255L53.802457550593786,115.34441950552538L55.657714707510806,115.3740398584581L57.51297186442784,115.41069464329584L59.36822902134487,115.3308007881958L61.22348617826189,115.47620524656773L63.07874333517892,115.40706846331432L64.93400049209595,115.52384574908343L66.78925764901297,115.50890160045029L68.64451480593,115.51324229865475L70.49977196284702,124.76138027167832L72.35502911976405,127.46666415930352L74.21028627668107,128.435725926599L76.06554343359811,129.22969857594975L77.92080059051513,129.93394202686147L79.77605774743216,130.5380064503234L81.6313149043492,131.1848490797938L83.48657206126623,131.73614811878582L85.34182921818325,132.2983578510424L87.19708637510027,132.8077611140313L89.0523435320173,133.20612467258144L90.90760068893432,133.6137144476855L92.76285784585136,133.90948212089668L94.61811500276838,134.1841036272994L96.47337215968541,134.53458731972916L98.32862931660243,134.76610194174083L100.18388647351946,135.04462829023203L102.03914363043648,135.2181901254752L103.89440078735352,135.4296410757862L105.74965794427054,135.62065323232952L107.60491510118757,135.7910229574116L109.46017225810459,135.89091975016333L111.31542941502161,136.0635277035788L113.17068657193865,136.2372092206243L115.02594372885568,136.2431968833327L116.88120088577271,136.4704672671L118.73645804268973,136.56283661037287L120.59171519960677,136.64811971916959L122.44697235652379,136.74193417554838L124.30222951344082,136.85812555637466L126.15748667035784,136.90415839288875L128.01274382727487,137.07016955681075L129.8680009841919,144.56625883086608L131.72325814110891,147.4989854797799L133.57851529802593,148.96534299877624L135.43377245494298,150.10726190771743L137.28902961186,150.92464128090452L139.14428676877702,151.661112183115L140.99954392569404,152.2714688326778L142.8548010826111,152.69018990854778L144.7100582395281,153.06511191049825L146.56531539644513,153.34315595918895L148.42057255336215,153.58094717721542L150.2758297102792,153.74613128629437L152.13108686719622,155.3625947935697L153.98634402411324,155.9221545563669L155.84160118103026,156.1407975791659L157.69685833794728,156.30476566754416L159.55211549486432,156.43182263767218L161.40737265178134,156.55833210821189L163.2626298086984,156.62760866909264L165.1178869656154,156.74281982023183" fill="none"></path></g><g><path style="fill: none;" stroke="rgb(238, 51, 119)" stroke-width="2px" d="M18.55257156917027,130.346804946451L20.4078287260873,134.6522774025281L22.263085883004326,137.135489026458L24.118343039921353,138.92524999723398L25.97360019683838,140.18871113534365L27.828857353755403,141.20940398943006L29.684114510672433,141.97039090501795L31.53937166758946,142.73161003902834L33.39462882450648,143.3126419675732L35.24988598142351,143.81334061231092L37.10514313834054,144.3226599194086L38.960400295257564,144.74813765822444L40.8156574521746,145.1022010869512L42.670914609091625,145.334808921844L44.52617176600865,145.68445305536176L46.38142892292568,145.92191604157955L48.236686079842706,146.17485549250665L50.09194323675973,146.39547639106155L51.94720039367676,146.57411666457438L53.802457550593786,146.73069618795336L55.657714707510806,146.9071920136495L57.51297186442784,147.17240152876033L59.36822902134487,147.2258876834876L61.22348617826189,147.22208733968927L63.07874333517892,147.41442224809282L64.93400049209595,147.65600175242264L66.78925764901297,147.76968964002526L68.64451480593,148.02106965493073L70.49977196284702,148.21556330151543L72.35502911976405,148.3885490564413L74.21028627668107,148.51062270853808L76.06554343359811,148.63273030025047L77.92080059051513,148.75566494680592L79.77605774743216,148.86961541985545L81.6313149043492,148.96381928866577L83.48657206126623,149.10264392735203L85.34182921818325,149.18124271817297L87.19708637510027,149.26936782320146L89.0523435320173,149.40337750221278L90.90760068893432,149.5110393217525L92.76285784585136,149.59361262018862L94.61811500276838,149.68894542779123L96.47337215968541,149.78651825002277L98.32862931660243,149.87979056569992L100.18388647351946,149.9796730680872L102.03914363043648,150.0760964091276L103.89440078735352,150.11896839565284L105.74965794427054,150.23160147572878L107.60491510118757,150.29144059060596L109.46017225810459,150.36413388831414L111.31542941502161,150.4883725306265L113.17068657193865,150.50861929762178L115.02594372885568,150.6511808666141L116.88120088577271,153.13344843334193L118.73645804268973,154.05360902003204L120.59171519960677,154.40724998985948L122.44697235652379,154.6704057116532L124.30222951344082,154.84770671007183L126.15748667035784,155.020235173335L128.01274382727487,155.15670324160718L129.8680009841919,155.3057633538373L131.72325814110891,155.39261572328115L133.57851529802593,155.50529747991106L135.43377245494298,155.57076744495902L137.28902961186,155.7002296620551L139.14428676877702,156.07300453674554L140.99954392569404,156.15249602877128L142.8548010826111,156.18340206793144L144.7100582395281,156.2077751776643L146.56531539644513,156.22949921108557L148.42057255336215,156.24621313204221L150.2758297102792,156.2938219278118L152.13108686719622,156.2820640838791L153.98634402411324,156.3065617877271L155.84160118103026,156.3031079852669L157.69685833794728,156.32500886194833L159.55211549486432,156.36675369597685L161.40737265178134,156.38380031448108L163.2626298086984,156.3832327190677L165.1178869656154,156.36934114509174" fill="none"></path></g></g></g></g></g></g><g transform="translate(70, 175)" clip-path="url(#clip_1)"><clipPath id="clip_1"><rect width="259" height="24"></rect></clipPath><g><g><line x1="0" y1="0" x2="0" y2="5" style="visibility: inherit;" fill="rgb(0, 0, 0)" stroke="rgb(204, 204, 204)" stroke-width="1px"></line><line x1="18.55257156917027" y1="0" x2="18.55257156917027" y2="5" style="visibility: inherit;" fill="rgb(0, 0, 0)" stroke="rgb(204, 204, 204)" stroke-width="1px"></line><line x1="37.10514313834054" y1="0" x2="37.10514313834054" y2="5" style="visibility: inherit;" fill="rgb(0, 0, 0)" stroke="rgb(204, 204, 204)" stroke-width="1px"></line><line x1="55.657714707510806" y1="0" x2="55.657714707510806" y2="5" style="visibility: inherit;" fill="rgb(0, 0, 0)" stroke="rgb(204, 204, 204)" stroke-width="1px"></line><line x1="74.21028627668107" y1="0" x2="74.21028627668107" y2="5" style="visibility: inherit;" fill="rgb(0, 0, 0)" stroke="rgb(204, 204, 204)" stroke-width="1px"></line><line x1="92.76285784585136" y1="0" x2="92.76285784585136" y2="5" style="visibility: inherit;" fill="rgb(0, 0, 0)" stroke="rgb(204, 204, 204)" stroke-width="1px"></line><line x1="111.31542941502161" y1="0" x2="111.31542941502161" y2="5" style="visibility: inherit;" fill="rgb(0, 0, 0)" stroke="rgb(204, 204, 204)" stroke-width="1px"></line><line x1="129.8680009841919" y1="0" x2="129.8680009841919" y2="5" style="visibility: inherit;" fill="rgb(0, 0, 0)" stroke="rgb(204, 204, 204)" stroke-width="1px"></line><line x1="148.42057255336215" y1="0" x2="148.42057255336215" y2="5" style="visibility: inherit;" fill="rgb(0, 0, 0)" stroke="rgb(204, 204, 204)" stroke-width="1px"></line><line x1="166.97314412253246" y1="0" x2="166.97314412253246" y2="5" style="visibility: inherit;" fill="rgb(0, 0, 0)" stroke="rgb(204, 204, 204)" stroke-width="1px"></line><line x1="185.52571569170271" y1="0" x2="185.52571569170271" y2="5" style="visibility: inherit;" fill="rgb(0, 0, 0)" stroke="rgb(204, 204, 204)" stroke-width="1px"></line><line x1="204.07828726087297" y1="0" x2="204.07828726087297" y2="5" style="visibility: inherit;" fill="rgb(0, 0, 0)" stroke="rgb(204, 204, 204)" stroke-width="1px"></line><line x1="222.63085883004322" y1="0" x2="222.63085883004322" y2="5" style="visibility: inherit;" fill="rgb(0, 0, 0)" stroke="rgb(204, 204, 204)" stroke-width="1px"></line><line x1="241.18343039921353" y1="0" x2="241.18343039921353" y2="5" style="visibility: inherit;" fill="rgb(0, 0, 0)" stroke="rgb(204, 204, 204)" stroke-width="1px"></line><line x1="259.7360019683838" y1="0" x2="259.7360019683838" y2="5" style="visibility: inherit;" fill="rgb(0, 0, 0)" stroke="rgb(204, 204, 204)" stroke-width="1px"></line></g><g transform="translate(0, 8)"><text style="text-anchor: middle; visibility: hidden; font-family: &quot;Helvetica Neue&quot;, sans-serif; font-size: 12px; font-weight: 200;" x="0" y="0" dx="0em" dy="0.95em" fill="rgb(50, 49, 63)" stroke="none" stroke-width="1px">-10</text><text style="text-anchor: middle; visibility: inherit; font-family: &quot;Helvetica Neue&quot;, sans-serif; font-size: 12px; font-weight: 200;" x="18.55257156917027" y="0" dx="0em" dy="0.95em" fill="rgb(50, 49, 63)" stroke="none" stroke-width="1px">0</text><text style="text-anchor: middle; visibility: hidden; font-family: &quot;Helvetica Neue&quot;, sans-serif; font-size: 12px; font-weight: 200;" x="37.10514313834054" y="0" dx="0em" dy="0.95em" fill="rgb(50, 49, 63)" stroke="none" stroke-width="1px">10</text><text style="text-anchor: middle; visibility: inherit; font-family: &quot;Helvetica Neue&quot;, sans-serif; font-size: 12px; font-weight: 200;" x="55.657714707510806" y="0" dx="0em" dy="0.95em" fill="rgb(50, 49, 63)" stroke="none" stroke-width="1px">20</text><text style="text-anchor: middle; visibility: hidden; font-family: &quot;Helvetica Neue&quot;, sans-serif; font-size: 12px; font-weight: 200;" x="74.21028627668107" y="0" dx="0em" dy="0.95em" fill="rgb(50, 49, 63)" stroke="none" stroke-width="1px">30</text><text style="text-anchor: middle; visibility: inherit; font-family: &quot;Helvetica Neue&quot;, sans-serif; font-size: 12px; font-weight: 200;" x="92.76285784585136" y="0" dx="0em" dy="0.95em" fill="rgb(50, 49, 63)" stroke="none" stroke-width="1px">40</text><text style="text-anchor: middle; visibility: hidden; font-family: &quot;Helvetica Neue&quot;, sans-serif; font-size: 12px; font-weight: 200;" x="111.31542941502161" y="0" dx="0em" dy="0.95em" fill="rgb(50, 49, 63)" stroke="none" stroke-width="1px">50</text><text style="text-anchor: middle; visibility: inherit; font-family: &quot;Helvetica Neue&quot;, sans-serif; font-size: 12px; font-weight: 200;" x="129.8680009841919" y="0" dx="0em" dy="0.95em" fill="rgb(50, 49, 63)" stroke="none" stroke-width="1px">60</text><text style="text-anchor: middle; visibility: hidden; font-family: &quot;Helvetica Neue&quot;, sans-serif; font-size: 12px; font-weight: 200;" x="148.42057255336215" y="0" dx="0em" dy="0.95em" fill="rgb(50, 49, 63)" stroke="none" stroke-width="1px">70</text><text style="text-anchor: middle; visibility: inherit; font-family: &quot;Helvetica Neue&quot;, sans-serif; font-size: 12px; font-weight: 200;" x="166.97314412253246" y="0" dx="0em" dy="0.95em" fill="rgb(50, 49, 63)" stroke="none" stroke-width="1px">80</text><text style="text-anchor: middle; visibility: hidden; font-family: &quot;Helvetica Neue&quot;, sans-serif; font-size: 12px; font-weight: 200;" x="185.52571569170271" y="0" dx="0em" dy="0.95em" fill="rgb(50, 49, 63)" stroke="none" stroke-width="1px">90</text><text style="text-anchor: middle; visibility: inherit; font-family: &quot;Helvetica Neue&quot;, sans-serif; font-size: 12px; font-weight: 200;" x="204.07828726087297" y="0" dx="0em" dy="0.95em" fill="rgb(50, 49, 63)" stroke="none" stroke-width="1px">100</text><text style="text-anchor: middle; visibility: hidden; font-family: &quot;Helvetica Neue&quot;, sans-serif; font-size: 12px; font-weight: 200;" x="222.63085883004322" y="0" dx="0em" dy="0.95em" fill="rgb(50, 49, 63)" stroke="none" stroke-width="1px">110</text><text style="text-anchor: middle; visibility: inherit; font-family: &quot;Helvetica Neue&quot;, sans-serif; font-size: 12px; font-weight: 200;" x="241.18343039921353" y="0" dx="0em" dy="0.95em" fill="rgb(50, 49, 63)" stroke="none" stroke-width="1px">120</text><text style="text-anchor: middle; visibility: hidden; font-family: &quot;Helvetica Neue&quot;, sans-serif; font-size: 12px; font-weight: 200;" x="259.7360019683838" y="0" dx="0em" dy="0.95em" fill="rgb(50, 49, 63)" stroke="none" stroke-width="1px">130</text></g><line x1="0" y1="0" x2="259.7360019683838" y2="0" fill="rgb(0, 0, 0)" stroke="rgb(204, 204, 204)" stroke-width="1px"></line></g></g></g></g></svg>