<svg viewBox="0 0 330 200" xmlns="http://www.w3.org/2000/svg"><g><g><g><g><g><line x1="70.26399803161621" y1="175.61999893188477" x2="65.26399803161621" y2="175.61999893188477" style="visibility: inherit;" fill="rgb(0, 0, 0)" stroke="rgb(204, 204, 204)" stroke-width="1px"></line><line x1="70.26399803161621" y1="160.98499902089438" x2="65.26399803161621" y2="160.98499902089438" style="visibility: inherit;" fill="rgb(0, 0, 0)" stroke="rgb(204, 204, 204)" stroke-width="1px"></line><line x1="70.26399803161621" y1="146.34999910990396" x2="65.26399803161621" y2="146.34999910990396" style="visibility: inherit;" fill="rgb(0, 0, 0)" stroke="rgb(204, 204, 204)" stroke-width="1px"></line><line x1="70.26399803161621" y1="131.71499919891357" x2="65.26399803161621" y2="131.71499919891357" style="visibility: inherit;" fill="rgb(0, 0, 0)" stroke="rgb(204, 204, 204)" stroke-width="1px"></line><line x1="70.26399803161621" y1="117.07999928792319" x2="65.26399803161621" y2="117.07999928792319" style="visibility: inherit;" fill="rgb(0, 0, 0)" stroke="rgb(204, 204, 204)" stroke-width="1px"></line><line x1="70.26399803161621" y1="102.44499937693277" x2="65.26399803161621" y2="102.44499937693277" style="visibility: inherit;" fill="rgb(0, 0, 0)" stroke="rgb(204, 204, 204)" stroke-width="1px"></line><line x1="70.26399803161621" y1="87.80999946594238" x2="65.26399803161621" y2="87.80999946594238" style="visibility: inherit;" fill="rgb(0, 0, 0)" stroke="rgb(204, 204, 204)" stroke-width="1px"></line><line x1="70.26399803161621" y1="73.17499955495198" x2="65.26399803161621" y2="73.17499955495198" style="visibility: inherit;" fill="rgb(0, 0, 0)" stroke="rgb(204, 204, 204)" stroke-width="1px"></line><line x1="70.26399803161621" y1="58.53999964396159" x2="65.26399803161621" y2="58.53999964396159" style="visibility: inherit;" fill="rgb(0, 0, 0)" stroke="rgb(204, 204, 204)" stroke-width="1px"></line><line x1="70.26399803161621" y1="43.90499973297119" x2="65.26399803161621" y2="43.90499973297119" style="visibility: inherit;" fill="rgb(0, 0, 0)" stroke="rgb(204, 204, 204)" stroke-width="1px"></line><line x1="70.26399803161621" y1="29.269999821980775" x2="65.26399803161621" y2="29.269999821980775" style="visibility: inherit;" fill="rgb(0, 0, 0)" stroke="rgb(204, 204, 204)" stroke-width="1px"></line><line x1="70.26399803161621" y1="14.634999910990416" x2="65.26399803161621" y2="14.634999910990416" style="visibility: inherit;" fill="rgb(0, 0, 0)" stroke="rgb(204, 204, 204)" stroke-width="1px"></line><line x1="70.26399803161621" y1="0" x2="65.26399803161621" y2="0" style="visibility: inherit;" fill="rgb(0, 0, 0)" stroke="rgb(204, 204, 204)" stroke-width="1px"></line></g><g transform="translate(60.26399803161621, 0)"><text style="text-anchor: end; visibility: hidden; font-family: &quot;Helvetica Neue&quot;, sans-serif; font-size: 12px; font-weight: 200;" x="0" y="175.61999893188477" dx="0em" dy="0.3em" fill="rgb(50, 49, 63)" stroke="none" stroke-width="1px">-1e+3</text><text style="text-anchor: end; visibility: inherit; font-family: &quot;Helvetica Neue&quot;, sans-serif; font-size: 12px; font-weight: 200;" x="0" y="160.98499902089438" dx="0em" dy="0.3em" fill="rgb(50, 49, 63)" stroke="none" stroke-width="1px">0</text><text style="text-anchor: end; visibility: hidden; font-family: &quot;Helvetica Neue&quot;, sans-serif; font-size: 12px; font-weight: 200;" x="0" y="146.34999910990396" dx="0em" dy="0.3em" fill="rgb(50, 49, 63)" stroke="none" stroke-width="1px">1e+3</text><text style="text-anchor: end; visibility: inherit; font-family: &quot;Helvetica Neue&quot;, sans-serif; font-size: 12px; font-weight: 200;" x="0" y="131.71499919891357" dx="0em" dy="0.3em" fill="rgb(50, 49, 63)" stroke="none" stroke-width="1px">2e+3</text><text style="text-anchor: end; visibility: hidden; font-family: &quot;Helvetica Neue&quot;, sans-serif; font-size: 12px; font-weight: 200;" x="0" y="117.07999928792319" dx="0em" dy="0.3em" fill="rgb(50, 49, 63)" stroke="none" stroke-width="1px">3e+3</text><text style="text-anchor: end; visibility: inherit; font-family: &quot;Helvetica Neue&quot;, sans-serif; font-size: 12px; font-weight: 200;" x="0" y="102.44499937693277" dx="0em" dy="0.3em" fill="rgb(50, 49, 63)" stroke="none" stroke-width="1px">4e+3</text><text style="text-anchor: end; visibility: hidden; font-family: &quot;Helvetica Neue&quot;, sans-serif; font-size: 12px; font-weight: 200;" x="0" y="87.80999946594238" dx="0em" dy="0.3em" fill="rgb(50, 49, 63)" stroke="none" stroke-width="1px">5e+3</text><text style="text-anchor: end; visibility: inherit; font-family: &quot;Helvetica Neue&quot;, sans-serif; font-size: 12px; font-weight: 200;" x="0" y="73.17499955495198" dx="0em" dy="0.3em" fill="rgb(50, 49, 63)" stroke="none" stroke-width="1px">6e+3</text><text style="text-anchor: end; visibility: hidden; font-family: &quot;Helvetica Neue&quot;, sans-serif; font-size: 12px; font-weight: 200;" x="0" y="58.53999964396159" dx="0em" dy="0.3em" fill="rgb(50, 49, 63)" stroke="none" stroke-width="1px">7e+3</text><text style="text-anchor: end; visibility: inherit; font-family: &quot;Helvetica Neue&quot;, sans-serif; font-size: 12px; font-weight: 200;" x="0" y="43.90499973297119" dx="0em" dy="0.3em" fill="rgb(50, 49, 63)" stroke="none" stroke-width="1px">8e+3</text><text style="text-anchor: end; visibility: hidden; font-family: &quot;Helvetica Neue&quot;, sans-serif; font-size: 12px; font-weight: 200;" x="0" y="29.269999821980775" dx="0em" dy="0.3em" fill="rgb(50, 49, 63)" stroke="none" stroke-width="1px">9e+3</text><text style="text-anchor: end; visibility: inherit; font-family: &quot;Helvetica Neue&quot;, sans-serif; font-size: 12px; font-weight: 200;" x="0" y="14.634999910990416" dx="0em" dy="0.3em" fill="rgb(50, 49, 63)" stroke="none" stroke-width="1px">1e+4</text><text style="text-anchor: end; visibility: hidden; font-family: &quot;Helvetica Neue&quot;, sans-serif; font-size: 12px; font-weight: 200;" x="0" y="0" dx="0em" dy="0.3em" fill="rgb(50, 49, 63)" stroke="none" stroke-width="1px">1.1e+4</text></g><line x1="70.26399803161621" y1="0" x2="70.26399803161621" y2="175.61999893188477" fill="rgb(0, 0, 0)" stroke="rgb(204, 204, 204)" stroke-width="1px"></line></g></g><g transform="translate(70, 0)" clip-path="url(#clip_0)"><clipPath id="clip_0"><rect width="259" height="175"></rect></clipPath><g><g><g><line x1="0" y1="0" x2="0" y2="175.61999893188477" fill="rgb(0, 0, 0)" stroke="rgb(60, 60, 60)" stroke-width="1px" opacity="0.25"></line><line x1="18.55257156917027" y1="0" x2="18.55257156917027" y2="175.61999893188477" fill="rgb(0, 0, 0)" stroke="rgb(60, 60, 60)" stroke-width="1px" opacity="0.25"></line><line x1="37.10514313834054" y1="0" x2="37.10514313834054" y2="175.61999893188477" fill="rgb(0, 0, 0)" stroke="rgb(60, 60, 60)" stroke-width="1px" opacity="0.25"></line><line x1="55.657714707510806" y1="0" x2="55.657714707510806" y2="175.61999893188477" fill="rgb(0, 0, 0)" stroke="rgb(60, 60, 60)" stroke-width="1px" opacity="0.25"></line><line x1="74.21028627668107" y1="0" x2="74.21028627668107" y2="175.61999893188477" fill="rgb(0, 0, 0)" stroke="rgb(60, 60, 60)" stroke-width="1px" opacity="0.25"></line><line x1="92.76285784585136" y1="0" x2="92.76285784585136" y2="175.61999893188477" fill="rgb(0, 0, 0)" stroke="rgb(60, 60, 60)" stroke-width="1px" opacity="0.25"></line><line x1="111.31542941502161" y1="0" x2="111.31542941502161" y2="175.61999893188477" fill="rgb(0, 0, 0)" stroke="rgb(60, 60, 60)" stroke-width="1px" opacity="0.25"></line><line x1="129.8680009841919" y1="0" x2="129.8680009841919" y2="175.61999893188477" fill="rgb(0, 0, 0)" stroke="rgb(60, 60, 60)" stroke-width="1px" opacity="0.25"></line><line x1="148.42057255336215" y1="0" x2="148.42057255336215" y2="175.61999893188477" fill="rgb(0, 0, 0)" stroke="rgb(60, 60, 60)" stroke-width="1px" opacity="0.25"></line><line x1="166.97314412253246" y1="0" x2="166.97314412253246" y2="175.61999893188477" fill="rgb(0, 0, 0)" stroke="rgb(60, 60, 60)" stroke-width="1px" opacity="0.25"></line><line x1="185.52571569170271" y1="0" x2="185.52571569170271" y2="175.61999893188477" fill="rgb(0, 0, 0)" stroke="rgb(60, 60, 60)" stroke-width="1px" opacity="0.25"></line><line x1="204.07828726087297" y1="0" x2="204.07828726087297" y2="175.61999893188477" fill="rgb(0, 0, 0)" stroke="rgb(60, 60, 60)" stroke-width="1px" opacity="0.25"></line><line x1="222.63085883004322" y1="0" x2="222.63085883004322" y2="175.61999893188477" fill="rgb(0, 0, 0)" stroke="rgb(60, 60, 60)" stroke-width="1px" opacity="0.25"></line><line x1="241.18343039921353" y1="0" x2="241.18343039921353" y2="175.61999893188477" fill="rgb(0, 0, 0)" stroke="rgb(60, 60, 60)" stroke-width="1px" opacity="0.25"></line><line x1="259.7360019683838" y1="0" x2="259.7360019683838" y2="175.61999893188477" fill="rgb(0, 0, 0)" stroke="rgb(60, 60, 60)" stroke-width="1px" opacity="0.25"></line></g><g><line x1="0" y1="175.61999893188477" x2="259.7360019683838" y2="175.61999893188477" fill="rgb(0, 0, 0)" stroke="rgb(60, 60, 60)" stroke-width="1px" opacity="0.25"></line><line x1="0" y1="160.98499902089438" x2="259.7360019683838" y2="160.98499902089438" fill="rgb(0, 0, 0)" stroke="rgb(60, 60, 60)" stroke-width="1px" opacity="0.25"></line><line x1="0" y1="146.34999910990396" x2="259.7360019683838" y2="146.34999910990396" fill="rgb(0, 0, 0)" stroke="rgb(60, 60, 60)" stroke-width="1px" opacity="0.25"></line><line x1="0" y1="131.71499919891357" x2="259.7360019683838" y2="131.71499919891357" fill="rgb(0, 0, 0)" stroke="rgb(60, 60, 60)" stroke-width="1px" opacity="0.25"></line><line x1="0" y1="117.07999928792319" x2="259.7360019683838" y2="117.07999928792319" fill="rgb(0, 0, 0)" stroke="rgb(60, 60, 60)" stroke-width="1px" opacity="0.25"></line><line x1="0" y1="102.44499937693277" x2="259.7360019683838" y2="102.44499937693277" fill="rgb(0, 0, 0)" stroke="rgb(60, 60, 60)" stroke-width="1px" opacity="0.25"></line><line x1="0" y1="87.80999946594238" x2="259.7360019683838" y2="87.80999946594238" fill="rgb(0, 0, 0)" stroke="rgb(60, 60, 60)" stroke-width="1px" opacity="0.25"></line><line x1="0" y1="73.17499955495198" x2="259.7360019683838" y2="73.17499955495198" fill="rgb(0, 0, 0)" stroke="rgb(60, 60, 60)" stroke-width="1px" opacity="0.25"></line><line x1="0" y1="58.53999964396159" x2="259.7360019683838" y2="58.53999964396159" fill="rgb(0, 0, 0)" stroke="rgb(60, 60, 60)" stroke-width="1px" opacity="0.25"></line><line x1="0" y1="43.90499973297119" x2="259.7360019683838" y2="43.90499973297119" fill="rgb(0, 0, 0)" stroke="rgb(60, 60, 60)" stroke-width="1px" opacity="0.25"></line><line x1="0" y1="29.269999821980775" x2="259.7360019683838" y2="29.269999821980775" fill="rgb(0, 0, 0)" stroke="rgb(60, 60, 60)" stroke-width="1px" opacity="0.25"></line><line x1="0" y1="14.634999910990416" x2="259.7360019683838" y2="14.634999910990416" fill="rgb(0, 0, 0)" stroke="rgb(60, 60, 60)" stroke-width="1px" opacity="0.25"></line><line x1="0" y1="0" x2="259.7360019683838" y2="0" fill="rgb(0, 0, 0)" stroke="rgb(60, 60, 60)" stroke-width="1px" opacity="0.25"></line></g></g></g><g><g><line x1="0" y1="160.98499902089438" x2="259.7360019683838" y2="160.98499902089438" fill="rgb(0, 0, 0)" stroke="rgb(153, 153, 153)" stroke-width="1.5px"></line></g></g><g><g><line x1="18.55257156917027" y1="0" x2="18.55257156917027" y2="175.61999893188477" fill="rgb(0, 0, 0)" stroke="rgb(153, 153, 153)" stroke-width="1.5px"></line></g></g><g><g><g><g><g><path style="fill: none;" stroke="rgb(51, 187, 238)" stroke-width="2px" d="M18.55257156917027,43.38374219707896L18.55257156917027,42.18167847147973L20.4078287260873,59.78427476822989L22.263085883004326,71.51520619834757L24.118343039921353,79.54624815145617L25.97360019683838,85.6539238296415L27.828857353755403,91.02662666805865L29.684114510672433,95.48633561310281L31.53937166758946,99.54562581546512L33.39462882450648,102.97923046865431L35.24988598142351,106.11946697299298L37.10514313834054,108.9572599134973L38.960400295257564,111.7552782399857L40.8156574521746,114.17710275040272L42.670914609091625,116.03569414412812L44.52617176600865,118.03761635363219L46.38142892292568,119.98785871970057L48.236686079842706,121.65963948467933L50.09194323675973,123.1881394558518L51.94720039367676,124.56707730268974L53.802457550593786,126.02047285537367L55.657714707510806,127.02915878185607L57.51297186442784,127.89287388646626L59.36822902134487,128.92718535478497L61.22348617826189,129.71877949425766L63.07874333517892,130.42209199852505L64.93400049209595,131.27364819085568L66.78925764901297,131.9255523995373L68.64451480593,132.4476031409911L70.49977196284702,133.09992181744366L72.35502911976405,133.38398409293768L74.21028627668107,148.14540560655274L76.06554343359811,152.18087820407942L77.92080059051513,154.05474461098706L79.77605774743216,155.29147668979954L81.6313149043492,156.2300554821563L83.48657206126623,157.03614572124172L85.34182921818325,157.47123326376158L87.19708637510027,157.92147456084317L89.0523435320173,158.2915330926806L90.90760068893432,158.6181031023674L92.76285784585136,158.88349802636668L94.61811500276838,159.24578204946997L96.47337215968541,159.3869265254258L98.32862931660243,159.43753748417103L100.18388647351946,159.5204946823817L102.03914363043648,159.5049999298209L103.89440078735352,159.60401418115657L105.74965794427054,159.62823687464328L107.60491510118757,159.68034659440386L109.46017225810459,159.68784252094824L111.31542941502161,159.71265989529377L113.17068657193865,159.76870158772482L115.02594372885568,159.73470495814036L116.88120088577271,159.74733249144214L118.73645804268973,159.7937728682425L120.59171519960677,159.76134858110146L122.44697235652379,159.77989992181656L124.30222951344082,159.8025814249364L126.15748667035784,159.80183355178724L128.01274382727487,159.80786979698215L129.8680009841919,159.7970491957754L131.72325814110891,159.85798801696848L133.57851529802593,159.80197825820727L135.43377245494298,159.81889718544963L137.28902961186,159.76241914063473L139.14428676877702,159.81925705334447L140.99954392569404,159.81849287839185L142.8548010826111,159.80805414134903L144.7100582395281,159.80026656884084L146.56531539644513,159.844930160717L148.42057255336215,159.79206218378178L150.2758297102792,159.85746122307214L152.13108686719622,159.80876382808177L153.98634402411324,159.805865903371L155.84160118103026,159.83224970238197L157.69685833794728,159.85013043603024L159.55211549486432,159.78560108679045L161.40737265178134,159.8086852221252L163.2626298086984,159.85492294294386L165.1178869656154,159.8043391166524L166.97314412253246,159.8086750614121L168.82840127944948,159.79493074291503L170.6836584363665,159.7892463263694L172.53891559328352,159.79921945710709L174.39417275020054,159.80914826033802L176.2494299071176,159.80169409320808L178.1046870640346,159.8039298967223L179.95994422095163,159.82023862289572L181.81520137786865,159.8137000365097L183.6704585347857,159.84053213511663L185.52571569170271,159.82549014839935L187.38097284861973,159.79502118442755L189.23623000553675,159.8534401487634L191.0914871624538,159.79296726884402L192.94674431937082,159.80423069849354L194.80200147628784,159.79223044965755L196.65725863320486,159.83250896805117L198.51251579012188,159.8260891838495L200.36777294703893,159.81246098778828L202.22303010395595,159.84875873975716L204.07828726087297,159.7958697714585L205.93354441779,159.79859060945466L207.78880157470704,159.780873898747L209.64405873162406,159.81265292477593L211.49931588854108,159.77385541406372L213.3545730454581,159.81962819851435L215.20983020237514,159.8287349888871L217.06508735929216,159.77806898364108L218.92034451620918,159.83707503621494L220.7756016731262,159.80497979986075L222.63085883004322,159.81490726321744L224.48611598696027,159.79746634329481L226.3413731438773,159.78654547483097L228.19663030079434,159.7753969393992L230.05188745771136,159.7982414605539L231.9071446146284,159.81211731004075L233.76240177154543,159.83171676739528L235.61765892846245,159.81486717864584L237.47291608537947,159.81985017101664L239.3281732422965,159.84427317570515" fill="none"></path></g><g><path style="fill: none;" stroke="rgb(0, 119, 187)" stroke-width="2px" d="M18.55257156917027,38.922353942962985L20.4078287260873,49.63162946376701L22.263085883004326,60.6101661157459L24.118343039921353,68.77573859049721L25.97360019683838,75.24449430310757L27.828857353755403,80.33665248258644L29.684114510672433,85.03317973673715L31.53937166758946,88.99235453443494L33.39462882450648,92.64393707814409L35.24988598142351,95.770281766161L37.10514313834054,98.90971077294601L38.960400295257564,101.57969071520337L40.8156574521746,104.3059953983291L42.670914609091625,106.67779436339609L44.52617176600865,108.82352259741614L46.38142892292568,110.81922421735844L48.236686079842706,112.6191219725248L50.09194323675973,114.44212987891778L51.94720039367676,115.7166182744867L53.802457550593786,117.5275494475547L55.657714707510806,118.42703383539461L57.51297186442784,120.05237991803861L59.36822902134487,120.84550687366405L61.22348617826189,121.95827423261889L63.07874333517892,122.75693933518332L64.93400049209595,123.65799584215429L66.78925764901297,123.8285600488806L68.64451480593,124.98856958772389L70.49977196284702,125.33838395937563L72.35502911976405,126.0983320553396L74.21028627668107,126.88425584694633L76.06554343359811,142.63815616800173L77.92080059051513,148.13925826345047L79.77605774743216,150.98662505216313L81.6313149043492,153.07788203804037L83.48657206126623,154.8744783430315L85.34182921818325,156.20393731321727L87.19708637510027,157.2345980708038L89.0523435320173,158.07573763401686L90.90760068893432,158.64408661394336L92.76285784585136,159.15909352475916L94.61811500276838,159.48003126134026L96.47337215968541,159.71339146663942L98.32862931660243,160.14002529583175L100.18388647351946,160.25414327975682L102.03914363043648,160.34753324140425L103.89440078735352,160.40638839063965L105.74965794427054,160.44451881145497L107.60491510118757,160.48623334008613L109.46017225810459,160.506758092273L111.31542941502161,160.540535010393L113.17068657193865,160.56301516949128L115.02594372885568,160.57838322019242L116.88120088577271,160.5924417950314L118.73645804268973,160.61313687873348L120.59171519960677,160.64024359573554L122.44697235652379,160.63890201871922L124.30222951344082,160.6365376431042L126.15748667035784,160.6297189392558L128.01274382727487,160.6198432843705L129.8680009841919,160.63477498268782L131.72325814110891,160.6412569873004L133.57851529802593,160.64441914638076L135.43377245494298,160.63825661803688L137.28902961186,160.63457721166432L139.14428676877702,160.65032835474744L140.99954392569404,160.64582408828392L142.8548010826111,160.65202628248866L144.7100582395281,160.64031008699564L146.56531539644513,160.64685590311987L148.42057255336215,160.65095145210617L150.2758297102792,160.64421065636319L152.13108686719622,160.63653446090282L153.98634402411324,160.64984100339964L155.84160118103026,160.66009732214485L157.69685833794728,160.63488203305832L159.55211549486432,160.64769131472062L161.40737265178134,160.64644447798008L163.2626298086984,160.6549172007736L165.1178869656154,160.64654787161044" fill="none"></path></g><g><path style="fill: none;" stroke="rgb(204, 51, 17)" stroke-width="2px" d="M18.55257156917027,102.19736560280411L20.4078287260873,111.5292539579131L22.263085883004326,114.72675132860275L24.118343039921353,115.87747821857671L25.97360019683838,116.30174315007838L27.828857353755403,116.71119443176781L29.684114510672433,116.8728618734115L31.53937166758946,117.15880533236576L33.39462882450648,117.21675578733557L35.24988598142351,117.2887624165363L37.10514313834054,117.47948547812047L38.960400295257564,117.44318024518698L40.8156574521746,117.5212967010107L42.670914609091625,117.53966191085995L44.52617176600865,117.68641923174471L46.38142892292568,117.84188394881676L48.236686079842706,117.90278570015535L50.09194323675973,117.93728656908614L51.94720039367676,118.07232802944645L53.802457550593786,118.08064239585097L55.657714707510806,118.08456912068061L57.51297186442784,118.1494940677955L59.36822902134487,118.04248992293847L61.22348617826189,118.15500005775225L63.07874333517892,118.21747035522387L64.93400049209595,118.217631140135L66.78925764901297,118.21193578128292L68.64451480593,118.139050194568L70.49977196284702,118.21994286985728L72.35502911976405,118.24208831161711L74.21028627668107,127.64604403689324L76.06554343359811,130.47010594598692L77.92080059051513,131.5525671356925L79.77605774743216,132.3375762398048L81.6313149043492,133.1411970906301L83.48657206126623,133.91859034945185L85.34182921818325,134.6432711684086L87.19708637510027,135.32511174104388L89.0523435320173,135.94451953268683L90.90760068893432,136.4432904055078L92.76285784585136,136.98613420896896L94.61811500276838,137.46879086069654L96.47337215968541,137.8513481862507L98.32862931660243,138.20781726672428L100.18388647351946,138.5721397968571L102.03914363043648,138.9677474976981L103.89440078735352,139.2329943655917L105.74965794427054,139.4643299092287L107.60491510118757,139.69231219421906L109.46017225810459,139.95668367759652L111.31542941502161,140.14686542997987L113.17068657193865,140.35439230127628L115.02594372885568,140.5679003712668L116.88120088577271,140.73824841161257L118.73645804268973,140.85214844265812L120.59171519960677,148.52939302456645L122.44697235652379,151.54304982111785L124.30222951344082,153.16304265947068L126.15748667035784,154.4361956470277L128.01274382727487,155.4579779511465L129.8680009841919,156.35207113159123L131.72325814110891,157.0782950390701L133.57851529802593,157.7226673679147L135.43377245494298,158.27108705810647L137.28902961186,158.69662643334124L139.14428676877702,159.0757199606224L140.99954392569404,159.3426845473166L142.8548010826111,159.8514522219872L144.7100582395281,159.99358853986354L146.56531539644513,160.0641662489947L148.42057255336215,160.1150385390486L150.2758297102792,160.13803122796514L152.13108686719622,160.16809694561294L153.98634402411324,160.21614455741562L155.84160118103026,160.2345597334091L157.69685833794728,160.26601780372482L159.55211549486432,160.2811286264822L161.40737265178134,160.30324983884918L163.2626298086984,160.32445513550365L165.1178869656154,160.3241582975271" fill="none"></path></g><g><path style="fill: none;" stroke="rgb(0, 153, 136)" stroke-width="2px" d="M18.55257156917027,146.39371563399112L20.4078287260873,149.42614942841416L22.263085883004326,150.75933503554015L24.118343039921353,151.59367830988464L25.97360019683838,152.188633396293L27.828857353755403,152.67064512187704L29.684114510672433,153.03064879064698L31.53937166758946,153.32413931467985L33.39462882450648,153.63540416401355L35.24988598142351,153.8419310424877L37.10514313834054,154.05672092551973L38.960400295257564,154.2433252136304L40.8156574521746,154.36891028809242L42.670914609091625,154.4776133935104L44.52617176600865,154.69930139585475L46.38142892292568,154.81799906999854L48.236686079842706,154.9510454575866L50.09194323675973,155.06229968359452L51.94720039367676,155.1807494810003L53.802457550593786,155.25504863505893L55.657714707510806,155.32508386259929L57.51297186442784,155.39000836308944L59.36822902134487,155.5419813678414L61.22348617826189,155.63431120980914L63.07874333517892,155.72775180753797L64.93400049209595,155.8048178019423L66.78925764901297,155.86958241077082L68.64451480593,155.9500887556486L70.49977196284702,156.0483470945896L72.35502911976405,156.09159287618692L74.21028627668107,156.20486227308103L76.06554343359811,156.26477475059139L77.92080059051513,156.37882976042627L79.77605774743216,156.40210560943632L81.6313149043492,156.47663432861805L83.48657206126623,156.54770438571146L85.34182921818325,156.6367609148634L87.19708637510027,156.69062653984096L89.0523435320173,156.7739653789032L90.90760068893432,156.82612981019605L92.76285784585136,156.8783724008207L94.61811500276838,156.94254210547803L96.47337215968541,157.01019369671084L98.32862931660243,158.3519379739813L100.18388647351946,158.87881248608144L102.03914363043648,159.08938466825717L103.89440078735352,159.22530073154033L105.74965794427054,159.3481194122814L107.60491510118757,159.43320354922272L109.46017225810459,159.51458650683475L111.31542941502161,159.58325361110005L113.17068657193865,159.6558081372167L115.02594372885568,159.71383306686408L116.88120088577271,159.76466957110964L118.73645804268973,159.82783749644568L120.59171519960677,159.96498043792573L122.44697235652379,159.98296456520436L124.30222951344082,159.99960937650448L126.15748667035784,160.00664181821128L128.01274382727487,160.01511819774498L129.8680009841919,160.0277599113827L131.72325814110891,160.02580905446098L133.57851529802593,160.03812685349646L135.43377245494298,160.04470295636176L137.28902961186,160.05265215120247L139.14428676877702,160.06108805536795L140.99954392569404,160.07122693971712L142.8548010826111,160.0749330319187L144.7100582395281,160.07476029979543L146.56531539644513,160.0751199443779L148.42057255336215,160.06829322919802L150.2758297102792,160.07485889220968L152.13108686719622,160.0774800212297L153.98634402411324,160.0765460172147L155.84160118103026,160.07707225283008L157.69685833794728,160.07520815276663L159.55211549486432,160.07907854704928L161.40737265178134,160.07382188536099L163.2626298086984,160.0732471351318L165.1178869656154,160.07972676705037" fill="none"></path></g><g><path style="fill: none;" stroke="rgb(51, 187, 238)" stroke-width="2px" d="M18.55257156917027,43.75726341062753L20.4078287260873,61.087468629932815L22.263085883004326,72.55017509830293L24.118343039921353,80.20423002977856L25.97360019683838,86.14523249608698L27.828857353755403,91.24527985520537L29.684114510672433,95.60781039996165L31.53937166758946,99.38446216654296L33.39462882450648,102.7988047873786L35.24988598142351,105.90440822185955L37.10514313834054,108.7959068956798L38.960400295257564,111.52878946816983L40.8156574521746,113.62538897934417L42.670914609091625,115.83214401963369L44.52617176600865,117.70366609321209L46.38142892292568,119.75003997114698L48.236686079842706,121.37249549838862L50.09194323675973,122.9233088422281L51.94720039367676,124.06181250595804L53.802457550593786,125.30648066000913L55.657714707510806,126.37488210248574L57.51297186442784,127.84642491213938L59.36822902134487,128.5885759049401L61.22348617826189,129.41918718284734L63.07874333517892,130.00722047883147L64.93400049209595,131.05691727664646L66.78925764901297,131.54547116161456L68.64451480593,132.28748102099328L70.49977196284702,146.98401599722223L72.35502911976405,151.24724042136666L74.21028627668107,153.20444924033455L76.06554343359811,154.52029508804452L77.92080059051513,155.6477331768906L79.77605774743216,156.3739990670963L81.6313149043492,157.10514388610528L83.48657206126623,157.57438973637025L85.34182921818325,157.98882267055623L87.19708637510027,158.29294777658617L89.0523435320173,158.62563609876628L90.90760068893432,159.0994926796703L92.76285784585136,159.25148332610004L94.61811500276838,159.33636436043486L96.47337215968541,159.35421729169224L98.32862931660243,159.39073612291392L100.18388647351946,159.46641054624365L102.03914363043648,159.50634527523357L103.89440078735352,159.54074364378351L105.74965794427054,159.5809979327843L107.60491510118757,159.56787486931887L109.46017225810459,159.6075834945275L111.31542941502161,159.68741331456047L113.17068657193865,159.7054707999548L115.02594372885568,159.68862891548235L116.88120088577271,159.6732281774321L118.73645804268973,159.69018841746413L120.59171519960677,159.6851644472722L122.44697235652379,159.70426033521758L124.30222951344082,159.70616161679172L126.15748667035784,159.67176324824177L128.01274382727487,159.74112418406108L129.8680009841919,159.70531191319887L131.72325814110891,159.71984910228892L133.57851529802593,159.7373723128223L135.43377245494298,159.7009393452094L137.28902961186,159.70825651019635L139.14428676877702,159.7366381733843L140.99954392569404,159.72999072221472L142.8548010826111,159.7207852277715L144.7100582395281,159.7230108705726L146.56531539644513,159.67564318912852L148.42057255336215,159.70702293262815L150.2758297102792,159.70220385154175L152.13108686719622,159.7119973274725L153.98634402411324,159.73376425475402L155.84160118103026,159.72305151342513L157.69685833794728,159.69946101727652L159.55211549486432,159.68493264902534L161.40737265178134,159.70371567633114L163.2626298086984,159.75047684136047L165.1178869656154,159.71211010022265" fill="none"></path></g><g><path style="fill: none;" stroke="rgb(255, 112, 67)" stroke-width="2px" d="M18.55257156917027,35.86371042152649L20.4078287260873,42.508129009045035L22.263085883004326,49.92365059236205L24.118343039921353,57.12805086836933L25.97360019683838,62.73116920343196L27.828857353755403,67.66519363631402L29.684114510672433,72.09911982760873L31.53937166758946,76.36387170840894L33.39462882450648,80.0131103654136L35.24988598142351,83.38118266182363L37.10514313834054,86.42022471609415L38.960400295257564,89.20212524849114L40.8156574521746,91.82091127504424L42.670914609091625,94.19198849451014L44.52617176600865,96.40874078327401L46.38142892292568,98.35252316891294L48.236686079842706,100.1709361998456L50.09194323675973,101.92572128194648L51.94720039367676,103.29909239786126L53.802457550593786,104.73656667134514L55.657714707510806,106.04537013994755L57.51297186442784,107.19545746327502L59.36822902134487,108.47455502629637L61.22348617826189,109.18859367063524L63.07874333517892,109.90894937548259L64.93400049209595,110.99655568234436L66.78925764901297,111.776351782338L68.64451480593,112.31354488942236L70.49977196284702,113.0096720946612L72.35502911976405,113.68569046701452L74.21028627668107,113.80105542725036L76.06554343359811,114.48543461498254L77.92080059051513,114.90555486877503L79.77605774743216,115.25177480441347L81.6313149043492,115.65583085908492L83.48657206126623,116.15163435704602L85.34182921818325,116.46843422694543L87.19708637510027,116.81253894775298L89.0523435320173,117.47745244224416L90.90760068893432,117.30850680362323L92.76285784585136,133.2518492664708L94.61811500276838,138.3328382541231L96.47337215968541,141.26353092978013L98.32862931660243,143.38659027782967L100.18388647351946,145.05228622717163L102.03914363043648,146.47750333093026L103.89440078735352,147.6774071792233L105.74965794427054,148.70491208630412L107.60491510118757,149.8072695155127L109.46017225810459,150.31838509651055L111.31542941502161,151.02889719179862L113.17068657193865,151.38777000669361L115.02594372885568,153.69820898342527L116.88120088577271,154.3439560232601L118.73645804268973,154.8373450678057L120.59171519960677,155.1213323103412L122.44697235652379,155.30057845564383L124.30222951344082,155.45743530207142L126.15748667035784,155.65124052107703L128.01274382727487,155.9109014531831L129.8680009841919,156.009329956155L131.72325814110891,156.245892349278L133.57851529802593,156.30998791422633L135.43377245494298,156.57012405506973L137.28902961186,156.59296623144445L139.14428676877702,156.6574999352756L140.99954392569404,156.66589380088618L142.8548010826111,156.63919234001952L144.7100582395281,156.67905493911178L146.56531539644513,156.70448798567952L148.42057255336215,156.61680974051575L150.2758297102792,156.67435600008398L152.13108686719622,156.72495054536952L153.98634402411324,156.71940212606123L155.84160118103026,156.75008167360411L157.69685833794728,156.73810230447532L159.55211549486432,156.82609899308807L161.40737265178134,156.78611089244018L163.2626298086984,156.75420491332514L165.1178869656154,156.80525233611039" fill="none"></path></g><g><path style="fill: none;" stroke="rgb(187, 187, 187)" stroke-width="2px" d="M18.55257156917027,101.38302218490536L20.4078287260873,108.79173720698446L22.263085883004326,111.20417187859141L24.118343039921353,112.33182792031702L25.97360019683838,112.99641627198791L27.828857353755403,113.51368276908606L29.684114510672433,113.8980980536133L31.53937166758946,114.2269210618673L33.39462882450648,114.54493217809724L35.24988598142351,114.7356981156577L37.10514313834054,114.87528085650798L38.960400295257564,114.97730424211795L40.8156574521746,115.12000263724616L42.670914609091625,115.11577935358044L44.52617176600865,115.26666706018227L46.38142892292568,115.2386190256849L48.236686079842706,115.31329468441041L50.09194323675973,115.30613439636801L51.94720039367676,115.3235098857643L53.802457550593786,115.3575569839459L55.657714707510806,115.38718071057235L57.51297186442784,115.42383967031034L59.36822902134487,115.34393671547404L61.22348617826189,115.4893577350974L63.07874333517892,115.42021307731483L64.93400049209595,115.5370036637627L66.78925764901297,115.52205781302354L68.64451480593,115.52639900562409L70.49977196284702,124.7755903214411L72.35502911976405,127.48118233501508L74.21028627668107,128.4503544763374L76.06554343359811,129.24441755744544L77.92080059051513,129.94874122015395L79.77605774743216,130.55287444523938L81.6313149043492,131.1997907486779L83.48657206126623,131.751152579431L85.34182921818325,132.31342634615288L87.19708637510027,132.82288762906506L89.0523435320173,133.22129656035779L90.90760068893432,133.62893275905043L92.76285784585136,133.92473411955606L94.61811500276838,134.19938690475087L96.47337215968541,134.5499105165106L98.32862931660243,134.78145150753403L100.18388647351946,135.0600095795703L102.03914363043648,135.23359118312885L103.89440078735352,135.44506621724304L105.74965794427054,135.6361001296554L107.60491510118757,135.8064892594785L109.46017225810459,135.90639743025756L111.31542941502161,136.0790250433434L113.17068657193865,136.25272634233576L115.02594372885568,136.25871468702593L116.88120088577271,136.48601095639546L118.73645804268973,136.57839082033556L120.59171519960677,136.66368364269277L122.44697235652379,136.75750878433405L124.30222951344082,136.87371339910584L126.15748667035784,136.9197514786598L128.01274382727487,137.0857815508922L129.8680009841919,144.58272461320618L131.72325814110891,147.51578529330442L133.57851529802593,148.98230982723175L135.43377245494298,150.12435879825216L137.28902961186,150.94183126917142L139.14428676877702,151.67838605381525L140.99954392569404,152.2888122216725L142.8548010826111,152.70758098896198L144.7100582395281,153.0825456937127L146.56531539644513,153.3606214110156L148.42057255336215,153.59843971294444L150.2758297102792,153.76364263613402L152.13108686719622,155.38029025508578L153.98634402411324,155.93991375052252L155.84160118103026,156.15858167628608L157.69685833794728,156.32256844027285L159.55211549486432,156.44963988191333L161.40737265178134,156.57616376160647L163.2626298086984,156.6454482129368L165.1178869656154,156.7606724863754" fill="none"></path></g><g><path style="fill: none;" stroke="rgb(238, 51, 119)" stroke-width="2px" d="M18.55257156917027,130.3616511639317L20.4078287260873,134.66761400395393L22.263085883004326,137.15110846028492L24.118343039921353,138.9410732809414L25.97360019683838,140.2046783245257L27.828857353755403,141.22548743330742L29.684114510672433,141.9865610236493L31.53937166758946,142.7478668588628L33.39462882450648,143.32896496568014L35.24988598142351,143.8297206389041L37.10514313834054,144.3390979563627L38.960400295257564,144.76462415616726L40.8156574521746,145.11872791194818L42.670914609091625,145.3513622403673L44.52617176600865,145.70104619759113L46.38142892292568,145.9385362303264L48.236686079842706,146.1915044905066L50.09194323675973,146.41215051730185L51.94720039367676,146.59081113755312L53.802457550593786,146.74740849499915L55.657714707510806,146.92392442318584L57.51297186442784,147.1891641450834L59.36822902134487,147.24265639176733L61.22348617826189,147.2388556151181L63.07874333517892,147.43121243004924L64.93400049209595,147.672819449759L66.78925764901297,147.78652028616466L68.64451480593,148.03792893270688L70.49977196284702,148.23244473169476L72.35502911976405,148.40545018932173L74.21028627668107,148.5275377453419L76.06554343359811,148.6496592448433L77.92080059051513,148.77260789338752L79.77605774743216,148.886571345148L81.6313149043492,148.980785943574L83.48657206126623,149.11962639408458L85.34182921818325,149.19823413713675L87.19708637510027,149.28636927942298L89.0523435320173,149.42039422184516L90.90760068893432,149.5280683038319L92.76285784585136,149.61065100718704L94.61811500276838,149.705994672989L96.47337215968541,149.80357860855273L98.32862931660243,149.8968615477437L100.18388647351946,149.99675542653068L102.03914363043648,150.09318974997979L103.89440078735352,150.13606661953105L105.74965794427054,150.24871252826975L107.60491510118757,150.30855845869192L109.46017225810459,150.38126003600854L111.31542941502161,150.50551282883194L113.17068657193865,150.52576190188992L115.02594372885568,150.6683397083348L116.88120088577271,153.15088999993765L118.73645804268973,154.07115539091654L120.59171519960677,154.42483663968102L122.44697235652379,154.68802233433885L124.30222951344082,154.86534352695548L126.15748667035784,155.03789164083523L128.01274382727487,155.17437525252345L129.8680009841919,155.32345234237604L131.72325814110891,155.41031460411583L133.57851529802593,155.52300919495264L135.43377245494298,155.58848661688717L137.28902961186,155.71796357944808L139.14428676877702,156.0907809123857L140.99954392569404,156.1702814583194L142.8548010826111,156.2011910176102L144.7100582395281,156.22556690338723L146.56531539644513,156.24729341112862L148.42057255336215,156.2640092357645L150.2758297102792,156.31162345407233L152.13108686719622,156.29986427094684L153.98634402411324,156.32436476503L155.84160118103026,156.32091056918918L157.69685833794728,156.34281394033283L159.55211549486432,156.38456352900712L161.40737265178134,156.4016120890841L163.2626298086984,156.40104442902285L165.1178869656154,156.38715127282683" fill="none"></path></g></g></g></g></g></g><g transform="translate(70, 175)" clip-path="url(#clip_1)"><clipPath id="clip_1"><rect width="259" height="24"></rect></clipPath><g><g><line x1="0" y1="0" x2="0" y2="5" style="visibility: inherit;" fill="rgb(0, 0, 0)" stroke="rgb(204, 204, 204)" stroke-width="1px"></line><line x1="18.55257156917027" y1="0" x2="18.55257156917027" y2="5" style="visibility: inherit;" fill="rgb(0, 0, 0)" stroke="rgb(204, 204, 204)" stroke-width="1px"></line><line x1="37.10514313834054" y1="0" x2="37.10514313834054" y2="5" style="visibility: inherit;" fill="rgb(0, 0, 0)" stroke="rgb(204, 204, 204)" stroke-width="1px"></line><line x1="55.657714707510806" y1="0" x2="55.657714707510806" y2="5" style="visibility: inherit;" fill="rgb(0, 0, 0)" stroke="rgb(204, 204, 204)" stroke-width="1px"></line><line x1="74.21028627668107" y1="0" x2="74.21028627668107" y2="5" style="visibility: inherit;" fill="rgb(0, 0, 0)" stroke="rgb(204, 204, 204)" stroke-width="1px"></line><line x1="92.76285784585136" y1="0" x2="92.76285784585136" y2="5" style="visibility: inherit;" fill="rgb(0, 0, 0)" stroke="rgb(204, 204, 204)" stroke-width="1px"></line><line x1="111.31542941502161" y1="0" x2="111.31542941502161" y2="5" style="visibility: inherit;" fill="rgb(0, 0, 0)" stroke="rgb(204, 204, 204)" stroke-width="1px"></line><line x1="129.8680009841919" y1="0" x2="129.8680009841919" y2="5" style="visibility: inherit;" fill="rgb(0, 0, 0)" stroke="rgb(204, 204, 204)" stroke-width="1px"></line><line x1="148.42057255336215" y1="0" x2="148.42057255336215" y2="5" style="visibility: inherit;" fill="rgb(0, 0, 0)" stroke="rgb(204, 204, 204)" stroke-width="1px"></line><line x1="166.97314412253246" y1="0" x2="166.97314412253246" y2="5" style="visibility: inherit;" fill="rgb(0, 0, 0)" stroke="rgb(204, 204, 204)" stroke-width="1px"></line><line x1="185.52571569170271" y1="0" x2="185.52571569170271" y2="5" style="visibility: inherit;" fill="rgb(0, 0, 0)" stroke="rgb(204, 204, 204)" stroke-width="1px"></line><line x1="204.07828726087297" y1="0" x2="204.07828726087297" y2="5" style="visibility: inherit;" fill="rgb(0, 0, 0)" stroke="rgb(204, 204, 204)" stroke-width="1px"></line><line x1="222.63085883004322" y1="0" x2="222.63085883004322" y2="5" style="visibility: inherit;" fill="rgb(0, 0, 0)" stroke="rgb(204, 204, 204)" stroke-width="1px"></line><line x1="241.18343039921353" y1="0" x2="241.18343039921353" y2="5" style="visibility: inherit;" fill="rgb(0, 0, 0)" stroke="rgb(204, 204, 204)" stroke-width="1px"></line><line x1="259.7360019683838" y1="0" x2="259.7360019683838" y2="5" style="visibility: inherit;" fill="rgb(0, 0, 0)" stroke="rgb(204, 204, 204)" stroke-width="1px"></line></g><g transform="translate(0, 8)"><text style="text-anchor: middle; visibility: hidden; font-family: &quot;Helvetica Neue&quot;, sans-serif; font-size: 12px; font-weight: 200;" x="0" y="0" dx="0em" dy="0.95em" fill="rgb(50, 49, 63)" stroke="none" stroke-width="1px">-10</text><text style="text-anchor: middle; visibility: inherit; font-family: &quot;Helvetica Neue&quot;, sans-serif; font-size: 12px; font-weight: 200;" x="18.55257156917027" y="0" dx="0em" dy="0.95em" fill="rgb(50, 49, 63)" stroke="none" stroke-width="1px">0</text><text style="text-anchor: middle; visibility: hidden; font-family: &quot;Helvetica Neue&quot;, sans-serif; font-size: 12px; font-weight: 200;" x="37.10514313834054" y="0" dx="0em" dy="0.95em" fill="rgb(50, 49, 63)" stroke="none" stroke-width="1px">10</text><text style="text-anchor: middle; visibility: inherit; font-family: &quot;Helvetica Neue&quot;, sans-serif; font-size: 12px; font-weight: 200;" x="55.657714707510806" y="0" dx="0em" dy="0.95em" fill="rgb(50, 49, 63)" stroke="none" stroke-width="1px">20</text><text style="text-anchor: middle; visibility: hidden; font-family: &quot;Helvetica Neue&quot;, sans-serif; font-size: 12px; font-weight: 200;" x="74.21028627668107" y="0" dx="0em" dy="0.95em" fill="rgb(50, 49, 63)" stroke="none" stroke-width="1px">30</text><text style="text-anchor: middle; visibility: inherit; font-family: &quot;Helvetica Neue&quot;, sans-serif; font-size: 12px; font-weight: 200;" x="92.76285784585136" y="0" dx="0em" dy="0.95em" fill="rgb(50, 49, 63)" stroke="none" stroke-width="1px">40</text><text style="text-anchor: middle; visibility: hidden; font-family: &quot;Helvetica Neue&quot;, sans-serif; font-size: 12px; font-weight: 200;" x="111.31542941502161" y="0" dx="0em" dy="0.95em" fill="rgb(50, 49, 63)" stroke="none" stroke-width="1px">50</text><text style="text-anchor: middle; visibility: inherit; font-family: &quot;Helvetica Neue&quot;, sans-serif; font-size: 12px; font-weight: 200;" x="129.8680009841919" y="0" dx="0em" dy="0.95em" fill="rgb(50, 49, 63)" stroke="none" stroke-width="1px">60</text><text style="text-anchor: middle; visibility: hidden; font-family: &quot;Helvetica Neue&quot;, sans-serif; font-size: 12px; font-weight: 200;" x="148.42057255336215" y="0" dx="0em" dy="0.95em" fill="rgb(50, 49, 63)" stroke="none" stroke-width="1px">70</text><text style="text-anchor: middle; visibility: inherit; font-family: &quot;Helvetica Neue&quot;, sans-serif; font-size: 12px; font-weight: 200;" x="166.97314412253246" y="0" dx="0em" dy="0.95em" fill="rgb(50, 49, 63)" stroke="none" stroke-width="1px">80</text><text style="text-anchor: middle; visibility: hidden; font-family: &quot;Helvetica Neue&quot;, sans-serif; font-size: 12px; font-weight: 200;" x="185.52571569170271" y="0" dx="0em" dy="0.95em" fill="rgb(50, 49, 63)" stroke="none" stroke-width="1px">90</text><text style="text-anchor: middle; visibility: inherit; font-family: &quot;Helvetica Neue&quot;, sans-serif; font-size: 12px; font-weight: 200;" x="204.07828726087297" y="0" dx="0em" dy="0.95em" fill="rgb(50, 49, 63)" stroke="none" stroke-width="1px">100</text><text style="text-anchor: middle; visibility: hidden; font-family: &quot;Helvetica Neue&quot;, sans-serif; font-size: 12px; font-weight: 200;" x="222.63085883004322" y="0" dx="0em" dy="0.95em" fill="rgb(50, 49, 63)" stroke="none" stroke-width="1px">110</text><text style="text-anchor: middle; visibility: inherit; font-family: &quot;Helvetica Neue&quot;, sans-serif; font-size: 12px; font-weight: 200;" x="241.18343039921353" y="0" dx="0em" dy="0.95em" fill="rgb(50, 49, 63)" stroke="none" stroke-width="1px">120</text><text style="text-anchor: middle; visibility: hidden; font-family: &quot;Helvetica Neue&quot;, sans-serif; font-size: 12px; font-weight: 200;" x="259.7360019683838" y="0" dx="0em" dy="0.95em" fill="rgb(50, 49, 63)" stroke="none" stroke-width="1px">130</text></g><line x1="0" y1="0" x2="259.7360019683838" y2="0" fill="rgb(0, 0, 0)" stroke="rgb(204, 204, 204)" stroke-width="1px"></line></g></g></g></g></svg>